<svg width="90" height="14" viewBox="0 0 90 14" fill="none" xmlns="http://www.w3.org/2000/svg">
<path d="M5.184 0.129999H7.236L11.592 13H10.044L8.784 9.292H3.474L2.232 13H0.756L5.184 0.129999ZM3.906 8.05H8.37L6.138 1.426L3.906 8.05ZM19.7609 8.806H15.1349V13H13.6409V3.586H15.1349V7.546H19.7609V3.586H21.2549V13H19.7609V8.806ZM26.7417 13.162C25.8177 13.162 25.0617 12.934 24.4737 12.478C23.8977 12.01 23.6097 11.314 23.6097 10.39C23.6097 9.874 23.7357 9.424 23.9877 9.04C24.2517 8.644 24.6117 8.338 25.0677 8.122C25.5237 7.894 26.0217 7.732 26.5617 7.636C27.1017 7.528 27.6897 7.474 28.3257 7.474H29.6757V6.79C29.6757 6.034 29.5197 5.494 29.2077 5.17C28.8957 4.834 28.3797 4.666 27.6597 4.666C26.3637 4.666 25.6437 5.23 25.4997 6.358H24.0057C24.1017 5.35 24.4917 4.612 25.1757 4.144C25.8717 3.664 26.7237 3.424 27.7317 3.424C30.0237 3.424 31.1697 4.546 31.1697 6.79V13H29.6757V11.812C28.9557 12.712 27.9777 13.162 26.7417 13.162ZM26.8857 11.974C27.7017 11.974 28.3677 11.776 28.8837 11.38C29.4117 10.972 29.6757 10.414 29.6757 9.706V8.536H28.3797C26.1957 8.536 25.1037 9.154 25.1037 10.39C25.1037 11.446 25.6977 11.974 26.8857 11.974ZM35.7964 9.364C35.6884 10.66 35.4604 11.608 35.1124 12.208C34.7644 12.796 34.2184 13.09 33.4744 13.09C33.3184 13.09 33.1564 13.078 32.9884 13.054L32.8444 13V11.578L32.9704 11.614C33.0904 11.638 33.2164 11.65 33.3484 11.65C33.5404 11.65 33.6964 11.596 33.8164 11.488C33.9484 11.368 34.0504 11.182 34.1224 10.93C34.2064 10.678 34.2664 10.444 34.3024 10.228C34.3384 10 34.3804 9.682 34.4284 9.274C34.4764 8.842 34.5484 7.618 34.6444 5.602L34.6984 3.586H40.9084V13H39.4144V4.846H36.0304C35.9224 7.438 35.8444 8.944 35.7964 9.364ZM43.928 13V3.586H45.422V10.84L50.228 3.586H51.722V13H50.228V5.746L45.422 13H43.928ZM61.1688 4.846H58.1268V13H56.6328V4.846H53.5908V3.586H61.1688V4.846ZM63.2288 13V3.586H64.7228V10.84L69.5288 3.586H71.0228V13H69.5288V5.746L64.7228 13H63.2288ZM75.3576 8.194V13H73.8636V3.586H75.3576V7.978L79.2636 3.586H81.0096L76.9776 8.014L81.3516 13H79.5336L75.3576 8.194ZM85.5229 13.162C84.5989 13.162 83.8429 12.934 83.2549 12.478C82.6789 12.01 82.3909 11.314 82.3909 10.39C82.3909 9.874 82.5169 9.424 82.7689 9.04C83.0329 8.644 83.3929 8.338 83.8489 8.122C84.3049 7.894 84.8029 7.732 85.3429 7.636C85.8829 7.528 86.4709 7.474 87.1069 7.474H88.4569V6.79C88.4569 6.034 88.3009 5.494 87.9889 5.17C87.6769 4.834 87.1609 4.666 86.4409 4.666C85.1449 4.666 84.4249 5.23 84.2809 6.358H82.7869C82.8829 5.35 83.2729 4.612 83.9569 4.144C84.6529 3.664 85.5049 3.424 86.5129 3.424C88.8049 3.424 89.9509 4.546 89.9509 6.79V13H88.4569V11.812C87.7369 12.712 86.7589 13.162 85.5229 13.162ZM85.6669 11.974C86.4829 11.974 87.1489 11.776 87.6649 11.38C88.1929 10.972 88.4569 10.414 88.4569 9.706V8.536H87.1609C84.9769 8.536 83.8849 9.154 83.8849 10.39C83.8849 11.446 84.4789 11.974 85.6669 11.974Z" fill="#575756"/>
</svg>
