<svg width="265" height="50" viewBox="0 0 265 50" fill="none" xmlns="http://www.w3.org/2000/svg">
<rect width="264.218" height="50" rx="25" fill="#3A85F4"/>
<path d="M54.6354 31H51.9899V20.3389H46.8659V31H44.2292V18.2031H54.6354V31ZM60.3125 26.4912V31H57.6757V18.2031H62.6679C63.6289 18.2031 64.4726 18.3789 65.1992 18.7305C65.9316 19.082 66.4941 19.583 66.8867 20.2334C67.2793 20.8779 67.4755 21.6133 67.4755 22.4395C67.4755 23.6934 67.0449 24.6836 66.1836 25.4102C65.3281 26.1309 64.1416 26.4912 62.624 26.4912H60.3125ZM60.3125 24.3555H62.6679C63.3652 24.3555 63.8955 24.1914 64.2587 23.8633C64.6279 23.5352 64.8125 23.0664 64.8125 22.457C64.8125 21.8301 64.6279 21.3232 64.2587 20.9365C63.8896 20.5498 63.3798 20.3506 62.7295 20.3389H60.3125V24.3555ZM77.6877 18.2031H80.3332V31H77.6877V22.501L72.5637 31H69.927V18.2031H72.5637V26.7197L77.6877 18.2031ZM93.3843 26.7373C93.2847 28.1143 92.7749 29.1982 91.855 29.9893C90.9409 30.7803 89.7339 31.1758 88.2339 31.1758C86.5933 31.1758 85.3013 30.625 84.3579 29.5234C83.4204 28.416 82.9517 26.8984 82.9517 24.9707V24.1885C82.9517 22.958 83.1685 21.874 83.6021 20.9365C84.0357 19.999 84.6538 19.2812 85.4566 18.7832C86.2652 18.2793 87.2027 18.0273 88.2691 18.0273C89.7456 18.0273 90.9351 18.4229 91.8374 19.2139C92.7398 20.0049 93.2612 21.1152 93.4019 22.5449H90.7652C90.7007 21.7188 90.4693 21.1211 90.0708 20.752C89.6782 20.377 89.0777 20.1895 88.2691 20.1895C87.3902 20.1895 86.731 20.5059 86.2915 21.1387C85.8579 21.7656 85.6353 22.7412 85.6236 24.0654V25.0322C85.6236 26.415 85.8316 27.4258 86.2476 28.0645C86.6695 28.7031 87.3316 29.0225 88.2339 29.0225C89.0484 29.0225 89.6548 28.8379 90.0532 28.4688C90.4575 28.0938 90.689 27.5166 90.7476 26.7373H93.3843ZM106.347 24.8916C106.347 26.1514 106.125 27.2559 105.679 28.2051C105.234 29.1543 104.596 29.8867 103.763 30.4023C102.937 30.918 101.988 31.1758 100.916 31.1758C99.8553 31.1758 98.909 30.9209 98.077 30.4111C97.2449 29.9014 96.6004 29.1748 96.1434 28.2314C95.6863 27.2822 95.4549 26.1924 95.449 24.9619V24.3291C95.449 23.0693 95.6746 21.9619 96.1258 21.0068C96.5828 20.0459 97.2244 19.3105 98.0506 18.8008C98.8826 18.2852 99.8318 18.0273 100.898 18.0273C101.965 18.0273 102.911 18.2852 103.737 18.8008C104.569 19.3105 105.211 20.0459 105.662 21.0068C106.119 21.9619 106.347 23.0664 106.347 24.3203V24.8916ZM103.676 24.3115C103.676 22.9697 103.435 21.9502 102.955 21.2529C102.474 20.5557 101.789 20.207 100.898 20.207C100.013 20.207 99.3309 20.5527 98.8504 21.2441C98.3699 21.9297 98.1268 22.9375 98.1209 24.2676V24.8916C98.1209 26.1982 98.3611 27.2119 98.8416 27.9326C99.3221 28.6533 100.013 29.0137 100.916 29.0137C101.801 29.0137 102.48 28.668 102.955 27.9766C103.429 27.2793 103.67 26.2656 103.676 24.9355V24.3115ZM116.683 25.4541H111.62V28.8818H117.562V31H108.983V18.2031H117.544V20.3389H111.62V23.3887H116.683V25.4541ZM131.694 34.1465H129.259V31H121.542V34.1377H119.046L118.906 28.8818H119.872C120.394 28.4482 120.795 27.8125 121.077 26.9746C121.364 26.1309 121.557 25.0879 121.657 23.8457L122.026 18.2031H130.411V28.8818H131.905L131.694 34.1465ZM122.896 28.8818H127.774V20.3389H124.531L124.311 23.7051C124.135 25.9609 123.663 27.6865 122.896 28.8818ZM141.686 18.2031H144.332V31H141.686V22.501L136.562 31H133.925V18.2031H136.562V26.7197L141.686 18.2031ZM157.752 31H155.115V25.5156H149.974V31H147.337V18.2031H149.974V23.3887H155.115V18.2031H157.752V31ZM168.456 18.2031H171.102V31H168.456V22.501L163.332 31H160.696V18.2031H163.332V26.7197L168.456 18.2031ZM183.476 20.3389H179.556V31H176.919V20.3389H173.052V18.2031H183.476V20.3389ZM188.485 22.8174H190.542C192.048 22.8174 193.24 23.1836 194.119 23.916C195.004 24.6426 195.446 25.624 195.446 26.8604C195.446 28.1025 195.007 29.1016 194.128 29.8574C193.255 30.6074 192.092 30.9883 190.638 31H185.831V18.2031H188.485V22.8174ZM188.485 24.9443V28.8818H190.586C191.26 28.8818 191.796 28.6973 192.194 28.3281C192.598 27.959 192.801 27.4639 192.801 26.8428C192.801 26.2627 192.607 25.8057 192.22 25.4717C191.84 25.1318 191.315 24.9561 190.647 24.9443H188.485ZM207.882 26.7373C207.782 28.1143 207.272 29.1982 206.353 29.9893C205.439 30.7803 204.231 31.1758 202.731 31.1758C201.091 31.1758 199.799 30.625 198.855 29.5234C197.918 28.416 197.449 26.8984 197.449 24.9707V24.1885C197.449 22.958 197.666 21.874 198.1 20.9365C198.533 19.999 199.151 19.2812 199.954 18.7832C200.763 18.2793 201.7 18.0273 202.767 18.0273C204.243 18.0273 205.433 18.4229 206.335 19.2139C207.237 20.0049 207.759 21.1152 207.899 22.5449H205.263C205.198 21.7188 204.967 21.1211 204.568 20.752C204.176 20.377 203.575 20.1895 202.767 20.1895C201.888 20.1895 201.229 20.5059 200.789 21.1387C200.355 21.7656 200.133 22.7412 200.121 24.0654V25.0322C200.121 26.415 200.329 27.4258 200.745 28.0645C201.167 28.7031 201.829 29.0225 202.731 29.0225C203.546 29.0225 204.152 28.8379 204.551 28.4688C204.955 28.0938 205.187 27.5166 205.245 26.7373H207.882ZM216.248 31V26.3857H214.104L211.792 31H208.945L211.678 25.542C210.36 24.8154 209.701 23.6875 209.701 22.1582C209.701 20.9043 210.111 19.9346 210.931 19.249C211.751 18.5635 212.897 18.2148 214.367 18.2031H218.894V31H216.248ZM212.337 22.3516C212.337 23.0664 212.51 23.585 212.856 23.9072C213.207 24.2295 213.732 24.3906 214.429 24.3906H216.248V20.3389H214.429C213.034 20.3389 212.337 21.0098 212.337 22.3516Z" fill="white"/>
</svg>
