<svg width="109" height="18" viewBox="0 0 109 18" fill="none" xmlns="http://www.w3.org/2000/svg">
<path d="M6.11 15.162C4.25 15.162 2.78 14.574 1.7 13.398C0.632 12.222 0.0980001 10.638 0.0980001 8.646V8.502C0.0980001 6.594 0.668 5.022 1.808 3.786C2.948 2.55 4.394 1.932 6.146 1.932C7.55 1.932 8.732 2.298 9.692 3.03C10.664 3.762 11.222 4.8 11.366 6.144H9.818C9.638 5.148 9.254 4.404 8.666 3.912C8.09 3.42 7.256 3.174 6.164 3.174C4.832 3.174 3.758 3.66 2.942 4.632C2.126 5.592 1.718 6.876 1.718 8.484V8.628C1.718 10.272 2.108 11.562 2.888 12.498C3.68 13.422 4.766 13.884 6.146 13.884C7.214 13.884 8.084 13.62 8.756 13.092C9.44 12.552 9.866 11.766 10.034 10.734H11.492C11.276 12.186 10.694 13.29 9.746 14.046C8.798 14.79 7.586 15.162 6.11 15.162ZM17.6924 13.92C18.6284 13.92 19.3724 13.596 19.9244 12.948C20.4884 12.3 20.7704 11.442 20.7704 10.374V10.248C20.7704 9.156 20.4884 8.286 19.9244 7.638C19.3724 6.99 18.6284 6.666 17.6924 6.666C16.7444 6.666 15.9944 6.99 15.4424 7.638C14.8904 8.286 14.6144 9.15 14.6144 10.23V10.374C14.6144 11.466 14.8844 12.33 15.4244 12.966C15.9764 13.602 16.7324 13.92 17.6924 13.92ZM17.6744 15.162C16.3424 15.162 15.2384 14.712 14.3624 13.812C13.4984 12.9 13.0664 11.754 13.0664 10.374V10.23C13.0664 8.826 13.4984 7.674 14.3624 6.774C15.2384 5.874 16.3484 5.424 17.6924 5.424C19.0364 5.424 20.1404 5.874 21.0044 6.774C21.8804 7.662 22.3184 8.808 22.3184 10.212V10.356C22.3184 11.772 21.8804 12.93 21.0044 13.83C20.1284 14.718 19.0184 15.162 17.6744 15.162ZM28.5557 13.92C29.4917 13.92 30.2357 13.596 30.7877 12.948C31.3517 12.3 31.6337 11.442 31.6337 10.374V10.248C31.6337 9.156 31.3517 8.286 30.7877 7.638C30.2357 6.99 29.4917 6.666 28.5557 6.666C27.6077 6.666 26.8577 6.99 26.3057 7.638C25.7537 8.286 25.4777 9.15 25.4777 10.23V10.374C25.4777 11.466 25.7477 12.33 26.2877 12.966C26.8397 13.602 27.5957 13.92 28.5557 13.92ZM28.5377 15.162C27.2057 15.162 26.1017 14.712 25.2257 13.812C24.3617 12.9 23.9297 11.754 23.9297 10.374V10.23C23.9297 8.826 24.3617 7.674 25.2257 6.774C26.1017 5.874 27.2117 5.424 28.5557 5.424C29.8997 5.424 31.0037 5.874 31.8677 6.774C32.7437 7.662 33.1817 8.808 33.1817 10.212V10.356C33.1817 11.772 32.7437 12.93 31.8677 13.83C30.9917 14.718 29.8817 15.162 28.5377 15.162ZM39.437 15.162C38.021 15.162 36.899 14.706 36.071 13.794C35.243 12.882 34.829 11.496 34.829 9.636V9.06C34.829 8.172 34.865 7.386 34.937 6.702C35.009 6.006 35.159 5.31 35.387 4.614C35.615 3.906 35.915 3.318 36.287 2.85C36.659 2.382 37.163 1.992 37.799 1.68C38.447 1.368 39.209 1.188 40.085 1.14L40.445 1.122C41.765 1.05 42.659 0.918 43.127 0.725999L43.325 1.986C42.713 2.25 41.759 2.412 40.463 2.472L40.193 2.49C38.741 2.562 37.703 3.036 37.079 3.912C36.467 4.776 36.107 6.12 35.999 7.944H36.071C36.395 7.284 36.875 6.762 37.511 6.378C38.159 5.982 38.909 5.784 39.761 5.784C41.069 5.784 42.113 6.21 42.893 7.062C43.685 7.902 44.081 8.994 44.081 10.338V10.41C44.081 11.862 43.643 13.02 42.767 13.884C41.903 14.736 40.793 15.162 39.437 15.162ZM37.187 13.002C37.739 13.614 38.495 13.92 39.455 13.92C40.415 13.92 41.165 13.62 41.705 13.02C42.257 12.408 42.533 11.544 42.533 10.428V10.392C42.533 9.348 42.281 8.526 41.777 7.926C41.285 7.326 40.565 7.026 39.617 7.026C38.621 7.026 37.829 7.338 37.241 7.962C36.665 8.586 36.377 9.438 36.377 10.518V10.554C36.377 11.574 36.647 12.39 37.187 13.002ZM58.2165 17.286L58.1085 15H46.4085V5.586H47.9025V13.74H51.4485V5.586H52.9425V13.74H56.4885V5.586H57.9825V13.74H59.4225V17.286H58.2165ZM65.1693 15.162C63.8253 15.162 62.7273 14.724 61.8753 13.848C61.0353 12.972 60.6153 11.82 60.6153 10.392V10.248C60.6153 8.832 61.0233 7.674 61.8393 6.774C62.6673 5.874 63.7293 5.424 65.0253 5.424C66.2253 5.424 67.2273 5.814 68.0313 6.594C68.8473 7.362 69.2553 8.532 69.2553 10.104V10.59H62.1633C62.2353 12.81 63.2433 13.92 65.1873 13.92C66.6633 13.92 67.4973 13.374 67.6893 12.282H69.1833C69.0153 13.218 68.5773 13.932 67.8693 14.424C67.1613 14.916 66.2613 15.162 65.1693 15.162ZM67.7253 9.384C67.5933 7.572 66.6933 6.666 65.0253 6.666C64.2693 6.666 63.6453 6.906 63.1533 7.386C62.6613 7.866 62.3493 8.532 62.2173 9.384H67.7253ZM75.4537 15.162C74.1097 15.162 73.0057 14.73 72.1417 13.866C71.2777 12.99 70.8457 11.832 70.8457 10.392V10.248C70.8457 8.832 71.2837 7.674 72.1597 6.774C73.0477 5.874 74.1337 5.424 75.4177 5.424C76.4977 5.424 77.4157 5.694 78.1717 6.234C78.9277 6.762 79.3717 7.59 79.5037 8.718H78.0277C77.8117 7.35 76.9417 6.666 75.4177 6.666C74.5417 6.666 73.8157 6.996 73.2397 7.656C72.6757 8.304 72.3937 9.168 72.3937 10.248V10.392C72.3937 11.52 72.6697 12.39 73.2217 13.002C73.7857 13.614 74.5357 13.92 75.4717 13.92C76.1797 13.92 76.7857 13.722 77.2897 13.326C77.8057 12.918 78.0997 12.348 78.1717 11.616H79.5577C79.4617 12.648 79.0297 13.5 78.2617 14.172C77.5057 14.832 76.5697 15.162 75.4537 15.162ZM88.3114 6.846H85.2694V15H83.7754V6.846H80.7334V5.586H88.3114V6.846ZM90.3714 5.586H93.6654C95.8734 5.586 96.9774 6.384 96.9774 7.98V8.034C96.9774 8.49 96.8514 8.91 96.5994 9.294C96.3474 9.666 95.9694 9.918 95.4654 10.05C96.7734 10.338 97.4274 11.046 97.4274 12.174V12.228C97.4274 13.14 97.1274 13.83 96.5274 14.298C95.9394 14.766 95.1174 15 94.0614 15H90.3714V5.586ZM91.8654 6.774V9.564H93.6654C94.2894 9.564 94.7334 9.45 94.9974 9.222C95.2734 8.994 95.4114 8.622 95.4114 8.106V8.052C95.4114 7.572 95.2674 7.242 94.9794 7.062C94.7034 6.87 94.2594 6.774 93.6474 6.774H91.8654ZM91.8654 10.752V13.812H93.9174C94.5774 13.812 95.0634 13.698 95.3754 13.47C95.6994 13.23 95.8614 12.846 95.8614 12.318V12.264C95.8614 11.736 95.6994 11.352 95.3754 11.112C95.0634 10.872 94.5774 10.752 93.9174 10.752H91.8654ZM103.843 13.92C104.779 13.92 105.523 13.596 106.075 12.948C106.639 12.3 106.921 11.442 106.921 10.374V10.248C106.921 9.156 106.639 8.286 106.075 7.638C105.523 6.99 104.779 6.666 103.843 6.666C102.895 6.666 102.145 6.99 101.593 7.638C101.041 8.286 100.765 9.15 100.765 10.23V10.374C100.765 11.466 101.035 12.33 101.575 12.966C102.127 13.602 102.883 13.92 103.843 13.92ZM103.825 15.162C102.493 15.162 101.389 14.712 100.513 13.812C99.6488 12.9 99.2168 11.754 99.2168 10.374V10.23C99.2168 8.826 99.6488 7.674 100.513 6.774C101.389 5.874 102.499 5.424 103.843 5.424C105.187 5.424 106.291 5.874 107.155 6.774C108.031 7.662 108.469 8.808 108.469 10.212V10.356C108.469 11.772 108.031 12.93 107.155 13.83C106.279 14.718 105.169 15.162 103.825 15.162Z" fill="#575756"/>
</svg>
