<svg width="3840" height="112" viewBox="0 0 3840 112" fill="none" xmlns="http://www.w3.org/2000/svg">
<rect width="3840" height="112" fill="#262628"/>
<path d="M601.602 55.0312H596.836L595.766 58H594.219L598.562 46.625H599.875L604.227 58H602.688L601.602 55.0312ZM597.289 53.7969H601.156L599.219 48.4766L597.289 53.7969ZM610.656 57.1641C610.094 57.8255 609.268 58.1562 608.18 58.1562C607.279 58.1562 606.591 57.8958 606.117 57.375C605.648 56.849 605.411 56.0729 605.406 55.0469V49.5469H606.852V55.0078C606.852 56.2891 607.372 56.9297 608.414 56.9297C609.518 56.9297 610.253 56.5182 610.617 55.6953V49.5469H612.062V58H610.688L610.656 57.1641ZM616.227 47.5V49.5469H617.805V50.6641H616.227V55.9062C616.227 56.2448 616.297 56.5 616.438 56.6719C616.578 56.8385 616.818 56.9219 617.156 56.9219C617.323 56.9219 617.552 56.8906 617.844 56.8281V58C617.464 58.1042 617.094 58.1562 616.734 58.1562C616.089 58.1562 615.602 57.9609 615.273 57.5703C614.945 57.1797 614.781 56.625 614.781 55.9062V50.6641H613.242V49.5469H614.781V47.5H616.227ZM620.945 50.5703C621.586 49.7839 622.419 49.3906 623.445 49.3906C625.232 49.3906 626.133 50.3984 626.148 52.4141V58H624.703V52.4062C624.698 51.7969 624.557 51.3464 624.281 51.0547C624.01 50.763 623.586 50.6172 623.008 50.6172C622.539 50.6172 622.128 50.7422 621.773 50.9922C621.419 51.2422 621.143 51.5703 620.945 51.9766V58H619.5V46H620.945V50.5703ZM627.93 53.6953C627.93 52.8672 628.091 52.1224 628.414 51.4609C628.742 50.7995 629.195 50.2891 629.773 49.9297C630.357 49.5703 631.021 49.3906 631.766 49.3906C632.917 49.3906 633.846 49.7891 634.555 50.5859C635.268 51.3828 635.625 52.4427 635.625 53.7656V53.8672C635.625 54.6901 635.466 55.4297 635.148 56.0859C634.836 56.737 634.385 57.2448 633.797 57.6094C633.214 57.974 632.542 58.1562 631.781 58.1562C630.635 58.1562 629.706 57.7578 628.992 56.9609C628.284 56.1641 627.93 55.1094 627.93 53.7969V53.6953ZM629.383 53.8672C629.383 54.8047 629.599 55.5573 630.031 56.125C630.469 56.6927 631.052 56.9766 631.781 56.9766C632.516 56.9766 633.099 56.6901 633.531 56.1172C633.964 55.5391 634.18 54.7318 634.18 53.6953C634.18 52.7682 633.958 52.0182 633.516 51.4453C633.078 50.8672 632.495 50.5781 631.766 50.5781C631.052 50.5781 630.477 50.862 630.039 51.4297C629.602 51.9974 629.383 52.8099 629.383 53.8672ZM641.523 50.8438C641.305 50.8073 641.068 50.7891 640.812 50.7891C639.865 50.7891 639.221 51.1927 638.883 52V58H637.438V49.5469H638.844L638.867 50.5234C639.341 49.7682 640.013 49.3906 640.883 49.3906C641.164 49.3906 641.378 49.4271 641.523 49.5V50.8438ZM645.211 47.5V49.5469H646.789V50.6641H645.211V55.9062C645.211 56.2448 645.281 56.5 645.422 56.6719C645.562 56.8385 645.802 56.9219 646.141 56.9219C646.307 56.9219 646.536 56.8906 646.828 56.8281V58C646.448 58.1042 646.078 58.1562 645.719 58.1562C645.073 58.1562 644.586 57.9609 644.258 57.5703C643.93 57.1797 643.766 56.625 643.766 55.9062V50.6641H642.227V49.5469H643.766V47.5H645.211ZM650.055 58H648.609V49.5469H650.055V58ZM648.492 47.3047C648.492 47.0703 648.562 46.8724 648.703 46.7109C648.849 46.5495 649.062 46.4688 649.344 46.4688C649.625 46.4688 649.839 46.5495 649.984 46.7109C650.13 46.8724 650.203 47.0703 650.203 47.3047C650.203 47.5391 650.13 47.7344 649.984 47.8906C649.839 48.0469 649.625 48.125 649.344 48.125C649.062 48.125 648.849 48.0469 648.703 47.8906C648.562 47.7344 648.492 47.5391 648.492 47.3047ZM655.883 58.1562C654.737 58.1562 653.805 57.7812 653.086 57.0312C652.367 56.276 652.008 55.2682 652.008 54.0078V53.7422C652.008 52.9036 652.167 52.1562 652.484 51.5C652.807 50.8385 653.255 50.3229 653.828 49.9531C654.406 49.5781 655.031 49.3906 655.703 49.3906C656.802 49.3906 657.656 49.7526 658.266 50.4766C658.875 51.2005 659.18 52.237 659.18 53.5859V54.1875H653.453C653.474 55.0208 653.716 55.6953 654.18 56.2109C654.648 56.7214 655.242 56.9766 655.961 56.9766C656.471 56.9766 656.904 56.8724 657.258 56.6641C657.612 56.4557 657.922 56.1797 658.188 55.8359L659.07 56.5234C658.362 57.612 657.299 58.1562 655.883 58.1562ZM655.703 50.5781C655.12 50.5781 654.63 50.7917 654.234 51.2188C653.839 51.6406 653.594 52.2344 653.5 53H657.734V52.8906C657.693 52.1562 657.495 51.5885 657.141 51.1875C656.786 50.7812 656.307 50.5781 655.703 50.5781Z" fill="white"/>
<path d="M602.742 72.3359C602.742 73.1328 602.516 73.7422 602.062 74.1641C601.615 74.5807 600.979 74.7891 600.156 74.7891C599.339 74.7891 598.682 74.5156 598.188 73.9688C597.698 73.4167 597.453 72.6667 597.453 71.7188V70.8594C597.453 69.9427 597.701 69.2109 598.195 68.6641C598.695 68.112 599.349 67.8359 600.156 67.8359C600.99 67.8359 601.63 68.0495 602.078 68.4766C602.526 68.9036 602.75 69.5052 602.75 70.2812H601.609C601.609 69.7656 601.484 69.3984 601.234 69.1797C600.99 68.9557 600.63 68.8438 600.156 68.8438C599.667 68.8438 599.281 69.0234 599 69.3828C598.719 69.7422 598.578 70.2422 598.578 70.8828V71.7656C598.578 72.3906 598.719 72.8828 599 73.2422C599.281 73.6016 599.667 73.7812 600.156 73.7812C600.635 73.7812 600.995 73.6719 601.234 73.4531C601.479 73.2344 601.602 72.862 601.602 72.3359H602.742ZM595.609 71.3047C595.609 72.2005 595.818 73.0312 596.234 73.7969C596.651 74.5573 597.216 75.1536 597.93 75.5859C598.648 76.0182 599.424 76.2344 600.258 76.2344C601.091 76.2344 601.865 76.0182 602.578 75.5859C603.292 75.1536 603.857 74.5573 604.273 73.7969C604.69 73.0312 604.898 72.2005 604.898 71.3047C604.898 70.4193 604.693 69.599 604.281 68.8438C603.87 68.0885 603.305 67.4948 602.586 67.0625C601.872 66.625 601.096 66.4062 600.258 66.4062C599.424 66.4062 598.648 66.6224 597.93 67.0547C597.211 67.4818 596.643 68.0755 596.227 68.8359C595.815 69.5964 595.609 70.4193 595.609 71.3047ZM594.711 71.3047C594.711 70.2526 594.953 69.276 595.438 68.375C595.927 67.474 596.602 66.7656 597.461 66.25C598.326 65.7292 599.258 65.4688 600.258 65.4688C601.258 65.4688 602.188 65.7292 603.047 66.25C603.906 66.7656 604.578 67.474 605.062 68.375C605.552 69.276 605.797 70.2526 605.797 71.3047C605.797 72.3307 605.562 73.2917 605.094 74.1875C604.625 75.0833 603.958 75.8047 603.094 76.3516C602.234 76.8932 601.289 77.1641 600.258 77.1641C599.232 77.1641 598.286 76.8958 597.422 76.3594C596.562 75.8177 595.896 75.099 595.422 74.2031C594.948 73.3073 594.711 72.3411 594.711 71.3047ZM611.867 77V65.625H615.586C616.82 65.625 617.747 65.8802 618.367 66.3906C618.992 66.901 619.305 67.6562 619.305 68.6562C619.305 69.1875 619.154 69.6589 618.852 70.0703C618.549 70.4766 618.138 70.7917 617.617 71.0156C618.232 71.1875 618.716 71.5156 619.07 72C619.43 72.4792 619.609 73.0521 619.609 73.7188C619.609 74.7396 619.279 75.5417 618.617 76.125C617.956 76.7083 617.021 77 615.812 77H611.867ZM613.367 71.6797V75.7734H615.844C616.542 75.7734 617.091 75.5938 617.492 75.2344C617.898 74.8698 618.102 74.3698 618.102 73.7344C618.102 72.3646 617.357 71.6797 615.867 71.6797H613.367ZM613.367 70.4766H615.633C616.289 70.4766 616.812 70.3125 617.203 69.9844C617.599 69.6562 617.797 69.2109 617.797 68.6484C617.797 68.0234 617.615 67.5703 617.25 67.2891C616.885 67.0026 616.331 66.8594 615.586 66.8594H613.367V70.4766ZM625 75.9766C625.516 75.9766 625.966 75.8203 626.352 75.5078C626.737 75.1953 626.951 74.8047 626.992 74.3359H628.359C628.333 74.8203 628.167 75.2812 627.859 75.7188C627.552 76.1562 627.141 76.5052 626.625 76.7656C626.115 77.026 625.573 77.1562 625 77.1562C623.849 77.1562 622.932 76.7734 622.25 76.0078C621.573 75.237 621.234 74.1849 621.234 72.8516V72.6094C621.234 71.7865 621.385 71.0547 621.688 70.4141C621.99 69.7734 622.422 69.276 622.984 68.9219C623.552 68.5677 624.221 68.3906 624.992 68.3906C625.94 68.3906 626.727 68.6745 627.352 69.2422C627.982 69.8099 628.318 70.5469 628.359 71.4531H626.992C626.951 70.9062 626.742 70.4583 626.367 70.1094C625.997 69.7552 625.539 69.5781 624.992 69.5781C624.258 69.5781 623.688 69.8438 623.281 70.375C622.88 70.901 622.68 71.6641 622.68 72.6641V72.9375C622.68 73.9115 622.88 74.6615 623.281 75.1875C623.682 75.7135 624.255 75.9766 625 75.9766ZM633.492 77.1562C632.346 77.1562 631.414 76.7812 630.695 76.0312C629.977 75.276 629.617 74.2682 629.617 73.0078V72.7422C629.617 71.9036 629.776 71.1562 630.094 70.5C630.417 69.8385 630.865 69.3229 631.438 68.9531C632.016 68.5781 632.641 68.3906 633.312 68.3906C634.411 68.3906 635.266 68.7526 635.875 69.4766C636.484 70.2005 636.789 71.237 636.789 72.5859V73.1875H631.062C631.083 74.0208 631.326 74.6953 631.789 75.2109C632.258 75.7214 632.852 75.9766 633.57 75.9766C634.081 75.9766 634.513 75.8724 634.867 75.6641C635.221 75.4557 635.531 75.1797 635.797 74.8359L636.68 75.5234C635.971 76.612 634.909 77.1562 633.492 77.1562ZM633.312 69.5781C632.729 69.5781 632.24 69.7917 631.844 70.2188C631.448 70.6406 631.203 71.2344 631.109 72H635.344V71.8906C635.302 71.1562 635.104 70.5885 634.75 70.1875C634.396 69.7812 633.917 69.5781 633.312 69.5781ZM649.352 77H647.906V69.7422H644.016V77H642.562V68.5469H649.352V77ZM658.812 72.8672C658.812 74.1536 658.518 75.1901 657.93 75.9766C657.341 76.763 656.544 77.1562 655.539 77.1562C654.513 77.1562 653.706 76.8307 653.117 76.1797V80.25H651.672V68.5469H652.992L653.062 69.4844C653.651 68.7552 654.469 68.3906 655.516 68.3906C656.531 68.3906 657.333 68.7734 657.922 69.5391C658.516 70.3047 658.812 71.3698 658.812 72.7344V72.8672ZM657.367 72.7031C657.367 71.75 657.164 70.9974 656.758 70.4453C656.352 69.8932 655.794 69.6172 655.086 69.6172C654.211 69.6172 653.555 70.0052 653.117 70.7812V74.8203C653.549 75.5911 654.211 75.9766 655.102 75.9766C655.794 75.9766 656.344 75.7031 656.75 75.1562C657.161 74.6042 657.367 73.7865 657.367 72.7031ZM665.875 77C665.792 76.8333 665.724 76.5365 665.672 76.1094C665 76.8073 664.198 77.1562 663.266 77.1562C662.432 77.1562 661.747 76.9219 661.211 76.4531C660.68 75.9792 660.414 75.3802 660.414 74.6562C660.414 73.776 660.747 73.0938 661.414 72.6094C662.086 72.1198 663.029 71.875 664.242 71.875H665.648V71.2109C665.648 70.7057 665.497 70.3047 665.195 70.0078C664.893 69.7057 664.448 69.5547 663.859 69.5547C663.344 69.5547 662.911 69.6849 662.562 69.9453C662.214 70.2057 662.039 70.5208 662.039 70.8906H660.586C660.586 70.4688 660.734 70.0625 661.031 69.6719C661.333 69.276 661.74 68.9635 662.25 68.7344C662.766 68.5052 663.331 68.3906 663.945 68.3906C664.919 68.3906 665.682 68.6354 666.234 69.125C666.786 69.6094 667.073 70.2786 667.094 71.1328V75.0234C667.094 75.7995 667.193 76.4167 667.391 76.875V77H665.875ZM663.477 75.8984C663.93 75.8984 664.359 75.7812 664.766 75.5469C665.172 75.3125 665.466 75.0078 665.648 74.6328V72.8984H664.516C662.745 72.8984 661.859 73.4167 661.859 74.4531C661.859 74.9062 662.01 75.2604 662.312 75.5156C662.615 75.7708 663.003 75.8984 663.477 75.8984ZM669.492 77V68.5469H672.789C673.914 68.5469 674.776 68.7448 675.375 69.1406C675.979 69.5312 676.281 70.1068 676.281 70.8672C676.281 71.2578 676.164 71.612 675.93 71.9297C675.695 72.2422 675.349 72.4818 674.891 72.6484C675.401 72.7682 675.81 73.0026 676.117 73.3516C676.43 73.7005 676.586 74.1172 676.586 74.6016C676.586 75.3776 676.299 75.9714 675.727 76.3828C675.159 76.7943 674.354 77 673.312 77H669.492ZM670.938 73.2891V75.8359H673.328C673.932 75.8359 674.383 75.724 674.68 75.5C674.982 75.276 675.133 74.9609 675.133 74.5547C675.133 73.7109 674.513 73.2891 673.273 73.2891H670.938ZM670.938 72.1328H672.805C674.159 72.1328 674.836 71.737 674.836 70.9453C674.836 70.1536 674.195 69.7448 672.914 69.7188H670.938V72.1328ZM683.719 77C683.635 76.8333 683.568 76.5365 683.516 76.1094C682.844 76.8073 682.042 77.1562 681.109 77.1562C680.276 77.1562 679.591 76.9219 679.055 76.4531C678.523 75.9792 678.258 75.3802 678.258 74.6562C678.258 73.776 678.591 73.0938 679.258 72.6094C679.93 72.1198 680.872 71.875 682.086 71.875H683.492V71.2109C683.492 70.7057 683.341 70.3047 683.039 70.0078C682.737 69.7057 682.292 69.5547 681.703 69.5547C681.188 69.5547 680.755 69.6849 680.406 69.9453C680.057 70.2057 679.883 70.5208 679.883 70.8906H678.43C678.43 70.4688 678.578 70.0625 678.875 69.6719C679.177 69.276 679.583 68.9635 680.094 68.7344C680.609 68.5052 681.174 68.3906 681.789 68.3906C682.763 68.3906 683.526 68.6354 684.078 69.125C684.63 69.6094 684.917 70.2786 684.938 71.1328V75.0234C684.938 75.7995 685.036 76.4167 685.234 76.875V77H683.719ZM681.32 75.8984C681.773 75.8984 682.203 75.7812 682.609 75.5469C683.016 75.3125 683.31 75.0078 683.492 74.6328V72.8984H682.359C680.589 72.8984 679.703 73.4167 679.703 74.4531C679.703 74.9062 679.854 75.2604 680.156 75.5156C680.458 75.7708 680.846 75.8984 681.32 75.8984ZM695.82 70.8594C695.82 70.4635 695.669 70.151 695.367 69.9219C695.065 69.6875 694.651 69.5703 694.125 69.5703C693.615 69.5703 693.188 69.7031 692.844 69.9688C692.505 70.2344 692.336 70.5469 692.336 70.9062H690.898C690.898 70.1719 691.206 69.5703 691.82 69.1016C692.435 68.6328 693.203 68.3984 694.125 68.3984C695.115 68.3984 695.885 68.612 696.438 69.0391C696.99 69.4609 697.266 70.0651 697.266 70.8516C697.266 71.2318 697.151 71.5807 696.922 71.8984C696.693 72.2161 696.367 72.4688 695.945 72.6562C696.93 72.9896 697.422 73.6458 697.422 74.625C697.422 75.401 697.122 76.0156 696.523 76.4688C695.924 76.9219 695.125 77.1484 694.125 77.1484C693.151 77.1484 692.346 76.9115 691.711 76.4375C691.081 75.9583 690.766 75.3125 690.766 74.5H692.203C692.203 74.9115 692.385 75.2656 692.75 75.5625C693.12 75.8542 693.578 76 694.125 76C694.677 76 695.122 75.8724 695.461 75.6172C695.799 75.362 695.969 75.0312 695.969 74.625C695.969 74.151 695.826 73.8125 695.539 73.6094C695.258 73.401 694.818 73.2969 694.219 73.2969H692.773V72.0781H694.344C695.328 72.0521 695.82 71.6458 695.82 70.8594ZM704.516 77C704.432 76.8333 704.365 76.5365 704.312 76.1094C703.641 76.8073 702.839 77.1562 701.906 77.1562C701.073 77.1562 700.388 76.9219 699.852 76.4531C699.32 75.9792 699.055 75.3802 699.055 74.6562C699.055 73.776 699.388 73.0938 700.055 72.6094C700.727 72.1198 701.669 71.875 702.883 71.875H704.289V71.2109C704.289 70.7057 704.138 70.3047 703.836 70.0078C703.534 69.7057 703.089 69.5547 702.5 69.5547C701.984 69.5547 701.552 69.6849 701.203 69.9453C700.854 70.2057 700.68 70.5208 700.68 70.8906H699.227C699.227 70.4688 699.375 70.0625 699.672 69.6719C699.974 69.276 700.38 68.9635 700.891 68.7344C701.406 68.5052 701.971 68.3906 702.586 68.3906C703.56 68.3906 704.323 68.6354 704.875 69.125C705.427 69.6094 705.714 70.2786 705.734 71.1328V75.0234C705.734 75.7995 705.833 76.4167 706.031 76.875V77H704.516ZM702.117 75.8984C702.57 75.8984 703 75.7812 703.406 75.5469C703.812 75.3125 704.107 75.0078 704.289 74.6328V72.8984H703.156C701.385 72.8984 700.5 73.4167 700.5 74.4531C700.5 74.9062 700.651 75.2604 700.953 75.5156C701.255 75.7708 701.643 75.8984 702.117 75.8984ZM709.492 68.5469V75.8203H712.586V68.5469H714.031V75.8203H717.117V68.5469H718.57V75.8203H719.758L719.617 79.5078H718.32V77H708.039V68.5469H709.492ZM726.703 68.5469H728.148V77H726.703V70.8359L722.805 77H721.359V68.5469H722.805V74.7188L726.703 68.5469ZM731.961 68.5469V75.8203H735.055V68.5469H736.5V75.8203H739.586V68.5469H741.039V75.8203H742.227L742.086 79.5078H740.789V77H730.508V68.5469H731.961ZM747.305 77.1562C746.159 77.1562 745.227 76.7812 744.508 76.0312C743.789 75.276 743.43 74.2682 743.43 73.0078V72.7422C743.43 71.9036 743.589 71.1562 743.906 70.5C744.229 69.8385 744.677 69.3229 745.25 68.9531C745.828 68.5781 746.453 68.3906 747.125 68.3906C748.224 68.3906 749.078 68.7526 749.688 69.4766C750.297 70.2005 750.602 71.237 750.602 72.5859V73.1875H744.875C744.896 74.0208 745.138 74.6953 745.602 75.2109C746.07 75.7214 746.664 75.9766 747.383 75.9766C747.893 75.9766 748.326 75.8724 748.68 75.6641C749.034 75.4557 749.344 75.1797 749.609 74.8359L750.492 75.5234C749.784 76.612 748.721 77.1562 747.305 77.1562ZM747.125 69.5781C746.542 69.5781 746.052 69.7917 745.656 70.2188C745.26 70.6406 745.016 71.2344 744.922 72H749.156V71.8906C749.115 71.1562 748.917 70.5885 748.562 70.1875C748.208 69.7812 747.729 69.5781 747.125 69.5781ZM759.188 77H757.742V73.3906H753.859V77H752.406V68.5469H753.859V72.2109H757.742V68.5469H759.188V77ZM763.094 71.4609H765.289C766.247 71.4714 767.005 71.7214 767.562 72.2109C768.12 72.7005 768.398 73.3646 768.398 74.2031C768.398 75.0469 768.112 75.724 767.539 76.2344C766.966 76.7448 766.195 77 765.227 77H761.648V68.5469H763.094V71.4609ZM771.414 77H769.961V68.5469H771.414V77ZM763.094 72.6406V75.8203H765.242C765.784 75.8203 766.203 75.6823 766.5 75.4062C766.797 75.125 766.945 74.7422 766.945 74.2578C766.945 73.7891 766.799 73.4062 766.508 73.1094C766.221 72.8073 765.818 72.651 765.297 72.6406H763.094Z" fill="#888888"/>
<path d="M884.477 58H882.969V47.8594H877.359V58H875.859V46.625H884.477V58ZM886.602 53.6953C886.602 52.8672 886.763 52.1224 887.086 51.4609C887.414 50.7995 887.867 50.2891 888.445 49.9297C889.029 49.5703 889.693 49.3906 890.438 49.3906C891.589 49.3906 892.518 49.7891 893.227 50.5859C893.94 51.3828 894.297 52.4427 894.297 53.7656V53.8672C894.297 54.6901 894.138 55.4297 893.82 56.0859C893.508 56.737 893.057 57.2448 892.469 57.6094C891.885 57.974 891.214 58.1562 890.453 58.1562C889.307 58.1562 888.378 57.7578 887.664 56.9609C886.956 56.1641 886.602 55.1094 886.602 53.7969V53.6953ZM888.055 53.8672C888.055 54.8047 888.271 55.5573 888.703 56.125C889.141 56.6927 889.724 56.9766 890.453 56.9766C891.188 56.9766 891.771 56.6901 892.203 56.1172C892.635 55.5391 892.852 54.7318 892.852 53.6953C892.852 52.7682 892.63 52.0182 892.188 51.4453C891.75 50.8672 891.167 50.5781 890.438 50.5781C889.724 50.5781 889.148 50.862 888.711 51.4297C888.273 51.9974 888.055 52.8099 888.055 53.8672ZM902.914 49.5469V58H901.461V50.7422H898.586L898.414 53.9062C898.32 55.3594 898.076 56.3984 897.68 57.0234C897.289 57.6484 896.667 57.974 895.812 58H895.234V56.7266L895.648 56.6953C896.117 56.6432 896.453 56.3724 896.656 55.8828C896.859 55.3932 896.99 54.487 897.047 53.1641L897.203 49.5469H902.914ZM910.703 49.5469H912.148V58H910.703V51.8359L906.805 58H905.359V49.5469H906.805V55.7188L910.703 49.5469ZM920.75 50.7188H917.914V58H916.469V50.7188H913.688V49.5469H920.75V50.7188ZM927.625 49.5469H929.07V58H927.625V51.8359L923.727 58H922.281V49.5469H923.727V55.7188L927.625 49.5469ZM934.023 54.3984H932.969V58H931.516V49.5469H932.969V53.125H933.914L936.758 49.5469H938.508L935.164 53.6094L938.789 58H936.953L934.023 54.3984ZM945.25 58C945.167 57.8333 945.099 57.5365 945.047 57.1094C944.375 57.8073 943.573 58.1562 942.641 58.1562C941.807 58.1562 941.122 57.9219 940.586 57.4531C940.055 56.9792 939.789 56.3802 939.789 55.6562C939.789 54.776 940.122 54.0938 940.789 53.6094C941.461 53.1198 942.404 52.875 943.617 52.875H945.023V52.2109C945.023 51.7057 944.872 51.3047 944.57 51.0078C944.268 50.7057 943.823 50.5547 943.234 50.5547C942.719 50.5547 942.286 50.6849 941.938 50.9453C941.589 51.2057 941.414 51.5208 941.414 51.8906H939.961C939.961 51.4688 940.109 51.0625 940.406 50.6719C940.708 50.276 941.115 49.9635 941.625 49.7344C942.141 49.5052 942.706 49.3906 943.32 49.3906C944.294 49.3906 945.057 49.6354 945.609 50.125C946.161 50.6094 946.448 51.2786 946.469 52.1328V56.0234C946.469 56.7995 946.568 57.4167 946.766 57.875V58H945.25ZM942.852 56.8984C943.305 56.8984 943.734 56.7812 944.141 56.5469C944.547 56.3125 944.841 56.0078 945.023 55.6328V53.8984H943.891C942.12 53.8984 941.234 54.4167 941.234 55.4531C941.234 55.9062 941.385 56.2604 941.688 56.5156C941.99 56.7708 942.378 56.8984 942.852 56.8984ZM955.336 54.3984H954.281V58H952.828V49.5469H954.281V53.125H955.227L958.07 49.5469H959.82L956.477 53.6094L960.102 58H958.266L955.336 54.3984ZM960.789 53.6953C960.789 52.8672 960.951 52.1224 961.273 51.4609C961.602 50.7995 962.055 50.2891 962.633 49.9297C963.216 49.5703 963.88 49.3906 964.625 49.3906C965.776 49.3906 966.706 49.7891 967.414 50.5859C968.128 51.3828 968.484 52.4427 968.484 53.7656V53.8672C968.484 54.6901 968.326 55.4297 968.008 56.0859C967.695 56.737 967.245 57.2448 966.656 57.6094C966.073 57.974 965.401 58.1562 964.641 58.1562C963.495 58.1562 962.565 57.7578 961.852 56.9609C961.143 56.1641 960.789 55.1094 960.789 53.7969V53.6953ZM962.242 53.8672C962.242 54.8047 962.458 55.5573 962.891 56.125C963.328 56.6927 963.911 56.9766 964.641 56.9766C965.375 56.9766 965.958 56.6901 966.391 56.1172C966.823 55.5391 967.039 54.7318 967.039 53.6953C967.039 52.7682 966.818 52.0182 966.375 51.4453C965.938 50.8672 965.354 50.5781 964.625 50.5781C963.911 50.5781 963.336 50.862 962.898 51.4297C962.461 51.9974 962.242 52.8099 962.242 53.8672ZM977.203 58H975.758V54.3906H971.875V58H970.422V49.5469H971.875V53.2109H975.758V49.5469H977.203V58ZM979.219 53.9297C979.219 52.5182 979.492 51.4089 980.039 50.6016C980.586 49.7943 981.336 49.3906 982.289 49.3906C982.732 49.3906 983.12 49.4661 983.453 49.6172V46H984.898V49.6641C985.263 49.4818 985.69 49.3906 986.18 49.3906C987.138 49.3906 987.891 49.7943 988.438 50.6016C988.984 51.4089 989.258 52.5729 989.258 54.0938C989.258 55.3385 988.984 56.3281 988.438 57.0625C987.896 57.7969 987.148 58.1641 986.195 58.1641C985.69 58.1641 985.258 58.0807 984.898 57.9141V61.25H983.453V57.9375C983.109 58.0885 982.716 58.1641 982.273 58.1641C981.326 58.1641 980.578 57.7969 980.031 57.0625C979.49 56.3281 979.219 55.3229 979.219 54.0469V53.9297ZM987.812 53.9297C987.812 52.8672 987.63 52.0443 987.266 51.4609C986.901 50.8724 986.398 50.5781 985.758 50.5781C985.43 50.5781 985.143 50.6302 984.898 50.7344V56.8516C985.133 56.9401 985.424 56.9844 985.773 56.9844C986.419 56.9844 986.919 56.7344 987.273 56.2344C987.633 55.7344 987.812 54.9661 987.812 53.9297ZM980.664 54.0938C980.664 55.0417 980.833 55.7604 981.172 56.25C981.51 56.7396 981.997 56.9844 982.633 56.9844C982.935 56.9844 983.208 56.9375 983.453 56.8438V50.7109C983.234 50.6224 982.966 50.5781 982.648 50.5781C982.013 50.5781 981.523 50.862 981.18 51.4297C980.836 51.9974 980.664 52.8854 980.664 54.0938ZM996.609 49.5469H998.055V58H996.609V51.8359L992.711 58H991.266V49.5469H992.711V55.7188L996.609 49.5469ZM1000.3 56.8203L1000.8 56.2031C1001.37 55.474 1001.69 54.3802 1001.77 52.9219L1001.9 49.5469H1007.34V56.8203H1008.43V60.4844H1006.98V58H1001.09V60.4844H999.641L999.648 56.8203H1000.3ZM1002.02 56.8203H1005.9V50.8828H1003.3L1003.21 52.8984C1003.12 54.5807 1002.72 55.888 1002.02 56.8203ZM1013.54 58.1562C1012.39 58.1562 1011.46 57.7812 1010.74 57.0312C1010.02 56.276 1009.66 55.2682 1009.66 54.0078V53.7422C1009.66 52.9036 1009.82 52.1562 1010.14 51.5C1010.46 50.8385 1010.91 50.3229 1011.48 49.9531C1012.06 49.5781 1012.69 49.3906 1013.36 49.3906C1014.46 49.3906 1015.31 49.7526 1015.92 50.4766C1016.53 51.2005 1016.84 52.237 1016.84 53.5859V54.1875H1011.11C1011.13 55.0208 1011.37 55.6953 1011.84 56.2109C1012.3 56.7214 1012.9 56.9766 1013.62 56.9766C1014.13 56.9766 1014.56 56.8724 1014.91 56.6641C1015.27 56.4557 1015.58 56.1797 1015.84 55.8359L1016.73 56.5234C1016.02 57.612 1014.96 58.1562 1013.54 58.1562ZM1013.36 50.5781C1012.78 50.5781 1012.29 50.7917 1011.89 51.2188C1011.49 51.6406 1011.25 52.2344 1011.16 53H1015.39V52.8906C1015.35 52.1562 1015.15 51.5885 1014.8 51.1875C1014.44 50.7812 1013.96 50.5781 1013.36 50.5781ZM1025.42 58H1023.98V54.3906H1020.09V58H1018.64V49.5469H1020.09V53.2109H1023.98V49.5469H1025.42V58ZM1027.88 49.5469H1029.33V56.8203H1033.22V49.5469H1034.66V56.8203H1035.67L1035.53 60.5078H1034.23V58H1027.88V49.5469ZM1042.7 49.5469H1044.15V58H1042.7V51.8359L1038.8 58H1037.36V49.5469H1038.8V55.7188L1042.7 49.5469ZM1051.69 58C1051.6 57.8333 1051.54 57.5365 1051.48 57.1094C1050.81 57.8073 1050.01 58.1562 1049.08 58.1562C1048.24 58.1562 1047.56 57.9219 1047.02 57.4531C1046.49 56.9792 1046.23 56.3802 1046.23 55.6562C1046.23 54.776 1046.56 54.0938 1047.23 53.6094C1047.9 53.1198 1048.84 52.875 1050.05 52.875H1051.46V52.2109C1051.46 51.7057 1051.31 51.3047 1051.01 51.0078C1050.71 50.7057 1050.26 50.5547 1049.67 50.5547C1049.16 50.5547 1048.72 50.6849 1048.38 50.9453C1048.03 51.2057 1047.85 51.5208 1047.85 51.8906H1046.4C1046.4 51.4688 1046.55 51.0625 1046.84 50.6719C1047.15 50.276 1047.55 49.9635 1048.06 49.7344C1048.58 49.5052 1049.14 49.3906 1049.76 49.3906C1050.73 49.3906 1051.49 49.6354 1052.05 50.125C1052.6 50.6094 1052.89 51.2786 1052.91 52.1328V56.0234C1052.91 56.7995 1053.01 57.4167 1053.2 57.875V58H1051.69ZM1049.29 56.8984C1049.74 56.8984 1050.17 56.7812 1050.58 56.5469C1050.98 56.3125 1051.28 56.0078 1051.46 55.6328V53.8984H1050.33C1048.56 53.8984 1047.67 54.4167 1047.67 55.4531C1047.67 55.9062 1047.82 56.2604 1048.12 56.5156C1048.43 56.7708 1048.82 56.8984 1049.29 56.8984ZM1062.1 49.5469V58H1060.65V50.7422H1057.77L1057.6 53.9062C1057.51 55.3594 1057.26 56.3984 1056.87 57.0234C1056.48 57.6484 1055.85 57.974 1055 58H1054.42V56.7266L1054.84 56.6953C1055.3 56.6432 1055.64 56.3724 1055.84 55.8828C1056.05 55.3932 1056.18 54.487 1056.23 53.1641L1056.39 49.5469H1062.1ZM1066 52.4609H1068.2C1069.15 52.4714 1069.91 52.7214 1070.47 53.2109C1071.03 53.7005 1071.3 54.3646 1071.3 55.2031C1071.3 56.0469 1071.02 56.724 1070.45 57.2344C1069.87 57.7448 1069.1 58 1068.13 58H1064.55V49.5469H1066V52.4609ZM1066 53.6406V56.8203H1068.15C1068.69 56.8203 1069.11 56.6823 1069.41 56.4062C1069.7 56.125 1069.85 55.7422 1069.85 55.2578C1069.85 54.7891 1069.71 54.4062 1069.41 54.1094C1069.13 53.8073 1068.72 53.651 1068.2 53.6406H1066ZM1080.02 58H1078.57V54.3906H1074.69V58H1073.23V49.5469H1074.69V53.2109H1078.57V49.5469H1080.02V58ZM1081.96 53.6953C1081.96 52.8672 1082.12 52.1224 1082.45 51.4609C1082.77 50.7995 1083.23 50.2891 1083.8 49.9297C1084.39 49.5703 1085.05 49.3906 1085.8 49.3906C1086.95 49.3906 1087.88 49.7891 1088.59 50.5859C1089.3 51.3828 1089.66 52.4427 1089.66 53.7656V53.8672C1089.66 54.6901 1089.5 55.4297 1089.18 56.0859C1088.87 56.737 1088.42 57.2448 1087.83 57.6094C1087.24 57.974 1086.57 58.1562 1085.81 58.1562C1084.67 58.1562 1083.74 57.7578 1083.02 56.9609C1082.32 56.1641 1081.96 55.1094 1081.96 53.7969V53.6953ZM1083.41 53.8672C1083.41 54.8047 1083.63 55.5573 1084.06 56.125C1084.5 56.6927 1085.08 56.9766 1085.81 56.9766C1086.55 56.9766 1087.13 56.6901 1087.56 56.1172C1087.99 55.5391 1088.21 54.7318 1088.21 53.6953C1088.21 52.7682 1087.99 52.0182 1087.55 51.4453C1087.11 50.8672 1086.53 50.5781 1085.8 50.5781C1085.08 50.5781 1084.51 50.862 1084.07 51.4297C1083.63 51.9974 1083.41 52.8099 1083.41 53.8672ZM1094.86 56.9766C1095.38 56.9766 1095.83 56.8203 1096.21 56.5078C1096.6 56.1953 1096.81 55.8047 1096.85 55.3359H1098.22C1098.19 55.8203 1098.03 56.2812 1097.72 56.7188C1097.41 57.1562 1097 57.5052 1096.48 57.7656C1095.97 58.026 1095.43 58.1562 1094.86 58.1562C1093.71 58.1562 1092.79 57.7734 1092.11 57.0078C1091.43 56.237 1091.09 55.1849 1091.09 53.8516V53.6094C1091.09 52.7865 1091.24 52.0547 1091.55 51.4141C1091.85 50.7734 1092.28 50.276 1092.84 49.9219C1093.41 49.5677 1094.08 49.3906 1094.85 49.3906C1095.8 49.3906 1096.59 49.6745 1097.21 50.2422C1097.84 50.8099 1098.18 51.5469 1098.22 52.4531H1096.85C1096.81 51.9062 1096.6 51.4583 1096.23 51.1094C1095.86 50.7552 1095.4 50.5781 1094.85 50.5781C1094.12 50.5781 1093.55 50.8438 1093.14 51.375C1092.74 51.901 1092.54 52.6641 1092.54 53.6641V53.9375C1092.54 54.9115 1092.74 55.6615 1093.14 56.1875C1093.54 56.7135 1094.11 56.9766 1094.86 56.9766ZM1106.12 50.7188H1103.29V58H1101.84V50.7188H1099.06V49.5469H1106.12V50.7188ZM1113 49.5469H1114.45V58H1113V51.8359L1109.1 58H1107.66V49.5469H1109.1V55.7188L1113 49.5469Z" fill="white"/>
<path d="M1209.05 55.0312H1204.28L1203.21 58H1201.66L1206.01 46.625H1207.32L1211.67 58H1210.13L1209.05 55.0312ZM1204.73 53.7969H1208.6L1206.66 48.4766L1204.73 53.7969ZM1219.88 58H1218.44V54.3906H1214.55V58H1213.1V49.5469H1214.55V53.2109H1218.44V49.5469H1219.88V58ZM1227.43 58C1227.35 57.8333 1227.28 57.5365 1227.23 57.1094C1226.55 57.8073 1225.75 58.1562 1224.82 58.1562C1223.99 58.1562 1223.3 57.9219 1222.77 57.4531C1222.23 56.9792 1221.97 56.3802 1221.97 55.6562C1221.97 54.776 1222.3 54.0938 1222.97 53.6094C1223.64 53.1198 1224.58 52.875 1225.8 52.875H1227.2V52.2109C1227.2 51.7057 1227.05 51.3047 1226.75 51.0078C1226.45 50.7057 1226 50.5547 1225.41 50.5547C1224.9 50.5547 1224.47 50.6849 1224.12 50.9453C1223.77 51.2057 1223.59 51.5208 1223.59 51.8906H1222.14C1222.14 51.4688 1222.29 51.0625 1222.59 50.6719C1222.89 50.276 1223.29 49.9635 1223.8 49.7344C1224.32 49.5052 1224.89 49.3906 1225.5 49.3906C1226.47 49.3906 1227.24 49.6354 1227.79 50.125C1228.34 50.6094 1228.63 51.2786 1228.65 52.1328V56.0234C1228.65 56.7995 1228.75 57.4167 1228.95 57.875V58H1227.43ZM1225.03 56.8984C1225.48 56.8984 1225.91 56.7812 1226.32 56.5469C1226.73 56.3125 1227.02 56.0078 1227.2 55.6328V53.8984H1226.07C1224.3 53.8984 1223.41 54.4167 1223.41 55.4531C1223.41 55.9062 1223.57 56.2604 1223.87 56.5156C1224.17 56.7708 1224.56 56.8984 1225.03 56.8984ZM1237.84 49.5469V58H1236.39V50.7422H1233.52L1233.34 53.9062C1233.25 55.3594 1233.01 56.3984 1232.61 57.0234C1232.22 57.6484 1231.6 57.974 1230.74 58H1230.16V56.7266L1230.58 56.6953C1231.05 56.6432 1231.38 56.3724 1231.59 55.8828C1231.79 55.3932 1231.92 54.487 1231.98 53.1641L1232.13 49.5469H1237.84ZM1245.63 49.5469H1247.08V58H1245.63V51.8359L1241.73 58H1240.29V49.5469H1241.73V55.7188L1245.63 49.5469ZM1255.68 50.7188H1252.84V58H1251.4V50.7188H1248.62V49.5469H1255.68V50.7188ZM1262.55 49.5469H1264V58H1262.55V51.8359L1258.66 58H1257.21V49.5469H1258.66V55.7188L1262.55 49.5469ZM1268.95 54.3984H1267.9V58H1266.45V49.5469H1267.9V53.125H1268.84L1271.69 49.5469H1273.44L1270.09 53.6094L1273.72 58H1271.88L1268.95 54.3984ZM1280.18 58C1280.1 57.8333 1280.03 57.5365 1279.98 57.1094C1279.3 57.8073 1278.5 58.1562 1277.57 58.1562C1276.74 58.1562 1276.05 57.9219 1275.52 57.4531C1274.98 56.9792 1274.72 56.3802 1274.72 55.6562C1274.72 54.776 1275.05 54.0938 1275.72 53.6094C1276.39 53.1198 1277.33 52.875 1278.55 52.875H1279.95V52.2109C1279.95 51.7057 1279.8 51.3047 1279.5 51.0078C1279.2 50.7057 1278.75 50.5547 1278.16 50.5547C1277.65 50.5547 1277.22 50.6849 1276.87 50.9453C1276.52 51.2057 1276.34 51.5208 1276.34 51.8906H1274.89C1274.89 51.4688 1275.04 51.0625 1275.34 50.6719C1275.64 50.276 1276.04 49.9635 1276.55 49.7344C1277.07 49.5052 1277.64 49.3906 1278.25 49.3906C1279.22 49.3906 1279.99 49.6354 1280.54 50.125C1281.09 50.6094 1281.38 51.2786 1281.4 52.1328V56.0234C1281.4 56.7995 1281.5 57.4167 1281.7 57.875V58H1280.18ZM1277.78 56.8984C1278.23 56.8984 1278.66 56.7812 1279.07 56.5469C1279.48 56.3125 1279.77 56.0078 1279.95 55.6328V53.8984H1278.82C1277.05 53.8984 1276.16 54.4167 1276.16 55.4531C1276.16 55.9062 1276.32 56.2604 1276.62 56.5156C1276.92 56.7708 1277.31 56.8984 1277.78 56.8984Z" fill="white"/>
<path d="M1378.11 54.3906C1377.97 55.5938 1377.52 56.5234 1376.77 57.1797C1376.03 57.8307 1375.04 58.1562 1373.8 58.1562C1372.45 58.1562 1371.38 57.6745 1370.56 56.7109C1369.76 55.7474 1369.35 54.4583 1369.35 52.8438V51.75C1369.35 50.6927 1369.54 49.763 1369.91 48.9609C1370.29 48.1589 1370.83 47.5443 1371.52 47.1172C1372.22 46.6849 1373.02 46.4688 1373.93 46.4688C1375.14 46.4688 1376.11 46.8073 1376.84 47.4844C1377.57 48.1562 1377.99 49.0885 1378.11 50.2812H1376.6C1376.47 49.375 1376.19 48.7188 1375.75 48.3125C1375.32 47.9062 1374.71 47.7031 1373.93 47.7031C1372.97 47.7031 1372.22 48.0573 1371.67 48.7656C1371.13 49.474 1370.86 50.4818 1370.86 51.7891V52.8906C1370.86 54.125 1371.12 55.1068 1371.63 55.8359C1372.15 56.5651 1372.87 56.9297 1373.8 56.9297C1374.63 56.9297 1375.27 56.7422 1375.71 56.3672C1376.16 55.987 1376.46 55.3281 1376.6 54.3906H1378.11ZM1379.55 53.6953C1379.55 52.8672 1379.72 52.1224 1380.04 51.4609C1380.37 50.7995 1380.82 50.2891 1381.4 49.9297C1381.98 49.5703 1382.65 49.3906 1383.39 49.3906C1384.54 49.3906 1385.47 49.7891 1386.18 50.5859C1386.89 51.3828 1387.25 52.4427 1387.25 53.7656V53.8672C1387.25 54.6901 1387.09 55.4297 1386.77 56.0859C1386.46 56.737 1386.01 57.2448 1385.42 57.6094C1384.84 57.974 1384.17 58.1562 1383.41 58.1562C1382.26 58.1562 1381.33 57.7578 1380.62 56.9609C1379.91 56.1641 1379.55 55.1094 1379.55 53.7969V53.6953ZM1381.01 53.8672C1381.01 54.8047 1381.22 55.5573 1381.66 56.125C1382.09 56.6927 1382.68 56.9766 1383.41 56.9766C1384.14 56.9766 1384.72 56.6901 1385.16 56.1172C1385.59 55.5391 1385.8 54.7318 1385.8 53.6953C1385.8 52.7682 1385.58 52.0182 1385.14 51.4453C1384.7 50.8672 1384.12 50.5781 1383.39 50.5781C1382.68 50.5781 1382.1 50.862 1381.66 51.4297C1381.23 51.9974 1381.01 52.8099 1381.01 53.8672ZM1388.68 53.6953C1388.68 52.8672 1388.84 52.1224 1389.16 51.4609C1389.49 50.7995 1389.95 50.2891 1390.52 49.9297C1391.11 49.5703 1391.77 49.3906 1392.52 49.3906C1393.67 49.3906 1394.6 49.7891 1395.3 50.5859C1396.02 51.3828 1396.38 52.4427 1396.38 53.7656V53.8672C1396.38 54.6901 1396.22 55.4297 1395.9 56.0859C1395.59 56.737 1395.14 57.2448 1394.55 57.6094C1393.96 57.974 1393.29 58.1562 1392.53 58.1562C1391.39 58.1562 1390.46 57.7578 1389.74 56.9609C1389.03 56.1641 1388.68 55.1094 1388.68 53.7969V53.6953ZM1390.13 53.8672C1390.13 54.8047 1390.35 55.5573 1390.78 56.125C1391.22 56.6927 1391.8 56.9766 1392.53 56.9766C1393.27 56.9766 1393.85 56.6901 1394.28 56.1172C1394.71 55.5391 1394.93 54.7318 1394.93 53.6953C1394.93 52.7682 1394.71 52.0182 1394.27 51.4453C1393.83 50.8672 1393.24 50.5781 1392.52 50.5781C1391.8 50.5781 1391.23 50.862 1390.79 51.4297C1390.35 51.9974 1390.13 52.8099 1390.13 53.8672ZM1401.9 50.0312C1402.96 50.0312 1403.81 50.388 1404.45 51.1016C1405.09 51.8099 1405.41 52.7448 1405.41 53.9062V54.0391C1405.41 54.8359 1405.25 55.5495 1404.95 56.1797C1404.64 56.8047 1404.2 57.2917 1403.62 57.6406C1403.04 57.9844 1402.38 58.1562 1401.63 58.1562C1400.5 58.1562 1399.58 57.7786 1398.89 57.0234C1398.2 56.263 1397.85 55.2448 1397.85 53.9688V53.2656C1397.85 51.4896 1398.18 50.0781 1398.84 49.0312C1399.5 47.9844 1400.47 47.3464 1401.76 47.1172C1402.49 46.987 1402.98 46.8281 1403.23 46.6406C1403.49 46.4531 1403.62 46.1953 1403.62 45.8672H1404.8C1404.8 46.5182 1404.66 47.026 1404.36 47.3906C1404.07 47.7552 1403.6 48.013 1402.95 48.1641L1401.88 48.4062C1401.02 48.6094 1400.37 48.9531 1399.94 49.4375C1399.51 49.9167 1399.23 50.5573 1399.1 51.3594C1399.87 50.474 1400.8 50.0312 1401.9 50.0312ZM1401.62 51.2188C1400.91 51.2188 1400.35 51.4583 1399.93 51.9375C1399.51 52.4115 1399.3 53.0703 1399.3 53.9141V54.0391C1399.3 54.9453 1399.51 55.6641 1399.93 56.1953C1400.35 56.7214 1400.92 56.9844 1401.63 56.9844C1402.35 56.9844 1402.92 56.7188 1403.34 56.1875C1403.75 55.6562 1403.96 54.8802 1403.96 53.8594C1403.96 53.0625 1403.75 52.4245 1403.33 51.9453C1402.91 51.4609 1402.34 51.2188 1401.62 51.2188ZM1408.38 49.5469V56.8203H1411.48V49.5469H1412.92V56.8203H1416.01V49.5469H1417.46V56.8203H1418.65L1418.51 60.5078H1417.21V58H1406.93V49.5469H1408.38ZM1423.73 58.1562C1422.58 58.1562 1421.65 57.7812 1420.93 57.0312C1420.21 56.276 1419.85 55.2682 1419.85 54.0078V53.7422C1419.85 52.9036 1420.01 52.1562 1420.33 51.5C1420.65 50.8385 1421.1 50.3229 1421.67 49.9531C1422.25 49.5781 1422.88 49.3906 1423.55 49.3906C1424.65 49.3906 1425.5 49.7526 1426.11 50.4766C1426.72 51.2005 1427.02 52.237 1427.02 53.5859V54.1875H1421.3C1421.32 55.0208 1421.56 55.6953 1422.02 56.2109C1422.49 56.7214 1423.09 56.9766 1423.8 56.9766C1424.32 56.9766 1424.75 56.8724 1425.1 56.6641C1425.46 56.4557 1425.77 56.1797 1426.03 55.8359L1426.91 56.5234C1426.21 57.612 1425.14 58.1562 1423.73 58.1562ZM1423.55 50.5781C1422.96 50.5781 1422.47 50.7917 1422.08 51.2188C1421.68 51.6406 1421.44 52.2344 1421.34 53H1425.58V52.8906C1425.54 52.1562 1425.34 51.5885 1424.98 51.1875C1424.63 50.7812 1424.15 50.5781 1423.55 50.5781ZM1432.09 56.9766C1432.61 56.9766 1433.06 56.8203 1433.45 56.5078C1433.83 56.1953 1434.04 55.8047 1434.09 55.3359H1435.45C1435.43 55.8203 1435.26 56.2812 1434.95 56.7188C1434.65 57.1562 1434.23 57.5052 1433.72 57.7656C1433.21 58.026 1432.67 58.1562 1432.09 58.1562C1430.94 58.1562 1430.03 57.7734 1429.34 57.0078C1428.67 56.237 1428.33 55.1849 1428.33 53.8516V53.6094C1428.33 52.7865 1428.48 52.0547 1428.78 51.4141C1429.08 50.7734 1429.52 50.276 1430.08 49.9219C1430.65 49.5677 1431.32 49.3906 1432.09 49.3906C1433.03 49.3906 1433.82 49.6745 1434.45 50.2422C1435.08 50.8099 1435.41 51.5469 1435.45 52.4531H1434.09C1434.04 51.9062 1433.84 51.4583 1433.46 51.1094C1433.09 50.7552 1432.63 50.5781 1432.09 50.5781C1431.35 50.5781 1430.78 50.8438 1430.38 51.375C1429.97 51.901 1429.77 52.6641 1429.77 53.6641V53.9375C1429.77 54.9115 1429.97 55.6615 1430.38 56.1875C1430.78 56.7135 1431.35 56.9766 1432.09 56.9766ZM1443.36 50.7188H1440.52V58H1439.08V50.7188H1436.3V49.5469H1443.36V50.7188ZM1444.9 58V49.5469H1448.2C1449.32 49.5469 1450.18 49.7448 1450.78 50.1406C1451.39 50.5312 1451.69 51.1068 1451.69 51.8672C1451.69 52.2578 1451.57 52.612 1451.34 52.9297C1451.1 53.2422 1450.76 53.4818 1450.3 53.6484C1450.81 53.7682 1451.22 54.0026 1451.52 54.3516C1451.84 54.7005 1451.99 55.1172 1451.99 55.6016C1451.99 56.3776 1451.71 56.9714 1451.13 57.3828C1450.57 57.7943 1449.76 58 1448.72 58H1444.9ZM1446.34 54.2891V56.8359H1448.73C1449.34 56.8359 1449.79 56.724 1450.09 56.5C1450.39 56.276 1450.54 55.9609 1450.54 55.5547C1450.54 54.7109 1449.92 54.2891 1448.68 54.2891H1446.34ZM1446.34 53.1328H1448.21C1449.57 53.1328 1450.24 52.737 1450.24 51.9453C1450.24 51.1536 1449.6 50.7448 1448.32 50.7188H1446.34V53.1328ZM1453.52 53.6953C1453.52 52.8672 1453.68 52.1224 1454.01 51.4609C1454.34 50.7995 1454.79 50.2891 1455.37 49.9297C1455.95 49.5703 1456.61 49.3906 1457.36 49.3906C1458.51 49.3906 1459.44 49.7891 1460.15 50.5859C1460.86 51.3828 1461.22 52.4427 1461.22 53.7656V53.8672C1461.22 54.6901 1461.06 55.4297 1460.74 56.0859C1460.43 56.737 1459.98 57.2448 1459.39 57.6094C1458.81 57.974 1458.14 58.1562 1457.38 58.1562C1456.23 58.1562 1455.3 57.7578 1454.59 56.9609C1453.88 56.1641 1453.52 55.1094 1453.52 53.7969V53.6953ZM1454.98 53.8672C1454.98 54.8047 1455.19 55.5573 1455.62 56.125C1456.06 56.6927 1456.65 56.9766 1457.38 56.9766C1458.11 56.9766 1458.69 56.6901 1459.12 56.1172C1459.56 55.5391 1459.77 54.7318 1459.77 53.6953C1459.77 52.7682 1459.55 52.0182 1459.11 51.4453C1458.67 50.8672 1458.09 50.5781 1457.36 50.5781C1456.65 50.5781 1456.07 50.862 1455.63 51.4297C1455.2 51.9974 1454.98 52.8099 1454.98 53.8672Z" fill="white"/>
<path d="M1558.95 60.7891H1557.46V58H1549.3V60.7969H1547.8L1547.79 56.7734H1548.72C1549.21 56.2214 1549.6 55.4818 1549.88 54.5547C1550.17 53.6224 1550.36 52.6016 1550.43 51.4922L1550.68 46.625H1557.48V56.7734H1558.97L1558.95 60.7891ZM1550.43 56.7734H1555.98V47.8594H1552.12L1551.96 51.2031C1551.89 52.5104 1551.72 53.625 1551.44 54.5469C1551.16 55.4688 1550.83 56.2109 1550.43 56.7734ZM1567.58 49.5469V58H1566.12V50.7422H1563.25L1563.08 53.9062C1562.98 55.3594 1562.74 56.3984 1562.34 57.0234C1561.95 57.6484 1561.33 57.974 1560.48 58H1559.9V56.7266L1560.31 56.6953C1560.78 56.6432 1561.12 56.3724 1561.32 55.8828C1561.52 55.3932 1561.65 54.487 1561.71 53.1641L1561.87 49.5469H1567.58ZM1576.36 49.5469V58H1574.91V54.7109H1572.73L1570.73 58H1569.17L1571.3 54.4922C1570.76 54.2943 1570.34 53.9896 1570.05 53.5781C1569.76 53.1615 1569.62 52.6771 1569.62 52.125C1569.62 51.3542 1569.91 50.7344 1570.48 50.2656C1571.06 49.7917 1571.84 49.5521 1572.8 49.5469H1576.36ZM1571.07 52.1406C1571.07 52.5521 1571.21 52.8854 1571.49 53.1406C1571.77 53.3906 1572.15 53.5182 1572.61 53.5234H1574.91V50.7188H1572.83C1572.29 50.7188 1571.86 50.8516 1571.55 51.1172C1571.23 51.3776 1571.07 51.7188 1571.07 52.1406ZM1582.27 53.6953C1582.27 52.8672 1582.43 52.1224 1582.75 51.4609C1583.08 50.7995 1583.53 50.2891 1584.11 49.9297C1584.69 49.5703 1585.36 49.3906 1586.1 49.3906C1587.25 49.3906 1588.18 49.7891 1588.89 50.5859C1589.6 51.3828 1589.96 52.4427 1589.96 53.7656V53.8672C1589.96 54.6901 1589.8 55.4297 1589.48 56.0859C1589.17 56.737 1588.72 57.2448 1588.13 57.6094C1587.55 57.974 1586.88 58.1562 1586.12 58.1562C1584.97 58.1562 1584.04 57.7578 1583.33 56.9609C1582.62 56.1641 1582.27 55.1094 1582.27 53.7969V53.6953ZM1583.72 53.8672C1583.72 54.8047 1583.93 55.5573 1584.37 56.125C1584.8 56.6927 1585.39 56.9766 1586.12 56.9766C1586.85 56.9766 1587.43 56.6901 1587.87 56.1172C1588.3 55.5391 1588.52 54.7318 1588.52 53.6953C1588.52 52.7682 1588.29 52.0182 1587.85 51.4453C1587.41 50.8672 1586.83 50.5781 1586.1 50.5781C1585.39 50.5781 1584.81 50.862 1584.38 51.4297C1583.94 51.9974 1583.72 52.8099 1583.72 53.8672ZM1598.91 53.8672C1598.91 55.1536 1598.62 56.1901 1598.03 56.9766C1597.44 57.763 1596.65 58.1562 1595.64 58.1562C1594.61 58.1562 1593.81 57.8307 1593.22 57.1797V61.25H1591.77V49.5469H1593.09L1593.16 50.4844C1593.75 49.7552 1594.57 49.3906 1595.62 49.3906C1596.63 49.3906 1597.43 49.7734 1598.02 50.5391C1598.62 51.3047 1598.91 52.3698 1598.91 53.7344V53.8672ZM1597.47 53.7031C1597.47 52.75 1597.27 51.9974 1596.86 51.4453C1596.45 50.8932 1595.9 50.6172 1595.19 50.6172C1594.31 50.6172 1593.66 51.0052 1593.22 51.7812V55.8203C1593.65 56.5911 1594.31 56.9766 1595.2 56.9766C1595.9 56.9766 1596.45 56.7031 1596.85 56.1562C1597.26 55.6042 1597.47 54.7865 1597.47 53.7031ZM1606.22 50.7422H1602.32V58H1600.87V49.5469H1606.22V50.7422ZM1612.7 58C1612.61 57.8333 1612.54 57.5365 1612.49 57.1094C1611.82 57.8073 1611.02 58.1562 1610.09 58.1562C1609.25 58.1562 1608.57 57.9219 1608.03 57.4531C1607.5 56.9792 1607.23 56.3802 1607.23 55.6562C1607.23 54.776 1607.57 54.0938 1608.23 53.6094C1608.91 53.1198 1609.85 52.875 1611.06 52.875H1612.47V52.2109C1612.47 51.7057 1612.32 51.3047 1612.02 51.0078C1611.71 50.7057 1611.27 50.5547 1610.68 50.5547C1610.16 50.5547 1609.73 50.6849 1609.38 50.9453C1609.03 51.2057 1608.86 51.5208 1608.86 51.8906H1607.41C1607.41 51.4688 1607.55 51.0625 1607.85 50.6719C1608.15 50.276 1608.56 49.9635 1609.07 49.7344C1609.59 49.5052 1610.15 49.3906 1610.77 49.3906C1611.74 49.3906 1612.5 49.6354 1613.05 50.125C1613.61 50.6094 1613.89 51.2786 1613.91 52.1328V56.0234C1613.91 56.7995 1614.01 57.4167 1614.21 57.875V58H1612.7ZM1610.3 56.8984C1610.75 56.8984 1611.18 56.7812 1611.59 56.5469C1611.99 56.3125 1612.29 56.0078 1612.47 55.6328V53.8984H1611.34C1609.57 53.8984 1608.68 54.4167 1608.68 55.4531C1608.68 55.9062 1608.83 56.2604 1609.13 56.5156C1609.43 56.7708 1609.82 56.8984 1610.3 56.8984ZM1623.09 58H1621.64V54.3906H1617.76V58H1616.3V49.5469H1617.76V53.2109H1621.64V49.5469H1623.09V58ZM1630.88 49.5469H1632.33V58H1630.88V51.8359L1626.98 58H1625.54V49.5469H1626.98V55.7188L1630.88 49.5469ZM1639.3 51.8594C1639.3 51.4635 1639.15 51.151 1638.84 50.9219C1638.54 50.6875 1638.13 50.5703 1637.6 50.5703C1637.09 50.5703 1636.66 50.7031 1636.32 50.9688C1635.98 51.2344 1635.81 51.5469 1635.81 51.9062H1634.38C1634.38 51.1719 1634.68 50.5703 1635.3 50.1016C1635.91 49.6328 1636.68 49.3984 1637.6 49.3984C1638.59 49.3984 1639.36 49.612 1639.91 50.0391C1640.47 50.4609 1640.74 51.0651 1640.74 51.8516C1640.74 52.2318 1640.63 52.5807 1640.4 52.8984C1640.17 53.2161 1639.84 53.4688 1639.42 53.6562C1640.41 53.9896 1640.9 54.6458 1640.9 55.625C1640.9 56.401 1640.6 57.0156 1640 57.4688C1639.4 57.9219 1638.6 58.1484 1637.6 58.1484C1636.63 58.1484 1635.82 57.9115 1635.19 57.4375C1634.56 56.9583 1634.24 56.3125 1634.24 55.5H1635.68C1635.68 55.9115 1635.86 56.2656 1636.23 56.5625C1636.6 56.8542 1637.05 57 1637.6 57C1638.15 57 1638.6 56.8724 1638.94 56.6172C1639.28 56.362 1639.45 56.0312 1639.45 55.625C1639.45 55.151 1639.3 54.8125 1639.02 54.6094C1638.73 54.401 1638.29 54.2969 1637.7 54.2969H1636.25V53.0781H1637.82C1638.8 53.0521 1639.3 52.6458 1639.3 51.8594ZM1647.99 58C1647.91 57.8333 1647.84 57.5365 1647.79 57.1094C1647.12 57.8073 1646.32 58.1562 1645.38 58.1562C1644.55 58.1562 1643.86 57.9219 1643.33 57.4531C1642.8 56.9792 1642.53 56.3802 1642.53 55.6562C1642.53 54.776 1642.86 54.0938 1643.53 53.6094C1644.2 53.1198 1645.15 52.875 1646.36 52.875H1647.77V52.2109C1647.77 51.7057 1647.61 51.3047 1647.31 51.0078C1647.01 50.7057 1646.57 50.5547 1645.98 50.5547C1645.46 50.5547 1645.03 50.6849 1644.68 50.9453C1644.33 51.2057 1644.16 51.5208 1644.16 51.8906H1642.7C1642.7 51.4688 1642.85 51.0625 1643.15 50.6719C1643.45 50.276 1643.86 49.9635 1644.37 49.7344C1644.88 49.5052 1645.45 49.3906 1646.06 49.3906C1647.04 49.3906 1647.8 49.6354 1648.35 50.125C1648.9 50.6094 1649.19 51.2786 1649.21 52.1328V56.0234C1649.21 56.7995 1649.31 57.4167 1649.51 57.875V58H1647.99ZM1645.59 56.8984C1646.05 56.8984 1646.48 56.7812 1646.88 56.5469C1647.29 56.3125 1647.58 56.0078 1647.77 55.6328V53.8984H1646.63C1644.86 53.8984 1643.98 54.4167 1643.98 55.4531C1643.98 55.9062 1644.13 56.2604 1644.43 56.5156C1644.73 56.7708 1645.12 56.8984 1645.59 56.8984ZM1651.6 49.5469H1653.05V56.8203H1656.95V49.5469H1658.39V56.8203H1659.4L1659.26 60.5078H1657.96V58H1651.6V49.5469ZM1666.43 49.5469H1667.88V58H1666.43V51.8359L1662.53 58H1661.09V49.5469H1662.53V55.7188L1666.43 49.5469ZM1675.66 49.5469H1677.11V58H1675.66V51.8359L1671.77 58H1670.32V49.5469H1671.77V55.7188L1675.66 49.5469ZM1676.05 46.4688C1676.05 47.099 1675.84 47.6068 1675.41 47.9922C1674.98 48.3724 1674.42 48.5625 1673.72 48.5625C1673.02 48.5625 1672.46 48.3698 1672.02 47.9844C1671.59 47.599 1671.38 47.0938 1671.38 46.4688H1672.55C1672.55 46.8333 1672.65 47.1198 1672.85 47.3281C1673.05 47.5312 1673.34 47.6328 1673.72 47.6328C1674.08 47.6328 1674.37 47.5312 1674.57 47.3281C1674.78 47.125 1674.88 46.8385 1674.88 46.4688H1676.05Z" fill="white"/>
<g clip-path="url(#clip0_73_3697)">
<path d="M3173.61 34.4043H3159.39C3154.76 34.4043 3151 38.1686 3151 42.7957V57.0131C3151 61.6399 3154.76 65.4042 3159.39 65.4042H3173.61C3178.24 65.4042 3182 61.6399 3182 57.0131V42.7957C3182 38.1686 3178.24 34.4043 3173.61 34.4043V34.4043ZM3166.5 58.3806C3161.83 58.3806 3158.02 54.5782 3158.02 49.9043C3158.02 45.2303 3161.83 41.428 3166.5 41.428C3171.17 41.428 3174.98 45.2303 3174.98 49.9043C3174.98 54.5782 3171.17 58.3806 3166.5 58.3806ZM3175.18 43.4269C3173.8 43.4269 3172.67 42.3035 3172.67 40.9223C3172.67 39.5411 3173.8 38.4174 3175.18 38.4174C3176.56 38.4174 3177.68 39.5411 3177.68 40.9223C3177.68 42.3035 3176.56 43.4269 3175.18 43.4269Z" fill="white"/>
<path d="M3166.5 43.2454C3162.83 43.2454 3159.84 46.2325 3159.84 49.9043C3159.84 53.5759 3162.83 56.5633 3166.5 56.5633C3170.17 56.5633 3173.16 53.5759 3173.16 49.9043C3173.16 46.2325 3170.17 43.2454 3166.5 43.2454Z" fill="white"/>
<path d="M3175.18 40.235C3174.8 40.235 3174.49 40.5434 3174.49 40.9223C3174.49 41.3012 3174.8 41.6096 3175.18 41.6096C3175.56 41.6096 3175.87 41.3014 3175.87 40.9223C3175.87 40.5432 3175.56 40.235 3175.18 40.235Z" fill="white"/>
</g>
<g clip-path="url(#clip1_73_3697)">
<path d="M3227.99 52.1155L3227.52 58.6302C3228.19 58.6302 3228.47 58.3455 3228.82 58.0037L3231.92 55.0345L3238.36 59.749C3239.54 60.407 3240.37 60.0605 3240.69 58.6628L3244.92 38.8622L3244.92 38.861C3245.29 37.1157 3244.29 36.4332 3243.14 36.8613L3218.3 46.3708C3216.6 47.0288 3216.63 47.9738 3218.01 48.402L3224.36 50.3772L3239.11 41.1477C3239.81 40.688 3240.44 40.9423 3239.92 41.402L3227.99 52.1155Z" fill="white"/>
</g>
<g clip-path="url(#clip2_73_3697)">
<path d="M3103.66 39.5516H3106.49V34.6226C3106 34.5554 3104.33 34.4043 3102.37 34.4043C3098.29 34.4043 3095.49 36.9708 3095.49 41.688V46.0293H3090.99V51.5395H3095.49V65.4043H3101.02V51.5408H3105.34L3106.02 46.0306H3101.01V42.2344C3101.02 40.6418 3101.44 39.5516 3103.66 39.5516Z" fill="white"/>
</g>
<defs>
<clipPath id="clip0_73_3697">
<rect width="31" height="31" fill="white" transform="translate(3151 34.4043)"/>
</clipPath>
<clipPath id="clip1_73_3697">
<rect width="28" height="28" fill="white" transform="translate(3217 34.4043)"/>
</clipPath>
<clipPath id="clip2_73_3697">
<rect width="31" height="31" fill="white" transform="translate(3083 34.4043)"/>
</clipPath>
</defs>
</svg>
