<svg width="3840" height="85" viewBox="0 0 3840 85" fill="none" xmlns="http://www.w3.org/2000/svg">
<rect width="3840" height="85" fill="white"/>
<path d="M1313.18 36.13H1315.24L1319.59 49H1318.04L1316.78 45.292H1311.47L1310.23 49H1308.76L1313.18 36.13ZM1311.91 44.05H1316.37L1314.14 37.426L1311.91 44.05ZM1327.76 44.806H1323.13V49H1321.64V39.586H1323.13V43.546H1327.76V39.586H1329.25V49H1327.76V44.806ZM1334.74 49.162C1333.82 49.162 1333.06 48.934 1332.47 48.478C1331.9 48.01 1331.61 47.314 1331.61 46.39C1331.61 45.874 1331.74 45.424 1331.99 45.04C1332.25 44.644 1332.61 44.338 1333.07 44.122C1333.52 43.894 1334.02 43.732 1334.56 43.636C1335.1 43.528 1335.69 43.474 1336.33 43.474H1337.68V42.79C1337.68 42.034 1337.52 41.494 1337.21 41.17C1336.9 40.834 1336.38 40.666 1335.66 40.666C1334.36 40.666 1333.64 41.23 1333.5 42.358H1332.01C1332.1 41.35 1332.49 40.612 1333.18 40.144C1333.87 39.664 1334.72 39.424 1335.73 39.424C1338.02 39.424 1339.17 40.546 1339.17 42.79V49H1337.68V47.812C1336.96 48.712 1335.98 49.162 1334.74 49.162ZM1334.89 47.974C1335.7 47.974 1336.37 47.776 1336.88 47.38C1337.41 46.972 1337.68 46.414 1337.68 45.706V44.536H1336.38C1334.2 44.536 1333.1 45.154 1333.1 46.39C1333.1 47.446 1333.7 47.974 1334.89 47.974ZM1343.8 45.364C1343.69 46.66 1343.46 47.608 1343.11 48.208C1342.76 48.796 1342.22 49.09 1341.47 49.09C1341.32 49.09 1341.16 49.078 1340.99 49.054L1340.84 49V47.578L1340.97 47.614C1341.09 47.638 1341.22 47.65 1341.35 47.65C1341.54 47.65 1341.7 47.596 1341.82 47.488C1341.95 47.368 1342.05 47.182 1342.12 46.93C1342.21 46.678 1342.27 46.444 1342.3 46.228C1342.34 46 1342.38 45.682 1342.43 45.274C1342.48 44.842 1342.55 43.618 1342.64 41.602L1342.7 39.586H1348.91V49H1347.41V40.846H1344.03C1343.92 43.438 1343.84 44.944 1343.8 45.364ZM1351.93 49V39.586H1353.42V46.84L1358.23 39.586H1359.72V49H1358.23V41.746L1353.42 49H1351.93ZM1369.17 40.846H1366.13V49H1364.63V40.846H1361.59V39.586H1369.17V40.846ZM1371.23 49V39.586H1372.72V46.84L1377.53 39.586H1379.02V49H1377.53V41.746L1372.72 49H1371.23ZM1383.36 44.194V49H1381.86V39.586H1383.36V43.978L1387.26 39.586H1389.01L1384.98 44.014L1389.35 49H1387.53L1383.36 44.194ZM1393.52 49.162C1392.6 49.162 1391.84 48.934 1391.25 48.478C1390.68 48.01 1390.39 47.314 1390.39 46.39C1390.39 45.874 1390.52 45.424 1390.77 45.04C1391.03 44.644 1391.39 44.338 1391.85 44.122C1392.3 43.894 1392.8 43.732 1393.34 43.636C1393.88 43.528 1394.47 43.474 1395.11 43.474H1396.46V42.79C1396.46 42.034 1396.3 41.494 1395.99 41.17C1395.68 40.834 1395.16 40.666 1394.44 40.666C1393.14 40.666 1392.42 41.23 1392.28 42.358H1390.79C1390.88 41.35 1391.27 40.612 1391.96 40.144C1392.65 39.664 1393.5 39.424 1394.51 39.424C1396.8 39.424 1397.95 40.546 1397.95 42.79V49H1396.46V47.812C1395.74 48.712 1394.76 49.162 1393.52 49.162ZM1393.67 47.974C1394.48 47.974 1395.15 47.776 1395.66 47.38C1396.19 46.972 1396.46 46.414 1396.46 45.706V44.536H1395.16C1392.98 44.536 1391.88 45.154 1391.88 46.39C1391.88 47.446 1392.48 47.974 1393.67 47.974Z" fill="#575756"/>
<path d="M1462.11 49.162C1460.25 49.162 1458.78 48.574 1457.7 47.398C1456.63 46.222 1456.1 44.638 1456.1 42.646V42.502C1456.1 40.594 1456.67 39.022 1457.81 37.786C1458.95 36.55 1460.39 35.932 1462.15 35.932C1463.55 35.932 1464.73 36.298 1465.69 37.03C1466.66 37.762 1467.22 38.8 1467.37 40.144H1465.82C1465.64 39.148 1465.25 38.404 1464.67 37.912C1464.09 37.42 1463.26 37.174 1462.16 37.174C1460.83 37.174 1459.76 37.66 1458.94 38.632C1458.13 39.592 1457.72 40.876 1457.72 42.484V42.628C1457.72 44.272 1458.11 45.562 1458.89 46.498C1459.68 47.422 1460.77 47.884 1462.15 47.884C1463.21 47.884 1464.08 47.62 1464.76 47.092C1465.44 46.552 1465.87 45.766 1466.03 44.734H1467.49C1467.28 46.186 1466.69 47.29 1465.75 48.046C1464.8 48.79 1463.59 49.162 1462.11 49.162ZM1473.69 47.92C1474.63 47.92 1475.37 47.596 1475.92 46.948C1476.49 46.3 1476.77 45.442 1476.77 44.374V44.248C1476.77 43.156 1476.49 42.286 1475.92 41.638C1475.37 40.99 1474.63 40.666 1473.69 40.666C1472.74 40.666 1471.99 40.99 1471.44 41.638C1470.89 42.286 1470.61 43.15 1470.61 44.23V44.374C1470.61 45.466 1470.88 46.33 1471.42 46.966C1471.98 47.602 1472.73 47.92 1473.69 47.92ZM1473.67 49.162C1472.34 49.162 1471.24 48.712 1470.36 47.812C1469.5 46.9 1469.07 45.754 1469.07 44.374V44.23C1469.07 42.826 1469.5 41.674 1470.36 40.774C1471.24 39.874 1472.35 39.424 1473.69 39.424C1475.04 39.424 1476.14 39.874 1477 40.774C1477.88 41.662 1478.32 42.808 1478.32 44.212V44.356C1478.32 45.772 1477.88 46.93 1477 47.83C1476.13 48.718 1475.02 49.162 1473.67 49.162ZM1484.56 47.92C1485.49 47.92 1486.24 47.596 1486.79 46.948C1487.35 46.3 1487.63 45.442 1487.63 44.374V44.248C1487.63 43.156 1487.35 42.286 1486.79 41.638C1486.24 40.99 1485.49 40.666 1484.56 40.666C1483.61 40.666 1482.86 40.99 1482.31 41.638C1481.75 42.286 1481.48 43.15 1481.48 44.23V44.374C1481.48 45.466 1481.75 46.33 1482.29 46.966C1482.84 47.602 1483.6 47.92 1484.56 47.92ZM1484.54 49.162C1483.21 49.162 1482.1 48.712 1481.23 47.812C1480.36 46.9 1479.93 45.754 1479.93 44.374V44.23C1479.93 42.826 1480.36 41.674 1481.23 40.774C1482.1 39.874 1483.21 39.424 1484.56 39.424C1485.9 39.424 1487 39.874 1487.87 40.774C1488.74 41.662 1489.18 42.808 1489.18 44.212V44.356C1489.18 45.772 1488.74 46.93 1487.87 47.83C1486.99 48.718 1485.88 49.162 1484.54 49.162ZM1495.44 49.162C1494.02 49.162 1492.9 48.706 1492.07 47.794C1491.24 46.882 1490.83 45.496 1490.83 43.636V43.06C1490.83 42.172 1490.87 41.386 1490.94 40.702C1491.01 40.006 1491.16 39.31 1491.39 38.614C1491.62 37.906 1491.92 37.318 1492.29 36.85C1492.66 36.382 1493.16 35.992 1493.8 35.68C1494.45 35.368 1495.21 35.188 1496.09 35.14L1496.45 35.122C1497.77 35.05 1498.66 34.918 1499.13 34.726L1499.33 35.986C1498.71 36.25 1497.76 36.412 1496.46 36.472L1496.19 36.49C1494.74 36.562 1493.7 37.036 1493.08 37.912C1492.47 38.776 1492.11 40.12 1492 41.944H1492.07C1492.4 41.284 1492.88 40.762 1493.51 40.378C1494.16 39.982 1494.91 39.784 1495.76 39.784C1497.07 39.784 1498.11 40.21 1498.89 41.062C1499.69 41.902 1500.08 42.994 1500.08 44.338V44.41C1500.08 45.862 1499.64 47.02 1498.77 47.884C1497.9 48.736 1496.79 49.162 1495.44 49.162ZM1493.19 47.002C1493.74 47.614 1494.5 47.92 1495.46 47.92C1496.42 47.92 1497.17 47.62 1497.71 47.02C1498.26 46.408 1498.53 45.544 1498.53 44.428V44.392C1498.53 43.348 1498.28 42.526 1497.78 41.926C1497.29 41.326 1496.57 41.026 1495.62 41.026C1494.62 41.026 1493.83 41.338 1493.24 41.962C1492.67 42.586 1492.38 43.438 1492.38 44.518V44.554C1492.38 45.574 1492.65 46.39 1493.19 47.002ZM1514.22 51.286L1514.11 49H1502.41V39.586H1503.9V47.74H1507.45V39.586H1508.94V47.74H1512.49V39.586H1513.98V47.74H1515.42V51.286H1514.22ZM1521.17 49.162C1519.83 49.162 1518.73 48.724 1517.88 47.848C1517.04 46.972 1516.62 45.82 1516.62 44.392V44.248C1516.62 42.832 1517.02 41.674 1517.84 40.774C1518.67 39.874 1519.73 39.424 1521.03 39.424C1522.23 39.424 1523.23 39.814 1524.03 40.594C1524.85 41.362 1525.26 42.532 1525.26 44.104V44.59H1518.16C1518.24 46.81 1519.24 47.92 1521.19 47.92C1522.66 47.92 1523.5 47.374 1523.69 46.282H1525.18C1525.02 47.218 1524.58 47.932 1523.87 48.424C1523.16 48.916 1522.26 49.162 1521.17 49.162ZM1523.73 43.384C1523.59 41.572 1522.69 40.666 1521.03 40.666C1520.27 40.666 1519.65 40.906 1519.15 41.386C1518.66 41.866 1518.35 42.532 1518.22 43.384H1523.73ZM1531.45 49.162C1530.11 49.162 1529.01 48.73 1528.14 47.866C1527.28 46.99 1526.85 45.832 1526.85 44.392V44.248C1526.85 42.832 1527.28 41.674 1528.16 40.774C1529.05 39.874 1530.13 39.424 1531.42 39.424C1532.5 39.424 1533.42 39.694 1534.17 40.234C1534.93 40.762 1535.37 41.59 1535.5 42.718H1534.03C1533.81 41.35 1532.94 40.666 1531.42 40.666C1530.54 40.666 1529.82 40.996 1529.24 41.656C1528.68 42.304 1528.39 43.168 1528.39 44.248V44.392C1528.39 45.52 1528.67 46.39 1529.22 47.002C1529.79 47.614 1530.54 47.92 1531.47 47.92C1532.18 47.92 1532.79 47.722 1533.29 47.326C1533.81 46.918 1534.1 46.348 1534.17 45.616H1535.56C1535.46 46.648 1535.03 47.5 1534.26 48.172C1533.51 48.832 1532.57 49.162 1531.45 49.162ZM1544.31 40.846H1541.27V49H1539.78V40.846H1536.73V39.586H1544.31V40.846ZM1546.37 39.586H1549.67C1551.87 39.586 1552.98 40.384 1552.98 41.98V42.034C1552.98 42.49 1552.85 42.91 1552.6 43.294C1552.35 43.666 1551.97 43.918 1551.47 44.05C1552.77 44.338 1553.43 45.046 1553.43 46.174V46.228C1553.43 47.14 1553.13 47.83 1552.53 48.298C1551.94 48.766 1551.12 49 1550.06 49H1546.37V39.586ZM1547.87 40.774V43.564H1549.67C1550.29 43.564 1550.73 43.45 1551 43.222C1551.27 42.994 1551.41 42.622 1551.41 42.106V42.052C1551.41 41.572 1551.27 41.242 1550.98 41.062C1550.7 40.87 1550.26 40.774 1549.65 40.774H1547.87ZM1547.87 44.752V47.812H1549.92C1550.58 47.812 1551.06 47.698 1551.38 47.47C1551.7 47.23 1551.86 46.846 1551.86 46.318V46.264C1551.86 45.736 1551.7 45.352 1551.38 45.112C1551.06 44.872 1550.58 44.752 1549.92 44.752H1547.87ZM1559.84 47.92C1560.78 47.92 1561.52 47.596 1562.07 46.948C1562.64 46.3 1562.92 45.442 1562.92 44.374V44.248C1562.92 43.156 1562.64 42.286 1562.07 41.638C1561.52 40.99 1560.78 40.666 1559.84 40.666C1558.89 40.666 1558.14 40.99 1557.59 41.638C1557.04 42.286 1556.76 43.15 1556.76 44.23V44.374C1556.76 45.466 1557.03 46.33 1557.57 46.966C1558.13 47.602 1558.88 47.92 1559.84 47.92ZM1559.82 49.162C1558.49 49.162 1557.39 48.712 1556.51 47.812C1555.65 46.9 1555.22 45.754 1555.22 44.374V44.23C1555.22 42.826 1555.65 41.674 1556.51 40.774C1557.39 39.874 1558.5 39.424 1559.84 39.424C1561.19 39.424 1562.29 39.874 1563.15 40.774C1564.03 41.662 1564.47 42.808 1564.47 44.212V44.356C1564.47 45.772 1564.03 46.93 1563.15 47.83C1562.28 48.718 1561.17 49.162 1559.82 49.162Z" fill="#575756"/>
<path d="M1624.8 44.482C1624.69 45.982 1624.41 47.05 1623.95 47.686H1630.22V37.408H1625.18C1625.15 37.744 1625.12 38.38 1625.09 39.316C1625.05 40.24 1625.01 41.152 1624.96 42.052C1624.91 42.94 1624.86 43.75 1624.8 44.482ZM1622.48 51.34H1621.18V47.686H1621.99C1622.42 47.554 1622.73 47.224 1622.93 46.696C1623.13 46.168 1623.29 45.388 1623.39 44.356C1623.54 42.568 1623.64 40.75 1623.7 38.902C1623.75 37.642 1623.78 36.718 1623.79 36.13H1631.75V47.686H1633.19V51.34H1631.89L1631.8 49H1622.57L1622.48 51.34ZM1637.21 45.364C1637.11 46.66 1636.88 47.608 1636.53 48.208C1636.18 48.796 1635.64 49.09 1634.89 49.09C1634.74 49.09 1634.57 49.078 1634.41 49.054L1634.26 49V47.578L1634.39 47.614C1634.51 47.638 1634.63 47.65 1634.77 47.65C1634.96 47.65 1635.11 47.596 1635.23 47.488C1635.37 47.368 1635.47 47.182 1635.54 46.93C1635.62 46.678 1635.68 46.444 1635.72 46.228C1635.76 46 1635.8 45.682 1635.85 45.274C1635.89 44.842 1635.97 43.618 1636.06 41.602L1636.12 39.586H1642.33V49H1640.83V40.846H1637.45C1637.34 43.438 1637.26 44.944 1637.21 45.364ZM1648.48 40.774C1647.13 40.774 1646.46 41.344 1646.46 42.484V42.538C1646.46 43.078 1646.62 43.486 1646.93 43.762C1647.24 44.038 1647.76 44.176 1648.48 44.176H1650.24V40.774H1648.48ZM1645.99 49H1644.28L1647.15 45.058C1645.69 44.758 1644.97 43.918 1644.97 42.538V42.484C1644.97 41.5 1645.3 40.774 1645.98 40.306C1646.65 39.826 1647.51 39.586 1648.57 39.586H1651.74V49H1650.24V45.31H1648.62L1645.99 49ZM1663.56 47.92C1664.5 47.92 1665.24 47.596 1665.8 46.948C1666.36 46.3 1666.64 45.442 1666.64 44.374V44.248C1666.64 43.156 1666.36 42.286 1665.8 41.638C1665.24 40.99 1664.5 40.666 1663.56 40.666C1662.62 40.666 1661.87 40.99 1661.31 41.638C1660.76 42.286 1660.49 43.15 1660.49 44.23V44.374C1660.49 45.466 1660.76 46.33 1661.3 46.966C1661.85 47.602 1662.6 47.92 1663.56 47.92ZM1663.55 49.162C1662.21 49.162 1661.11 48.712 1660.23 47.812C1659.37 46.9 1658.94 45.754 1658.94 44.374V44.23C1658.94 42.826 1659.37 41.674 1660.23 40.774C1661.11 39.874 1662.22 39.424 1663.56 39.424C1664.91 39.424 1666.01 39.874 1666.88 40.774C1667.75 41.662 1668.19 42.808 1668.19 44.212V44.356C1668.19 45.772 1667.75 46.93 1666.88 47.83C1666 48.718 1664.89 49.162 1663.55 49.162ZM1670.5 39.586H1672V41.17C1672.27 40.69 1672.7 40.282 1673.29 39.946C1673.88 39.598 1674.51 39.424 1675.18 39.424C1676.44 39.424 1677.47 39.85 1678.26 40.702C1679.06 41.554 1679.47 42.706 1679.47 44.158V44.302C1679.47 45.754 1679.07 46.93 1678.28 47.83C1677.5 48.718 1676.47 49.162 1675.18 49.162C1673.74 49.162 1672.68 48.592 1672 47.452V52.276H1670.5V39.586ZM1675.04 47.92C1675.97 47.92 1676.69 47.62 1677.18 47.02C1677.67 46.408 1677.92 45.526 1677.92 44.374V44.23C1677.92 43.09 1677.64 42.214 1677.09 41.602C1676.55 40.978 1675.86 40.666 1675.02 40.666C1674.11 40.666 1673.36 40.972 1672.79 41.584C1672.22 42.184 1671.94 43.066 1671.94 44.23V44.374C1671.94 45.538 1672.22 46.42 1672.77 47.02C1673.33 47.62 1674.09 47.92 1675.04 47.92ZM1683.17 40.846V49H1681.68V39.586H1687.66V40.846H1683.17ZM1692.09 49.162C1691.17 49.162 1690.41 48.934 1689.82 48.478C1689.25 48.01 1688.96 47.314 1688.96 46.39C1688.96 45.874 1689.09 45.424 1689.34 45.04C1689.6 44.644 1689.96 44.338 1690.42 44.122C1690.87 43.894 1691.37 43.732 1691.91 43.636C1692.45 43.528 1693.04 43.474 1693.68 43.474H1695.03V42.79C1695.03 42.034 1694.87 41.494 1694.56 41.17C1694.25 40.834 1693.73 40.666 1693.01 40.666C1691.71 40.666 1690.99 41.23 1690.85 42.358H1689.36C1689.45 41.35 1689.84 40.612 1690.53 40.144C1691.22 39.664 1692.07 39.424 1693.08 39.424C1695.37 39.424 1696.52 40.546 1696.52 42.79V49H1695.03V47.812C1694.31 48.712 1693.33 49.162 1692.09 49.162ZM1692.24 47.974C1693.05 47.974 1693.72 47.776 1694.23 47.38C1694.76 46.972 1695.03 46.414 1695.03 45.706V44.536H1693.73C1691.55 44.536 1690.45 45.154 1690.45 46.39C1690.45 47.446 1691.05 47.974 1692.24 47.974ZM1705.47 44.806H1700.84V49H1699.35V39.586H1700.84V43.546H1705.47V39.586H1706.96V49H1705.47V44.806ZM1709.98 49V39.586H1711.47V46.84L1716.28 39.586H1717.77V49H1716.28V41.746L1711.47 49H1709.98ZM1726.68 42.034C1726.68 42.502 1726.54 42.934 1726.27 43.33C1726 43.714 1725.63 43.954 1725.13 44.05C1725.75 44.158 1726.23 44.392 1726.59 44.752C1726.95 45.112 1727.13 45.586 1727.13 46.174V46.228C1727.13 47.104 1726.81 47.812 1726.16 48.352C1725.52 48.892 1724.65 49.162 1723.55 49.162C1722.41 49.162 1721.52 48.898 1720.87 48.37C1720.23 47.83 1719.89 47.074 1719.84 46.102H1721.3C1721.37 46.702 1721.58 47.158 1721.91 47.47C1722.26 47.77 1722.81 47.92 1723.55 47.92C1724.89 47.92 1725.57 47.386 1725.57 46.318V46.264C1725.57 45.736 1725.4 45.352 1725.08 45.112C1724.77 44.872 1724.28 44.752 1723.62 44.752H1722.2V43.564H1723.37C1723.99 43.564 1724.44 43.45 1724.7 43.222C1724.98 42.994 1725.12 42.622 1725.12 42.106V42.052C1725.12 41.128 1724.58 40.666 1723.5 40.666C1722.45 40.666 1721.83 41.158 1721.62 42.142H1720.18C1720.29 41.194 1720.65 40.504 1721.26 40.072C1721.89 39.64 1722.66 39.424 1723.59 39.424C1724.47 39.424 1725.21 39.652 1725.8 40.108C1726.39 40.552 1726.68 41.176 1726.68 41.98V42.034ZM1732.06 49.162C1731.14 49.162 1730.38 48.934 1729.8 48.478C1729.22 48.01 1728.93 47.314 1728.93 46.39C1728.93 45.874 1729.06 45.424 1729.31 45.04C1729.57 44.644 1729.93 44.338 1730.39 44.122C1730.85 43.894 1731.34 43.732 1731.88 43.636C1732.42 43.528 1733.01 43.474 1733.65 43.474H1735V42.79C1735 42.034 1734.84 41.494 1734.53 41.17C1734.22 40.834 1733.7 40.666 1732.98 40.666C1731.69 40.666 1730.97 41.23 1730.82 42.358H1729.33C1729.42 41.35 1729.81 40.612 1730.5 40.144C1731.19 39.664 1732.05 39.424 1733.05 39.424C1735.35 39.424 1736.49 40.546 1736.49 42.79V49H1735V47.812C1734.28 48.712 1733.3 49.162 1732.06 49.162ZM1732.21 47.974C1733.02 47.974 1733.69 47.776 1734.21 47.38C1734.73 46.972 1735 46.414 1735 45.706V44.536H1733.7C1731.52 44.536 1730.43 45.154 1730.43 46.39C1730.43 47.446 1731.02 47.974 1732.21 47.974ZM1746.99 51.286L1746.88 49H1739.32V39.586H1740.81V47.74H1745.26V39.586H1746.75V47.74H1748.19V51.286H1746.99ZM1750.06 49V39.586H1751.55V46.84L1756.36 39.586H1757.85V49H1756.36V41.746L1751.55 49H1750.06ZM1764.56 37.858C1763.92 37.858 1763.36 37.636 1762.91 37.192C1762.45 36.736 1762.21 36.166 1762.19 35.482H1763.48C1763.56 36.37 1763.92 36.814 1764.56 36.814C1765.27 36.814 1765.67 36.37 1765.75 35.482H1767.01C1766.96 36.166 1766.71 36.736 1766.24 37.192C1765.78 37.636 1765.22 37.858 1764.56 37.858ZM1760.69 49V39.586H1762.19V46.84L1766.99 39.586H1768.49V49H1766.99V41.746L1762.19 49H1760.69Z" fill="#575756"/>
<rect x="2257.5" y="24.5" width="194" height="35" rx="17.5" stroke="#3A85F4"/>
<path d="M2296.56 47.14C2295.02 47.14 2293.81 46.6827 2292.95 45.768C2292.1 44.8533 2291.68 43.6167 2291.68 42.058V41.946C2291.68 40.4527 2292.14 39.23 2293.05 38.278C2293.97 37.3167 2295.13 36.836 2296.54 36.836C2297.73 36.836 2298.72 37.1347 2299.49 37.732C2300.27 38.3293 2300.72 39.1973 2300.83 40.336H2298.94C2298.84 39.6547 2298.59 39.1507 2298.2 38.824C2297.82 38.488 2297.27 38.32 2296.55 38.32C2295.67 38.32 2294.97 38.6467 2294.44 39.3C2293.9 39.944 2293.64 40.8213 2293.64 41.932V42.044C2293.64 43.1733 2293.9 44.0553 2294.41 44.69C2294.92 45.3153 2295.64 45.628 2296.56 45.628C2297.27 45.628 2297.85 45.4507 2298.3 45.096C2298.75 44.732 2299.02 44.2047 2299.13 43.514H2300.95C2300.81 44.6993 2300.34 45.6 2299.56 46.216C2298.79 46.832 2297.79 47.14 2296.56 47.14ZM2307.43 45.642C2308.37 45.642 2309.12 45.3153 2309.67 44.662C2310.23 43.9993 2310.51 43.122 2310.51 42.03V41.918C2310.51 40.8633 2310.23 40.0047 2309.67 39.342C2309.12 38.67 2308.36 38.334 2307.4 38.334C2306.43 38.334 2305.67 38.6607 2305.11 39.314C2304.56 39.9673 2304.28 40.84 2304.28 41.932V42.044C2304.28 43.1267 2304.58 43.9993 2305.16 44.662C2305.75 45.3153 2306.51 45.642 2307.43 45.642ZM2307.4 47.14C2305.89 47.14 2304.67 46.6593 2303.74 45.698C2302.8 44.7367 2302.34 43.5233 2302.34 42.058V41.946C2302.34 40.4713 2302.81 39.2533 2303.75 38.292C2304.7 37.3307 2305.92 36.85 2307.4 36.85C2308.89 36.85 2310.1 37.326 2311.03 38.278C2311.97 39.2207 2312.44 40.4293 2312.44 41.904V42.016C2312.44 43.4907 2311.98 44.7133 2311.04 45.684C2310.12 46.6547 2308.91 47.14 2307.4 47.14ZM2317.62 47.14C2316.49 47.14 2315.59 46.8367 2314.93 46.23C2314.27 45.6233 2313.88 44.7973 2313.77 43.752H2315.55C2315.73 45.012 2316.43 45.642 2317.63 45.642C2318.26 45.642 2318.73 45.4973 2319.06 45.208C2319.39 44.9093 2319.55 44.494 2319.55 43.962C2319.55 43.4393 2319.4 43.066 2319.12 42.842C2318.83 42.6087 2318.34 42.492 2317.65 42.492H2316.51V41.204H2317.62C2318.68 41.204 2319.21 40.7093 2319.21 39.72C2319.21 39.272 2319.08 38.9313 2318.81 38.698C2318.54 38.4553 2318.15 38.334 2317.65 38.334C2317.1 38.334 2316.69 38.4693 2316.4 38.74C2316.12 39.0013 2315.92 39.4073 2315.81 39.958H2314.06C2314.18 38.95 2314.56 38.18 2315.18 37.648C2315.82 37.116 2316.66 36.85 2317.72 36.85C2318.71 36.85 2319.52 37.102 2320.14 37.606C2320.76 38.11 2321.08 38.768 2321.08 39.58C2321.08 40.1213 2320.94 40.588 2320.66 40.98C2320.38 41.372 2319.96 41.6473 2319.41 41.806C2320.08 41.9087 2320.59 42.156 2320.94 42.548C2321.29 42.9307 2321.47 43.4347 2321.47 44.06C2321.47 44.9747 2321.11 45.7167 2320.39 46.286C2319.68 46.8553 2318.76 47.14 2317.62 47.14ZM2325.83 42.996C2325.72 44.1627 2325.51 44.998 2325.2 45.502H2329.35V38.474H2326.06C2325.99 40.3593 2325.92 41.8667 2325.83 42.996ZM2324.06 48.82H2322.46V45.502H2323.09C2323.41 45.3713 2323.64 45.1007 2323.8 44.69C2323.96 44.27 2324.08 43.6633 2324.17 42.87C2324.32 40.9567 2324.39 38.9967 2324.39 36.99H2331.2V45.502H2332.39V48.82H2330.78L2330.71 47H2324.13L2324.06 48.82ZM2336.69 36.99H2339.13L2342.43 47H2340.5L2339.7 44.522H2335.88L2335.09 47H2333.34L2336.69 36.99ZM2336.31 43.164H2339.27L2337.8 38.516L2336.31 43.164ZM2345.25 38.46H2342.47V36.99H2349.92V38.46H2347.13V47H2345.25V38.46ZM2351.69 36.99H2353.56V40.784H2354.96C2356.08 40.784 2356.96 41.036 2357.62 41.54C2358.28 42.044 2358.61 42.8047 2358.61 43.822V43.878C2358.61 44.9047 2358.28 45.684 2357.62 46.216C2356.96 46.7387 2356.06 47 2354.91 47H2351.69V36.99ZM2354.91 45.558C2356.17 45.558 2356.8 44.9933 2356.8 43.864V43.808C2356.8 42.6973 2356.17 42.142 2354.91 42.142H2353.56V45.558H2354.91ZM2367.34 47.14C2366.21 47.14 2365.32 46.8367 2364.65 46.23C2363.99 45.6233 2363.6 44.7973 2363.49 43.752H2365.27C2365.46 45.012 2366.15 45.642 2367.35 45.642C2367.98 45.642 2368.46 45.4973 2368.78 45.208C2369.11 44.9093 2369.27 44.494 2369.27 43.962C2369.27 43.4393 2369.13 43.066 2368.84 42.842C2368.55 42.6087 2368.06 42.492 2367.37 42.492H2366.23V41.204H2367.34C2368.4 41.204 2368.94 40.7093 2368.94 39.72C2368.94 39.272 2368.8 38.9313 2368.53 38.698C2368.26 38.4553 2367.87 38.334 2367.37 38.334C2366.83 38.334 2366.41 38.4693 2366.12 38.74C2365.84 39.0013 2365.65 39.4073 2365.53 39.958H2363.78C2363.91 38.95 2364.28 38.18 2364.9 37.648C2365.54 37.116 2366.38 36.85 2367.44 36.85C2368.44 36.85 2369.24 37.102 2369.86 37.606C2370.49 38.11 2370.8 38.768 2370.8 39.58C2370.8 40.1213 2370.66 40.588 2370.38 40.98C2370.1 41.372 2369.68 41.6473 2369.13 41.806C2369.8 41.9087 2370.31 42.156 2370.66 42.548C2371.01 42.9307 2371.19 43.4347 2371.19 44.06C2371.19 44.9747 2370.83 45.7167 2370.11 46.286C2369.4 46.8553 2368.48 47.14 2367.34 47.14ZM2375.66 36.99H2378.1L2381.4 47H2379.47L2378.67 44.522H2374.85L2374.06 47H2372.31L2375.66 36.99ZM2375.28 43.164H2378.24L2376.77 38.516L2375.28 43.164ZM2386.76 38.432C2386.14 38.432 2385.67 38.5533 2385.35 38.796C2385.03 39.0293 2384.87 39.426 2384.87 39.986V40.042C2384.87 41.1247 2385.51 41.666 2386.78 41.666H2388.18V38.432H2386.76ZM2384.29 47H2382.26L2385.24 42.688C2384.56 42.548 2384.02 42.2587 2383.63 41.82C2383.24 41.372 2383.04 40.7653 2383.04 40V39.944C2383.04 38.9453 2383.38 38.2033 2384.05 37.718C2384.72 37.2327 2385.63 36.99 2386.76 36.99H2390.04V47H2388.18V42.982H2386.99L2384.29 47ZM2392.61 36.99H2396.19C2398.37 36.99 2399.47 37.858 2399.47 39.594V39.65C2399.47 40.742 2398.94 41.4513 2397.88 41.778C2398.57 41.9273 2399.07 42.1933 2399.4 42.576C2399.72 42.9493 2399.89 43.472 2399.89 44.144V44.2C2399.89 45.124 2399.59 45.824 2399 46.3C2398.42 46.7667 2397.57 47 2396.46 47H2392.61V36.99ZM2396.23 45.67C2397.45 45.67 2398.05 45.138 2398.05 44.074V44.018C2398.05 43.486 2397.9 43.094 2397.59 42.842C2397.28 42.59 2396.79 42.464 2396.11 42.464H2394.43V45.67H2396.23ZM2395.97 41.204C2396.57 41.204 2397.01 41.0873 2397.27 40.854C2397.54 40.6207 2397.67 40.2473 2397.67 39.734V39.678C2397.67 39.202 2397.53 38.8567 2397.25 38.642C2396.97 38.4273 2396.54 38.32 2395.94 38.32H2394.43V41.204H2395.97ZM2401.9 36.99H2403.76V41.526L2407.59 36.976H2409.6L2405.45 41.764L2409.81 47H2407.61L2403.76 42.324V47H2401.9V36.99ZM2412.47 47.126C2412.07 47.126 2411.81 47.0747 2411.71 46.972V45.432C2411.93 45.488 2412.15 45.516 2412.35 45.516C2413.03 45.516 2413.55 45.138 2413.94 44.382L2410.53 36.99H2412.49L2414.82 42.324L2417.09 36.99H2418.88L2415.53 44.564C2415.14 45.432 2414.73 46.076 2414.29 46.496C2413.86 46.916 2413.25 47.126 2412.47 47.126Z" fill="#3A85F4"/>
<ellipse cx="2690" cy="42.9663" rx="23" ry="22.9663" fill="#EBF3FF"/>
<path fill-rule="evenodd" clip-rule="evenodd" d="M2683.34 53.3013C2692.65 49.0165 2705.62 57.3945 2705.62 57.3945V58.926C2699.74 65.9327 2686.1 69.0468 2677.29 62.0982C2677.89 59.516 2678.46 57.7683 2678.95 57.2218C2679 57.1666 2679.06 57.1103 2679.11 57.0532C2680.31 55.7331 2681.92 53.9555 2683.34 53.3013Z" fill="url(#paint0_linear_159_148)"/>
<path fill-rule="evenodd" clip-rule="evenodd" d="M2672.69 58.0799C2677.06 55.3579 2682.6 53.0894 2682.6 53.0894L2681.03 64.3764C2676.75 62.8193 2673.65 59.2705 2672.69 58.0799Z" fill="url(#paint1_linear_159_148)"/>
<path d="M2685.33 57.1862C2688.2 57.7477 2692.41 57.1491 2695.49 55.1192C2694.43 52.6829 2693.7 50.1126 2693.33 47.4795C2693.31 47.3892 2693.31 47.3019 2693.3 47.2173C2693.22 46.6371 2693.21 46.0501 2693.26 45.4673H2685.85C2685.85 45.4673 2683.82 46.3927 2683.82 47.0321C2683.82 47.3745 2683.82 47.7017 2683.81 48.0138C2683.8 48.8652 2683.76 49.6085 2683.72 50.2467C2683.67 51.2735 2683.54 52.2951 2683.34 53.3027C2683.34 53.3027 2682.43 56.619 2685.33 57.1862Z" fill="#FFDAC3"/>
<path d="M2683.72 50.2463C2689.33 51.3301 2692.59 48.265 2693.32 47.4791C2693.43 47.3664 2693.48 47.3 2693.48 47.3C2693.42 47.2701 2693.36 47.2437 2693.29 47.2168C2691.2 46.3715 2686.46 47.0438 2683.81 48.0134C2683.79 48.8648 2683.76 49.6081 2683.72 50.2463Z" fill="#F7C09B"/>
<path d="M2695.16 44.2504C2694.16 49.6443 2687.19 49.4671 2684.18 49.1281C2683.33 49.034 2682.79 48.9259 2682.79 48.9259C2681.84 48.6709 2681.31 47.1677 2681.06 45.1985C2680.57 41.3018 2681.19 35.5812 2681.85 34.1182C2682.84 31.9167 2684.71 29.5356 2691.73 31.2535C2698.75 32.9729 2696.45 37.3393 2695.16 44.2504Z" fill="#FFDAC3"/>
<path d="M2681.59 31.1084C2682.54 29.7822 2684.58 28.1617 2686.43 27.1637C2690.4 25.0196 2695.48 27.2312 2695.5 27.2404C2701.23 29.7575 2702.73 34.1376 2699.69 40.9604C2696.47 48.1753 2693.41 47.3636 2693.41 47.3636C2693.41 47.3636 2694.06 46.96 2694 44.7113C2694 44.5835 2693.99 44.4766 2693.99 44.3847C2693.97 44.1569 2694 43.9279 2694.09 43.7148C2694.17 43.5017 2694.3 43.3101 2694.47 43.1544C2695.18 42.5199 2695.53 40.6003 2694.93 40.066C2694.21 39.4213 2693.2 40.2043 2692.88 40.8066C2692.82 40.9106 2692.73 41.0008 2692.64 41.0717C2692.54 41.1425 2692.43 41.1925 2692.31 41.2185C2692.19 41.2446 2692.07 41.246 2691.95 41.2229C2691.83 41.1997 2691.72 41.1525 2691.62 41.084C2689.83 39.9575 2690.99 37.7046 2689.29 36.3261C2687.58 34.9479 2684.12 36.105 2681.57 35.0067C2678.22 33.7608 2680.86 32.1079 2681.59 31.1084Z" fill="url(#paint2_linear_159_148)"/>
<path fill-rule="evenodd" clip-rule="evenodd" d="M2703.53 54.78C2704.92 55.3358 2707.06 56.2462 2707.77 57.5564C2707.77 57.5564 2702.09 65.5435 2690.39 65.9327C2691.12 63.3582 2692.02 58.4299 2692.79 56.4599C2693.49 54.6638 2694.16 53.3847 2694.72 53.1107H2694.72C2694.72 53.1107 2696.21 52.6941 2697.62 53.3917C2699.44 53.6839 2703.17 54.6337 2703.53 54.78Z" fill="url(#paint3_linear_159_148)"/>
<path fill-rule="evenodd" clip-rule="evenodd" d="M2697.66 53.4214C2696.52 51.7928 2694.16 51.3801 2694.16 51.3801C2692.81 52.5546 2691.03 61.2692 2690 65.9325H2690.39C2692.87 61.5011 2697.66 53.4214 2697.66 53.4214Z" fill="white"/>
<path fill-rule="evenodd" clip-rule="evenodd" d="M2681.1 54.1439C2681.42 53.3344 2682.86 51.8698 2683.6 51.5886C2683.58 52.1684 2683.5 52.7439 2683.34 53.3027C2682.67 55.901 2681.76 61.2489 2681.03 64.3764L2681.1 54.1439Z" fill="white"/>
<circle cx="2710.15" cy="28.3713" r="7.66718" fill="#A6CE39"/>
<path d="M2709.01 32.6308L2705.89 29.4945L2707.28 28.0999L2709.01 29.8464L2713.87 24.9636L2715.26 26.3583L2709.01 32.6308Z" fill="white"/>
<path d="M2600.5 54C2599.05 53.9938 2597.88 52.9695 2597.86 51.7H2603.11C2603.11 52.0075 2603.05 52.3124 2602.91 52.597C2602.57 53.2893 2601.87 53.7943 2601.02 53.954H2601.02H2601H2600.98H2600.96C2600.81 53.9818 2600.66 53.9972 2600.5 54ZM2611 50.55H2590V48.25L2592.62 47.1V40.775C2592.56 39.1525 2592.97 37.5425 2593.84 36.106C2594.7 34.7737 2596.17 33.8277 2597.88 33.507V31H2603.12V33.507C2606.51 34.2131 2608.38 36.7937 2608.38 40.775V47.1L2611 48.25V50.55Z" fill="#B1CEFF"/>
<circle cx="2611" cy="53" r="7" fill="#FFCF27"/>
<path d="M2612.3 57H2610.75V51.0166L2608.9 51.5913V50.3291L2612.14 49.1689H2612.3V57Z" fill="white"/>
<path d="M2501.53 40.8333C2501.53 42.3761 2501.96 43.8359 2502.73 45.1353C2503.8 46.9506 2505.54 48.4529 2507.67 49.4315C2509.39 50.2183 2511.37 50.6665 2513.47 50.6665C2520.06 50.6665 2525.41 46.264 2525.41 40.8333C2525.41 35.4025 2520.06 31 2513.47 31C2506.87 31 2501.53 35.4025 2501.53 40.8333Z" fill="#B1CEFF"/>
<path d="M2507.67 49.4315C2506.45 49.3862 2503.54 49.4846 2501.7 50.241C2501.61 50.3041 2501.36 50.4207 2501.13 50.3829C2500.9 50.3451 2501.03 50.0204 2501.13 49.8628C2501.58 48.4446 2502.54 45.5135 2502.73 45.1353C2503.8 46.9506 2505.54 48.4529 2507.67 49.4315Z" fill="#B1CEFF"/>
<path d="M2530.27 53.7907L2530.27 53.791C2530.27 53.7931 2530.27 53.7929 2530.27 53.7907ZM2527.96 53.8905C2528.75 53.9715 2529.55 54.1181 2530.14 54.3519C2530.22 54.3977 2530.32 54.4418 2530.42 54.4757C2530.57 54.5203 2530.78 54.5653 2531.03 54.5252C2531.28 54.4837 2531.53 54.3308 2531.66 54.0514C2531.77 53.8247 2531.75 53.6106 2531.74 53.505C2531.71 53.3419 2531.65 53.1958 2531.6 53.0921C2531.42 52.5542 2531.17 51.768 2530.93 51.0713C2530.81 50.7078 2530.7 50.366 2530.6 50.0956C2530.57 50.0196 2530.55 49.9438 2530.52 49.8718C2531.05 48.8638 2531.35 47.7439 2531.35 46.5628C2531.35 41.9117 2526.83 38.376 2521.57 38.376C2516.31 38.376 2511.79 41.9117 2511.79 46.5628C2511.79 51.214 2516.31 54.7497 2521.57 54.7497C2523.21 54.7497 2524.76 54.412 2526.12 53.811C2526.57 53.8019 2527.24 53.8168 2527.96 53.8905Z" fill="#B1CEFF" stroke="#F9FBFF" stroke-width="1.5"/>
<circle cx="2534" cy="53" r="7" fill="#FFCF27"/>
<path d="M2535.3 57H2533.75V51.0166L2531.9 51.5913V50.3291L2535.14 49.1689H2535.3V57Z" fill="white"/>
<defs>
<linearGradient id="paint0_linear_159_148" x1="2681.54" y1="61.4289" x2="2690.6" y2="63.2556" gradientUnits="userSpaceOnUse">
<stop stop-color="#4498E8"/>
<stop offset="1" stop-color="#5BB2FB"/>
</linearGradient>
<linearGradient id="paint1_linear_159_148" x1="2677.65" y1="53.0894" x2="2677.65" y2="64.3764" gradientUnits="userSpaceOnUse">
<stop stop-color="#CFE6E6"/>
<stop offset="1" stop-color="white"/>
</linearGradient>
<linearGradient id="paint2_linear_159_148" x1="2685.41" y1="28.6949" x2="2696.74" y2="46.3771" gradientUnits="userSpaceOnUse">
<stop stop-color="#626262"/>
<stop offset="1" stop-color="#333333"/>
</linearGradient>
<linearGradient id="paint3_linear_159_148" x1="2699.08" y1="52.9873" x2="2699.08" y2="65.9327" gradientUnits="userSpaceOnUse">
<stop stop-color="#CFE6E6"/>
<stop offset="1" stop-color="white"/>
</linearGradient>
</defs>
</svg>
