<svg width="312" height="313" viewBox="0 0 312 313" fill="none" xmlns="http://www.w3.org/2000/svg">
<g filter="url(#filter0_d_73_5262)">
<rect x="23" y="15" width="266" height="267" rx="14" fill="white"/>
</g>
<path d="M235.97 113.401C228.71 95.0533 206.346 84.0503 187.405 91.3317C165.785 99.6429 172.953 133.8 153.315 140.707C142.707 144.438 127.025 130.501 116.307 128.363C96.5568 124.425 78.6776 138.267 74.275 157.434C69.7834 176.989 76.9874 203.107 98.6185 208.415C124.385 214.737 137.807 191.731 159.422 185.125C181.604 178.346 206.268 194.356 224.631 174.876C238.198 160.485 243.158 131.57 235.97 113.401Z" fill="url(#paint0_linear_73_5262)"/>
<path opacity="0.11" d="M181.702 84.3857H114.809C111.043 84.3857 107.99 87.4182 107.99 91.1588V113.317C102.654 114.831 98.7473 119.698 98.7473 125.471C98.7473 131.245 102.654 136.112 107.99 137.625V220.815C107.99 224.556 111.043 227.588 114.809 227.588H181.702C185.468 227.588 188.521 224.556 188.521 220.815V91.1588C188.521 87.4182 185.468 84.3857 181.702 84.3857Z" fill="#3A85F4"/>
<path d="M196.314 84.3856V214.042C196.314 217.783 193.261 220.815 189.495 220.815H122.602C118.836 220.815 115.783 217.783 115.783 214.042V84.3856C115.783 80.645 118.836 77.6125 122.602 77.6125H189.495C193.261 77.6125 196.314 80.645 196.314 84.3856Z" fill="white"/>
<path d="M196.314 95.0294V84.3856C196.314 80.645 193.261 77.6125 189.495 77.6125H122.602C118.836 77.6125 115.783 80.645 115.783 84.3856V95.0291L196.314 95.0294Z" fill="#D4EBFF"/>
<path d="M127.176 88.5094C128.178 88.5094 128.991 87.7022 128.991 86.7065C128.991 85.7108 128.178 84.9036 127.176 84.9036C126.173 84.9036 125.361 85.7108 125.361 86.7065C125.361 87.7022 126.173 88.5094 127.176 88.5094Z" fill="white"/>
<path d="M133.642 88.5094C134.645 88.5094 135.458 87.7022 135.458 86.7065C135.458 85.7108 134.645 84.9036 133.642 84.9036C132.64 84.9036 131.827 85.7108 131.827 86.7065C131.827 87.7022 132.64 88.5094 133.642 88.5094Z" fill="white"/>
<path d="M140.104 84.9036C141.106 84.9036 141.919 85.7109 141.919 86.7065C141.919 87.7021 141.106 88.5094 140.104 88.5094C139.101 88.5094 138.289 87.7021 138.289 86.7065C138.289 85.7109 139.101 84.9036 140.104 84.9036Z" fill="white"/>
<path d="M115.237 133.184C122.275 133.184 127.98 127.517 127.98 120.527C127.98 113.537 122.275 107.87 115.237 107.87C108.199 107.87 102.494 113.537 102.494 120.527C102.494 127.517 108.199 133.184 115.237 133.184Z" fill="#D4EBFF"/>
<path d="M154.341 158.009V187.959C154.341 189.315 153.598 190.414 152.681 190.414H144.381C143.465 190.414 142.721 189.315 142.721 187.959V158.009C142.721 156.653 143.465 155.554 144.381 155.554H152.681C153.598 155.554 154.341 156.653 154.341 158.009Z" fill="#D4EBFF"/>
<path d="M137.358 162.994V188.337C137.358 189.484 136.615 190.414 135.698 190.414H127.398C126.481 190.414 125.738 189.484 125.738 188.337V162.994C125.738 161.847 126.481 160.917 127.398 160.917H135.698C136.615 160.917 137.358 161.847 137.358 162.994Z" fill="#D4EBFF"/>
<path d="M170.431 148.226V188.803C170.431 190.186 169.687 191.308 168.771 191.308H160.471C159.554 191.308 158.811 190.186 158.811 188.803V148.226C158.811 146.843 159.554 145.721 160.471 145.721H168.771C169.687 145.721 170.431 146.843 170.431 148.226Z" fill="#D4EBFF"/>
<path d="M186.52 139.769V188.321C186.52 189.477 185.777 190.414 184.86 190.414H176.56C175.644 190.414 174.9 189.477 174.9 188.321V139.769C174.9 138.613 175.644 137.676 176.56 137.676H184.86C185.777 137.676 186.52 138.613 186.52 139.769Z" fill="#D4EBFF"/>
<path d="M144.144 106.381H168.01C168.791 106.381 169.508 105.862 169.661 105.102C169.871 104.065 169.078 103.155 168.072 103.155H144.083C143.076 103.155 142.284 104.065 142.493 105.102C142.646 105.862 143.364 106.381 144.144 106.381Z" fill="#5A5A5A"/>
<path d="M157.596 117.834H173.136C173.644 117.834 174.111 117.362 174.211 116.67C174.348 115.727 173.831 114.898 173.176 114.898H157.556C156.901 114.898 156.385 115.727 156.521 116.67C156.621 117.362 157.088 117.834 157.596 117.834Z" fill="#5A5A5A"/>
<path d="M135.93 111.963H158.593C159.334 111.963 160.015 111.49 160.161 110.799C160.36 109.855 159.607 109.027 158.651 109.027H135.872C134.917 109.027 134.164 109.855 134.363 110.799C134.508 111.49 135.189 111.963 135.93 111.963Z" fill="#5A5A5A"/>
<path d="M164.063 111.963H177.013C177.437 111.963 177.826 111.49 177.909 110.799C178.023 109.855 177.592 109.027 177.046 109.027H164.03C163.484 109.027 163.054 109.855 163.167 110.799C163.25 111.49 163.64 111.963 164.063 111.963Z" fill="#5A5A5A"/>
<path d="M139.678 117.834H152.628C153.051 117.834 153.44 117.362 153.524 116.67C153.637 115.727 153.207 114.898 152.661 114.898H139.644C139.098 114.898 138.668 115.727 138.782 116.67C138.865 117.362 139.254 117.834 139.678 117.834Z" fill="#5A5A5A"/>
<path d="M189.811 222.428H171.824C171.736 222.428 171.649 222.395 171.585 222.335C170.099 220.929 171.08 219.203 172.466 219.203H188.622C191.973 219.203 194.689 216.505 194.689 213.177V130.338C194.689 130.251 194.722 130.164 194.783 130.1C196.198 128.625 197.936 129.599 197.936 130.976V214.357C197.937 218.815 194.299 222.428 189.811 222.428Z" fill="#3A85F4"/>
<path d="M156.13 211.639C155.699 211.639 155.286 211.469 154.981 211.166L153.088 209.282C152.454 208.652 152.455 207.631 153.09 207.002C153.724 206.373 154.752 206.373 155.386 207.004L156.13 207.744L156.874 207.004C157.508 206.373 158.536 206.372 159.171 207.002C159.805 207.631 159.806 208.652 159.172 209.282L157.279 211.166C156.975 211.469 156.561 211.639 156.13 211.639Z" fill="#3A85F4"/>
<path d="M189.493 76H122.601C117.938 76 114.158 79.7546 114.158 84.3857V106.154C106.673 106.637 100.731 112.835 100.731 120.39C100.731 127.944 106.673 134.143 114.158 134.626V214.479C114.158 218.869 117.741 222.428 122.161 222.428H163.866C163.954 222.428 164.042 222.395 164.106 222.335C165.591 220.929 164.61 219.203 163.224 219.203H122.601C119.731 219.203 117.405 216.892 117.405 214.042V134.52C124.23 133.421 129.457 127.529 129.457 120.445C129.457 113.361 124.23 107.469 117.405 106.37V96.6418H194.689V121.832C194.689 122.608 195.212 123.321 195.978 123.472C197.021 123.679 197.936 122.894 197.936 121.898V84.358C197.936 79.7494 194.149 76 189.493 76ZM126.357 120.527C126.357 126.617 121.369 131.572 115.238 131.572C109.106 131.572 104.118 126.617 104.118 120.527C104.118 114.437 109.106 109.483 115.238 109.483C121.369 109.483 126.357 114.437 126.357 120.527ZM194.689 93.4165H117.405V84.3857C117.405 81.5356 119.731 79.2253 122.601 79.2253H189.494C192.363 79.2253 194.689 81.5356 194.689 84.3857L194.689 93.4165Z" fill="#3A85F4"/>
<path d="M120.984 150H146.333C147.854 150 158.187 141.455 159.261 140.519L164.304 136.132C164.663 135.82 165.139 135.648 165.646 135.648H180.234C181.755 135.648 183.215 135.122 184.291 134.186L190.464 128.815C190.822 128.503 191.308 128.328 191.816 128.328L200.015 128.328C200.934 128.328 201.779 127.792 201.96 127.008C202.206 125.939 201.272 125 200.087 125L191.783 125C190.261 125 188.802 125.526 187.727 126.462L181.553 131.833C181.195 132.145 180.708 132.32 180.201 132.32H165.663C164.142 132.32 162.683 132.846 161.608 133.782L156.581 138.155C156.223 138.467 146.835 146.672 146.328 146.672H120.912C119.727 146.672 118.793 147.611 119.039 148.681C119.22 149.465 120.065 150 120.984 150Z" fill="#3A85F4"/>
<path d="M210.296 100.512H209.302V99.5249C209.302 98.7499 208.78 98.0374 208.015 97.8849C206.971 97.6768 206.055 98.4645 206.055 99.464V100.512H205.061C204.281 100.512 203.564 101.031 203.41 101.791C203.201 102.828 203.994 103.737 205 103.737H206.055V104.725C206.055 105.5 206.578 106.212 207.343 106.365C208.386 106.573 209.302 105.785 209.302 104.786V103.737H210.358C211.364 103.737 212.157 102.828 211.948 101.791C211.794 101.031 211.077 100.512 210.296 100.512Z" fill="#D4EBFF"/>
<path d="M219.713 189.207H218.719V188.22C218.719 187.445 218.197 186.732 217.432 186.58C216.388 186.372 215.472 187.16 215.472 188.159V189.207H214.478C213.698 189.207 212.981 189.726 212.827 190.486C212.618 191.523 213.411 192.433 214.417 192.433H215.472V193.42C215.472 194.195 215.995 194.907 216.76 195.06C217.803 195.268 218.719 194.48 218.719 193.481V192.433H219.775C220.781 192.433 221.574 191.523 221.365 190.486C221.211 189.726 220.494 189.207 219.713 189.207Z" fill="#D4EBFF"/>
<path d="M212.178 175.88C211.705 175.88 211.229 175.809 210.764 175.666C209.555 175.292 208.564 174.473 207.975 173.359C207.386 172.246 207.268 170.971 207.644 169.77C208.02 168.569 208.845 167.585 209.966 167C211.087 166.414 212.371 166.298 213.58 166.671C214.79 167.045 215.781 167.864 216.37 168.977C216.959 170.091 217.076 171.366 216.7 172.567C216.324 173.768 215.499 174.752 214.378 175.337C213.688 175.697 212.936 175.88 212.178 175.88ZM212.173 169.684C211.536 169.684 210.944 170.092 210.745 170.727C210.627 171.106 210.664 171.508 210.849 171.859C211.035 172.21 211.347 172.468 211.729 172.586C212.514 172.828 213.355 172.391 213.6 171.609C213.718 171.23 213.681 170.829 213.495 170.478C213.31 170.127 212.998 169.868 212.616 169.751C212.469 169.705 212.32 169.684 212.173 169.684Z" fill="#D4EBFF"/>
<path d="M93.2438 155.06C92.7703 155.06 92.2949 154.989 91.8299 154.845C90.6207 154.472 89.6299 153.653 89.0409 152.539C88.4515 151.426 88.3343 150.151 88.7103 148.949C89.0864 147.748 89.9108 146.764 91.0321 146.179C92.153 145.594 93.4367 145.477 94.6462 145.851C97.1427 146.622 98.5426 149.267 97.7662 151.746C97.3902 152.948 96.5657 153.932 95.4444 154.517C94.7537 154.878 94.002 155.06 93.2438 155.06ZM93.236 148.863C92.997 148.863 92.7599 148.92 92.5424 149.034C92.1891 149.218 91.929 149.529 91.8104 149.907C91.5659 150.689 92.0069 151.523 92.7937 151.766C93.1753 151.883 93.5795 151.847 93.9328 151.662C94.2861 151.478 94.5462 151.168 94.6648 150.789C94.9093 150.007 94.4683 149.174 93.6812 148.93C93.535 148.885 93.3854 148.863 93.236 148.863Z" fill="#81C2FF"/>
<path d="M104.852 164.039C104.387 164.039 103.914 163.97 103.447 163.826C100.95 163.055 99.5505 160.41 100.327 157.93C100.703 156.729 101.527 155.745 102.649 155.16C103.77 154.574 105.054 154.458 106.263 154.831C107.472 155.205 108.463 156.024 109.052 157.137C109.642 158.251 109.759 159.526 109.383 160.727C108.752 162.743 106.874 164.039 104.852 164.039ZM104.853 157.843C104.614 157.843 104.377 157.901 104.16 158.015C103.806 158.199 103.546 158.509 103.428 158.888C103.183 159.67 103.624 160.504 104.411 160.746C105.197 160.988 106.037 160.551 106.282 159.77C106.401 159.391 106.363 158.989 106.178 158.638C105.992 158.287 105.68 158.029 105.298 157.911C105.152 157.866 105.002 157.843 104.853 157.843Z" fill="#81C2FF"/>
<path d="M114.061 113.385C114.512 112.007 116.462 112.007 116.913 113.385L117.72 115.854C117.922 116.47 118.497 116.887 119.146 116.887H121.738C123.193 116.887 123.796 118.752 122.616 119.604L120.536 121.104C120.007 121.486 119.785 122.167 119.988 122.787L120.787 125.228C121.238 126.608 119.661 127.76 118.483 126.91L116.365 125.381C115.841 125.003 115.133 125.003 114.609 125.381L112.491 126.91C111.313 127.76 109.736 126.608 110.187 125.228L110.986 122.787C111.189 122.167 110.967 121.486 110.438 121.104L108.358 119.604C107.178 118.752 107.781 116.887 109.236 116.887H111.828C112.477 116.887 113.052 116.47 113.254 115.854L114.061 113.385Z" fill="white"/>
<defs>
<filter id="filter0_d_73_5262" x="0" y="0" width="312" height="313" filterUnits="userSpaceOnUse" color-interpolation-filters="sRGB">
<feFlood flood-opacity="0" result="BackgroundImageFix"/>
<feColorMatrix in="SourceAlpha" type="matrix" values="0 0 0 0 0 0 0 0 0 0 0 0 0 0 0 0 0 0 127 0" result="hardAlpha"/>
<feOffset dy="8"/>
<feGaussianBlur stdDeviation="11.5"/>
<feColorMatrix type="matrix" values="0 0 0 0 0.170833 0 0 0 0 0.5025 0 0 0 0 1 0 0 0 0.2 0"/>
<feBlend mode="normal" in2="BackgroundImageFix" result="effect1_dropShadow_73_5262"/>
<feBlend mode="normal" in="SourceGraphic" in2="effect1_dropShadow_73_5262" result="shape"/>
</filter>
<linearGradient id="paint0_linear_73_5262" x1="148.557" y1="114.449" x2="165.865" y2="197.708" gradientUnits="userSpaceOnUse">
<stop stop-color="#77C2FE" stop-opacity="0"/>
<stop offset="1" stop-color="#77C2FE"/>
</linearGradient>
</defs>
</svg>
