<svg width="312" height="313" viewBox="0 0 312 313" fill="none" xmlns="http://www.w3.org/2000/svg">
<g filter="url(#filter0_d_73_5208)">
<rect x="23" y="15" width="266" height="267" rx="14" fill="white"/>
</g>
<path d="M129.569 57.0005C93.7922 57.1903 75.8304 118.709 69.1269 150.332C62.4234 181.955 69.428 246.827 121.424 238.221C129.829 236.83 131.791 236.545 138.719 233.068C151.051 226.879 165.645 222.524 178.834 221.21C184.241 220.671 191.08 218.886 194.699 218.235C223.719 213.017 253.336 184.907 244.37 155.452C237.636 133.332 217.908 124.427 198.151 125.651C187.301 126.324 175.754 119.96 173.438 112.93C165.896 90.0317 157.222 56.854 129.569 57.0005Z" fill="url(#paint0_linear_73_5208)"/>
<path opacity="0.1" d="M224.469 85.3723C227.542 85.3723 230.033 87.8631 230.033 90.9358V182.24C230.033 183.593 229.71 184.927 229.089 186.13L226.049 192.026C225.387 193.31 223.551 193.31 222.889 192.026L219.848 186.13C219.228 184.927 218.904 183.593 218.904 182.24V90.9358C218.904 87.8631 221.396 85.3723 224.469 85.3723Z" fill="#3A85F4"/>
<path opacity="0.1" d="M203.667 229.112H105.902C101.974 229.112 98.791 225.93 98.791 222.003V92.1262C98.791 88.1997 101.974 85.0168 105.902 85.0168H203.667C207.594 85.0168 210.778 88.1997 210.778 92.1262V222.003C210.778 225.929 207.594 229.112 203.667 229.112Z" fill="#3A85F4"/>
<path d="M203.667 219.515H105.901C101.974 219.515 98.7908 216.332 98.7908 212.406V82.5288C98.7908 78.6023 101.974 75.4194 105.901 75.4194H203.667C207.594 75.4194 210.777 78.6023 210.777 82.5288V212.406C210.777 216.332 207.594 219.515 203.667 219.515Z" fill="#D4EBFF"/>
<path fill-rule="evenodd" clip-rule="evenodd" d="M203.668 221.292H105.903C101.002 221.292 97.0144 217.306 97.0144 212.405V82.5286C97.0144 77.6284 101.002 73.6418 105.903 73.6418H151.156H203.668C208.569 73.6418 212.556 77.6284 212.556 82.5286V212.405C212.556 217.306 208.569 221.292 203.668 221.292ZM105.903 77.1965H151.156H203.668C206.609 77.1965 209.001 79.5885 209.001 82.5286V212.405C209.001 215.345 206.609 217.737 203.668 217.737H105.903C102.962 217.737 100.57 215.345 100.57 212.405V82.5286C100.57 79.5885 102.962 77.1965 105.903 77.1965Z" fill="#3A85F4"/>
<path d="M202.244 85.7293V209.205C202.244 210.189 201.448 210.982 200.466 210.982H179.332C178.424 210.982 180.013 210.982 179.332 210.982H130.299C129.619 210.982 130.979 210.982 130.299 210.982H109.102C108.121 210.982 107.324 210.189 107.324 209.205V85.7293C107.324 84.7446 108.121 83.9519 109.102 83.9519H130.299L179.269 83.9519L200.466 83.9519C201.448 83.9519 202.244 84.7446 202.244 85.7293Z" fill="white"/>
<path d="M90.7923 124.522H89.7257V123.455C89.7257 122.474 88.9297 121.678 87.9481 121.678C86.9665 121.678 86.1704 122.474 86.1704 123.455V124.522H85.1038C84.1222 124.522 83.3262 125.317 83.3262 126.299C83.3262 127.281 84.1222 128.076 85.1038 128.076H86.1704V129.143C86.1704 130.125 86.9665 130.92 87.9481 130.92C88.9297 130.92 89.7257 130.125 89.7257 129.143V128.076H90.7923C91.7739 128.076 92.57 127.281 92.57 126.299C92.57 125.317 91.7739 124.522 90.7923 124.522Z" fill="#81C2FF"/>
<path d="M225.896 206.743H224.829V205.677C224.829 204.695 224.033 203.9 223.052 203.9C222.07 203.9 221.274 204.695 221.274 205.677V206.743H220.207C219.226 206.743 218.43 207.539 218.43 208.521C218.43 209.503 219.226 210.298 220.207 210.298H221.274V211.364C221.274 212.346 222.07 213.142 223.052 213.142C224.033 213.142 224.829 212.346 224.829 211.364V210.298H225.896C226.877 210.298 227.673 209.503 227.673 208.521C227.673 207.539 226.877 206.743 225.896 206.743Z" fill="#D4EBFF"/>
<path d="M84.0365 140.411H82.9699V139.345C82.9699 138.363 82.1738 137.567 81.1922 137.567C80.2106 137.567 79.4146 138.363 79.4146 139.345V140.411H78.348C77.3663 140.411 76.5703 141.207 76.5703 142.188C76.5703 143.17 77.3663 143.966 78.348 143.966H79.4146V145.032C79.4146 146.014 80.2106 146.81 81.1922 146.81C82.1738 146.81 82.9699 146.014 82.9699 145.032V143.966H84.0365C85.0181 143.966 85.8141 143.17 85.8141 142.188C85.8141 141.207 85.0181 140.411 84.0365 140.411Z" fill="#D4EBFF"/>
<path d="M86.8818 83.5971C86.4268 83.5971 85.972 83.4236 85.6247 83.0763L84.0376 81.4895L82.4505 83.0763C81.7561 83.7705 80.6309 83.7705 79.9365 83.0763C79.2422 82.3824 79.2422 81.257 79.9365 80.5632L82.7808 77.7194C83.4751 77.0252 84.6004 77.0252 85.2947 77.7194L88.139 80.5632C88.8333 81.257 88.8333 82.3824 88.139 83.0763C87.7916 83.4236 87.3369 83.5971 86.8818 83.5971Z" fill="#D4EBFF"/>
<path d="M235.726 200.378C235.271 200.378 234.816 200.204 234.469 199.857L232.882 198.27L231.294 199.857C230.6 200.551 229.475 200.551 228.781 199.857C228.086 199.163 228.086 198.038 228.781 197.344L231.625 194.5C232.319 193.806 233.444 193.806 234.139 194.5L236.983 197.344C237.677 198.038 237.677 199.163 236.983 199.857C236.636 200.204 236.181 200.378 235.726 200.378Z" fill="#D4EBFF"/>
<path d="M195.125 138.233H114.59C113.608 138.233 112.812 137.437 112.812 136.456C112.812 135.474 113.608 134.678 114.59 134.678H195.125C196.107 134.678 196.903 135.474 196.903 136.456C196.903 137.437 196.107 138.233 195.125 138.233Z" fill="#5A5A5A"/>
<path d="M195.125 102.315H114.59C113.608 102.315 112.812 101.519 112.812 100.537C112.812 99.5556 113.608 98.7595 114.59 98.7595H195.125C196.107 98.7595 196.903 99.5556 196.903 100.537C196.903 101.519 196.107 102.315 195.125 102.315Z" fill="#5A5A5A"/>
<path d="M120.464 127.556H114.59C113.608 127.556 112.812 126.76 112.812 125.779C112.812 124.797 113.608 124.001 114.59 124.001H120.464C121.446 124.001 122.241 124.797 122.241 125.779C122.241 126.76 121.446 127.556 120.464 127.556Z" fill="#5A5A5A"/>
<path d="M158.159 141.611H114.666C113.738 141.611 112.909 142.289 112.821 143.213C112.72 144.274 113.551 145.166 114.59 145.166H158.159C159.141 145.166 159.937 144.37 159.937 143.388C159.937 142.406 159.141 141.611 158.159 141.611Z" fill="#5A5A5A"/>
<path d="M184.381 141.611H167.224C166.242 141.611 165.446 142.407 165.446 143.388C165.446 144.37 166.242 145.166 167.224 145.166H184.458C185.497 145.166 186.328 144.274 186.227 143.213C186.139 142.289 185.31 141.611 184.381 141.611Z" fill="#5A5A5A"/>
<path d="M158.159 105.692H114.666C113.738 105.692 112.909 106.371 112.821 107.295C112.72 108.355 113.551 109.247 114.59 109.247H158.159C159.141 109.247 159.937 108.451 159.937 107.47C159.937 106.488 159.141 105.692 158.159 105.692Z" fill="#5A5A5A"/>
<path d="M184.381 105.692H167.224C166.242 105.692 165.446 106.488 165.446 107.47C165.446 108.451 166.242 109.247 167.224 109.247H184.458C185.497 109.247 186.328 108.355 186.227 107.295C186.139 106.371 185.31 105.692 184.381 105.692Z" fill="#5A5A5A"/>
<path d="M195.125 152.099H114.59C113.608 152.099 112.812 151.302 112.812 150.321C112.812 149.339 113.608 148.543 114.59 148.543H195.125C196.107 148.543 196.903 149.339 196.903 150.321C196.903 151.302 196.107 152.099 195.125 152.099Z" fill="#5A5A5A"/>
<path d="M195.125 116.18H114.59C113.608 116.18 112.812 115.384 112.812 114.402C112.812 113.421 113.608 112.625 114.59 112.625H195.125C196.107 112.625 196.903 113.421 196.903 114.402C196.903 115.384 196.107 116.18 195.125 116.18Z" fill="#5A5A5A"/>
<path d="M195.125 175.142H114.59C113.608 175.142 112.812 174.346 112.812 173.365C112.812 172.383 113.608 171.587 114.59 171.587H195.125C196.107 171.587 196.903 172.383 196.903 173.365C196.903 174.346 196.107 175.142 195.125 175.142Z" fill="#5A5A5A"/>
<path d="M120.464 164.465H114.59C113.608 164.465 112.812 163.669 112.812 162.688C112.812 161.706 113.608 160.91 114.59 160.91H120.464C121.446 160.91 122.241 161.706 122.241 162.688C122.241 163.669 121.446 164.465 120.464 164.465Z" fill="#5A5A5A"/>
<path d="M158.159 178.52H114.666C113.738 178.52 112.909 179.198 112.821 180.123C112.72 181.183 113.551 182.075 114.59 182.075H158.159C159.141 182.075 159.937 181.279 159.937 180.297C159.937 179.316 159.141 178.52 158.159 178.52Z" fill="#5A5A5A"/>
<path d="M184.381 178.52H167.224C166.242 178.52 165.446 179.316 165.446 180.297C165.446 181.279 166.242 182.075 167.224 182.075H184.458C185.497 182.075 186.328 181.183 186.227 180.123C186.139 179.198 185.31 178.52 184.381 178.52Z" fill="#5A5A5A"/>
<path d="M195.125 189.008H114.59C113.608 189.008 112.812 188.212 112.812 187.23C112.812 186.248 113.608 185.452 114.59 185.452H195.125C196.107 185.452 196.903 186.248 196.903 187.23C196.903 188.212 196.107 189.008 195.125 189.008Z" fill="#5A5A5A"/>
<path d="M224.468 75.7747C227.541 75.7747 230.033 78.2654 230.033 81.3381V172.642C230.033 173.995 229.709 175.329 229.089 176.532L226.048 182.429C225.386 183.713 223.55 183.713 222.888 182.429L219.848 176.532C219.228 175.329 218.904 173.995 218.904 172.642V81.3381C218.904 78.2654 221.395 75.7747 224.468 75.7747Z" fill="white"/>
<path d="M218.904 160.104H230.032V165.122H218.904V160.104Z" fill="#D4EBFF"/>
<path d="M230.033 88.3998V81.3381C230.033 78.2654 227.541 75.7747 224.468 75.7747C221.395 75.7747 218.904 78.2654 218.904 81.3381V88.3998H230.033Z" fill="#D4EBFF"/>
<path fill-rule="evenodd" clip-rule="evenodd" d="M224.47 185.169C223.133 185.169 221.923 184.431 221.31 183.243L218.27 177.346C217.523 175.899 217.128 174.272 217.128 172.642V126.068L217.129 81.3382C217.129 77.2905 220.422 73.9978 224.471 73.9978C228.519 73.9978 231.813 77.2909 231.813 81.3382V172.642C231.813 174.271 231.418 175.898 230.671 177.346L227.631 183.243C227.018 184.431 225.807 185.169 224.47 185.169ZM220.684 172.642V126.068L220.684 81.3382C220.684 79.2506 222.383 77.5525 224.471 77.5525C226.559 77.5525 228.257 79.2506 228.257 81.3382V172.642C228.257 173.707 227.999 174.771 227.511 175.717L224.47 181.614L221.43 175.717C220.942 174.771 220.684 173.707 220.684 172.642Z" fill="#3A85F4"/>
<path d="M154.786 202.499C154.315 202.499 153.863 202.312 153.529 201.978L150.062 198.512C149.367 197.818 149.367 196.693 150.062 195.999C150.756 195.305 151.881 195.305 152.576 195.999L154.786 198.208L156.995 195.999C157.689 195.305 158.815 195.305 159.509 195.999C160.204 196.693 160.204 197.819 159.509 198.512L156.043 201.978C155.71 202.312 155.258 202.499 154.786 202.499Z" fill="#3A85F4"/>
<defs>
<filter id="filter0_d_73_5208" x="0" y="0" width="312" height="313" filterUnits="userSpaceOnUse" color-interpolation-filters="sRGB">
<feFlood flood-opacity="0" result="BackgroundImageFix"/>
<feColorMatrix in="SourceAlpha" type="matrix" values="0 0 0 0 0 0 0 0 0 0 0 0 0 0 0 0 0 0 127 0" result="hardAlpha"/>
<feOffset dy="8"/>
<feGaussianBlur stdDeviation="11.5"/>
<feColorMatrix type="matrix" values="0 0 0 0 0.170833 0 0 0 0 0.5025 0 0 0 0 1 0 0 0 0.2 0"/>
<feBlend mode="normal" in2="BackgroundImageFix" result="effect1_dropShadow_73_5208"/>
<feBlend mode="normal" in="SourceGraphic" in2="effect1_dropShadow_73_5208" result="shape"/>
</filter>
<linearGradient id="paint0_linear_73_5208" x1="67.0001" y1="148" x2="246" y2="148" gradientUnits="userSpaceOnUse">
<stop stop-color="#70BEFE" stop-opacity="0"/>
<stop offset="1" stop-color="#76C1FE"/>
</linearGradient>
</defs>
</svg>
