<svg width="312" height="313" viewBox="0 0 312 313" fill="none" xmlns="http://www.w3.org/2000/svg">
<g filter="url(#filter0_d_73_5096)">
<rect x="23" y="15" width="266" height="267" rx="14" fill="white"/>
</g>
<path d="M182.222 88.5674C181.781 88.5674 181.341 88.5713 180.902 88.5793C169.967 88.7773 159.429 84.8117 150.929 77.9467C143.392 71.8593 133.773 68.235 123.303 68.3032C99.4121 68.4588 79.722 88.5796 80.1174 112.409C80.2237 118.825 81.7274 124.903 84.3378 130.351C88.7854 139.635 87.8263 150.679 81.6462 158.917C79.0939 162.32 77.0049 166.155 75.5035 170.363C67.5029 192.788 79.3217 217.715 101.785 225.744C124.66 233.92 149.745 221.834 157.598 198.979C158.179 197.286 158.65 195.582 159.013 193.875C161.322 183.032 170.804 175.27 181.916 175.316C182.018 175.316 182.12 175.317 182.222 175.317C213.028 175.317 238 155.897 238 131.942C238 107.987 213.027 88.5674 182.222 88.5674Z" fill="url(#paint0_linear_73_5096)"/>
<path d="M136.729 88.6731H135.762V87.7087C135.762 86.8211 135.04 86.1013 134.15 86.1013C133.261 86.1013 132.539 86.8211 132.539 87.7087V88.6731H131.572C130.682 88.6731 129.961 89.3929 129.961 90.2804C129.961 91.168 130.682 91.8878 131.572 91.8878H132.539V92.8522C132.539 93.7398 133.261 94.4595 134.15 94.4595C135.04 94.4595 135.762 93.7398 135.762 92.8522V91.8878H136.729C137.618 91.8878 138.34 91.168 138.34 90.2804C138.34 89.3929 137.619 88.6731 136.729 88.6731Z" fill="#C4E2FF"/>
<path d="M178.154 196.915H177.188V195.95C177.188 195.063 176.466 194.343 175.576 194.343C174.686 194.343 173.965 195.063 173.965 195.95V196.915H172.998C172.108 196.915 171.387 197.634 171.387 198.522C171.387 199.409 172.108 200.129 172.998 200.129H173.965V201.094C173.965 201.981 174.686 202.701 175.576 202.701C176.466 202.701 177.188 201.981 177.188 201.094V200.129H178.154C179.044 200.129 179.766 199.409 179.766 198.522C179.766 197.634 179.044 196.915 178.154 196.915Z" fill="#81C2FF"/>
<path d="M103.768 196.915H102.801V195.95C102.801 195.063 102.079 194.343 101.189 194.343C100.3 194.343 99.5781 195.063 99.5781 195.95V196.915H98.6113C97.7216 196.915 97 197.634 97 198.522C97 199.409 97.7216 200.129 98.6113 200.129H99.5781V201.094C99.5781 201.981 100.3 202.701 101.189 202.701C102.079 202.701 102.801 201.981 102.801 201.094V200.129H103.768C104.657 200.129 105.379 199.409 105.379 198.522C105.379 197.634 104.657 196.915 103.768 196.915Z" fill="#81C2FF"/>
<path d="M191.6 207.312C191.187 207.312 190.775 207.155 190.46 206.841L189.021 205.406L187.583 206.841C186.953 207.469 185.933 207.469 185.304 206.841C184.675 206.214 184.675 205.196 185.304 204.568L187.882 201.997C188.512 201.369 189.532 201.369 190.161 201.997L192.739 204.568C193.368 205.196 193.368 206.214 192.739 206.841C192.425 207.155 192.012 207.312 191.6 207.312Z" fill="#81C2FF"/>
<path d="M121.641 86.2791C121.228 86.2791 120.816 86.1222 120.501 85.8084L119.062 84.3734L117.624 85.8084C116.994 86.4359 115.974 86.4359 115.345 85.8084C114.716 85.1806 114.716 84.1628 115.345 83.5353L117.923 80.9636C118.553 80.336 119.573 80.336 120.202 80.9636L122.78 83.5353C123.409 84.1631 123.409 85.1809 122.78 85.8084C122.466 86.1222 122.053 86.2791 121.641 86.2791Z" fill="#BCDFFF"/>
<path d="M141.996 178.682H166.927V210.527H141.996V178.682Z" fill="white"/>
<path opacity="0.1" d="M217.71 83.8066C210.642 83.8066 204.806 89.0521 203.891 95.8528H163.827C162.048 95.8528 160.604 97.293 160.604 99.0675V112.975H151.922C151.541 111.624 150.299 110.631 148.822 110.631H106.379C104.415 105.319 99.2962 101.532 93.2895 101.532C85.5863 101.532 79.3418 107.761 79.3418 115.445C79.3418 121.237 82.8903 126.201 87.9363 128.295V160.26C87.9363 162.034 89.3768 163.474 91.159 163.474H91.2833V185.288C91.2833 187.951 93.4477 190.11 96.1173 190.11H132.044V193.704C132.044 195.48 133.487 196.919 135.266 196.919H141.997V214.921H129.315C127.5 214.921 126.029 216.389 126.029 218.199C126.029 220.009 127.5 221.477 129.315 221.477H179.609C181.424 221.477 182.895 220.009 182.895 218.199C182.895 216.388 181.424 214.921 179.609 214.921H166.927V196.919H173.657C175.437 196.919 176.88 195.48 176.88 193.704V190.11H212.806C215.476 190.11 217.64 187.951 217.64 185.288V135.937H219.663C221.442 135.937 222.885 134.497 222.885 132.723V110.64C228.025 108.589 231.657 103.579 231.657 97.7202C231.657 90.0358 225.413 83.8066 217.71 83.8066Z" fill="#3A85F4"/>
<path d="M173.657 188.239H135.268C133.488 188.239 132.045 186.8 132.045 185.025V177.744H176.88V185.025C176.88 186.8 175.437 188.239 173.657 188.239Z" fill="white"/>
<path d="M212.806 181.432H96.1172C93.4475 181.432 91.2832 179.273 91.2832 176.61V109.119C91.2832 106.456 93.4475 104.297 96.1172 104.297H212.806C215.475 104.297 217.64 106.456 217.64 109.119V176.61C217.64 179.273 215.475 181.432 212.806 181.432Z" fill="#81C2FF"/>
<path d="M217.639 109.117V168.444H91.2852V109.117C91.2852 106.455 93.4476 104.295 96.1191 104.295H212.805C215.477 104.295 217.639 106.455 217.639 109.117Z" fill="white"/>
<path d="M179.61 212.797H129.315C127.5 212.797 126.029 211.33 126.029 209.52C126.029 207.709 127.5 206.242 129.315 206.242H179.61C181.424 206.242 182.895 207.709 182.895 209.52C182.896 211.33 181.425 212.797 179.61 212.797Z" fill="white"/>
<path d="M152.046 105.166V151.58C152.046 153.355 150.602 154.795 148.823 154.795H133.757L131.047 162.748C130.19 165.265 126.625 165.265 125.768 162.748L123.055 154.795H91.1602C89.378 154.795 87.9375 153.355 87.9375 151.58V105.166C87.9375 103.392 89.378 101.952 91.1602 101.952H148.823C150.602 101.952 152.046 103.392 152.046 105.166Z" fill="white"/>
<path d="M99.4492 145.919H142.841C143.731 145.919 144.452 145.199 144.452 144.311C144.452 143.424 143.731 142.704 142.841 142.704H99.4492C98.5591 142.704 97.8379 143.424 97.8379 144.311C97.8379 145.199 98.5591 145.919 99.4492 145.919Z" fill="#5A5A5A"/>
<path d="M99.4492 129.068H142.841C143.731 129.068 144.452 128.349 144.452 127.461C144.452 126.574 143.731 125.854 142.841 125.854H99.4492C98.5591 125.854 97.8379 126.574 97.8379 127.461C97.8379 128.349 98.5591 129.068 99.4492 129.068Z" fill="#5A5A5A"/>
<path d="M99.4492 134.695H142.841C143.731 134.695 144.452 133.975 144.452 133.088C144.452 132.2 143.731 131.48 142.841 131.48H99.4492C98.5591 131.48 97.8379 132.2 97.8379 133.088C97.8379 133.975 98.5591 134.695 99.4492 134.695Z" fill="#5A5A5A"/>
<path d="M126.881 117.816H142.839C143.73 117.816 144.451 117.096 144.451 116.208C144.451 115.321 143.73 114.601 142.839 114.601H126.881C125.991 114.601 125.27 115.321 125.27 116.208C125.27 117.096 125.991 117.816 126.881 117.816Z" fill="#5A5A5A"/>
<path d="M144.452 121.834C144.452 122.722 143.73 123.442 142.84 123.442H99.4473C98.5578 123.442 97.8359 122.722 97.8359 121.834C97.8359 120.947 98.5578 120.227 99.4473 120.227H142.84C143.73 120.227 144.452 120.947 144.452 121.834Z" fill="#5A5A5A"/>
<path d="M222.885 90.3883V124.043C222.885 125.818 221.441 127.258 219.662 127.258H186.33L183.617 135.211C182.759 137.725 179.195 137.725 178.338 135.211L175.628 127.258H163.826C162.047 127.258 160.604 125.818 160.604 124.043V90.3883C160.604 88.6138 162.047 87.1736 163.826 87.1736H219.662C221.441 87.1736 222.885 88.6138 222.885 90.3883Z" fill="white"/>
<path d="M93.2895 120.679C100.993 120.679 107.237 114.45 107.237 106.766C107.237 99.0815 100.993 92.8523 93.2895 92.8523C85.5864 92.8523 79.3418 99.0815 79.3418 106.766C79.3418 114.45 85.5864 120.679 93.2895 120.679Z" fill="#D4EBFF"/>
<path d="M207.961 147.311C208.851 147.311 209.572 146.591 209.572 145.703C209.572 144.816 208.851 144.096 207.961 144.096C207.071 144.096 206.35 144.816 206.35 145.703C206.35 146.591 207.071 147.311 207.961 147.311Z" fill="#5A5A5A"/>
<path d="M202.725 147.311C203.615 147.311 204.336 146.591 204.336 145.703C204.336 144.816 203.615 144.096 202.725 144.096C201.835 144.096 201.113 144.816 201.113 145.703C201.113 146.591 201.835 147.311 202.725 147.311Z" fill="#5A5A5A"/>
<path d="M192.502 153.113H208.461C209.351 153.113 210.072 152.393 210.072 151.506C210.072 150.618 209.351 149.898 208.461 149.898H192.502C191.612 149.898 190.891 150.618 190.891 151.506C190.891 152.393 191.612 153.113 192.502 153.113Z" fill="#5A5A5A"/>
<path d="M183.801 158.74H208.461C209.351 158.74 210.072 158.02 210.072 157.132C210.072 156.245 209.351 155.525 208.461 155.525H183.801C182.911 155.525 182.189 156.245 182.189 157.132C182.189 158.02 182.911 158.74 183.801 158.74Z" fill="#5A5A5A"/>
<path d="M217.709 102.953C225.412 102.953 231.657 96.7243 231.657 89.0402C231.657 81.3561 225.412 75.127 217.709 75.127C210.006 75.127 203.762 81.3561 203.762 89.0402C203.762 96.7243 210.006 102.953 217.709 102.953Z" fill="#D5EBFF"/>
<path d="M233.268 89.0404C233.268 80.4822 226.289 73.5198 217.709 73.5198C210.328 73.5198 204.135 78.6755 202.548 85.5653H163.827C161.162 85.5653 158.993 87.7284 158.993 90.3873V102.688H152.96C152.113 101.287 150.577 100.345 148.821 100.345H107.449C104.996 94.9831 99.574 91.245 93.2895 91.245C84.7101 91.245 77.7305 98.2074 77.7305 106.766C77.7305 112.827 81.2335 118.084 86.3243 120.638V151.581C86.3243 153.722 87.732 155.54 89.672 156.167V176.609C89.672 180.154 92.5634 183.038 96.1173 183.038H130.432V185.024C130.432 187.683 132.601 189.846 135.266 189.846H140.385V204.634H129.315C126.614 204.634 124.417 206.826 124.417 209.519C124.417 212.213 126.614 214.404 129.315 214.404H179.609C182.309 214.404 184.506 212.213 184.506 209.519C184.506 206.826 182.31 204.634 179.609 204.634H168.538V189.846H173.657C176.322 189.846 178.491 187.683 178.491 185.024V183.038H212.806C216.36 183.038 219.251 180.154 219.251 176.609V128.865H219.663C222.328 128.865 224.497 126.702 224.497 124.043V103.004C229.685 100.484 233.268 95.1724 233.268 89.0404ZM80.9534 106.766C80.9534 99.9803 86.4874 94.4597 93.2898 94.4597C100.092 94.4597 105.626 99.98 105.626 106.766C105.626 113.551 100.092 119.071 93.2898 119.071C86.4874 119.071 80.9534 113.551 80.9534 106.766ZM89.547 121.829C90.7465 122.126 91.9994 122.286 93.2895 122.286C101.869 122.286 108.848 115.324 108.848 106.766C108.848 105.667 108.731 104.595 108.513 103.56H148.821C149.709 103.56 150.432 104.281 150.432 105.167V151.581C150.432 152.467 149.709 153.188 148.821 153.188H133.757C133.067 153.188 132.454 153.626 132.232 154.278L129.52 162.231C129.269 162.97 128.604 163.027 128.406 163.027C128.209 163.027 127.544 162.97 127.292 162.231L124.58 154.278C124.358 153.626 123.745 153.188 123.055 153.188H91.1586C90.2701 153.188 89.5473 152.467 89.5473 151.581L89.547 121.829ZM166.927 207.849H179.609C180.533 207.849 181.284 208.598 181.284 209.519C181.284 210.44 180.533 211.19 179.609 211.19H129.315C128.391 211.19 127.64 210.44 127.64 209.519C127.64 208.598 128.391 207.849 129.315 207.849H157.065C157.955 207.849 158.677 207.129 158.677 206.242C158.677 205.354 157.955 204.634 157.065 204.634H143.608V189.847H165.316V206.242C165.316 207.129 166.037 207.849 166.927 207.849ZM175.268 185.025C175.268 185.911 174.545 186.632 173.657 186.632H135.267C134.378 186.632 133.655 185.911 133.655 185.025V183.038H175.268V185.025ZM221.274 124.043C221.274 124.93 220.552 125.651 219.663 125.651H186.329C185.64 125.651 185.026 126.089 184.804 126.74L182.093 134.694C181.841 135.433 181.176 135.49 180.978 135.49C180.78 135.49 180.116 135.433 179.864 134.694L177.153 126.74C176.931 126.089 176.317 125.651 175.627 125.651H163.827C162.939 125.651 162.216 124.93 162.216 124.043V104.611C162.216 103.724 161.494 103.004 160.605 103.004C159.715 103.004 158.993 103.724 158.993 104.611V124.043C158.993 126.702 161.162 128.865 163.827 128.865H174.473L176.813 135.729C177.429 137.537 179.064 138.705 180.978 138.705C182.892 138.705 184.527 137.537 185.144 135.729L187.483 128.865H216.029V176.609C216.029 178.382 214.583 179.824 212.806 179.824H96.1173C94.3404 179.824 92.8947 178.382 92.8947 176.609V156.403H121.901L124.241 163.267C124.857 165.075 126.492 166.242 128.406 166.242C130.32 166.242 131.955 165.075 132.572 163.267L134.911 156.403H148.821C151.486 156.403 153.655 154.24 153.655 151.581V105.903H160.604C161.214 105.903 161.773 105.558 162.046 105.014C162.158 104.79 162.216 104.545 162.216 104.295V90.3877C162.216 89.5014 162.939 88.7803 163.827 88.7803H202.157C202.156 88.8671 202.15 88.9533 202.15 89.0407C202.15 97.5989 209.13 104.561 217.709 104.561C218.936 104.561 220.129 104.414 221.274 104.145V124.043ZM217.71 101.346C210.908 101.346 205.373 95.826 205.373 89.0404C205.373 82.2548 210.907 76.7345 217.71 76.7345C224.512 76.7345 230.046 82.2548 230.046 89.0404C230.046 95.826 224.512 101.346 217.71 101.346Z" fill="#3A85F4"/>
<path d="M213.415 111.809H170.023C169.133 111.809 168.412 111.089 168.412 110.201C168.412 109.314 169.133 108.594 170.023 108.594H213.415C214.305 108.594 215.027 109.314 215.027 110.201C215.027 111.089 214.305 111.809 213.415 111.809Z" fill="#5A5A5A"/>
<path d="M213.415 117.435H170.023C169.133 117.435 168.412 116.716 168.412 115.828C168.412 114.94 169.133 114.221 170.023 114.221H213.415C214.305 114.221 215.027 114.94 215.027 115.828C215.027 116.716 214.305 117.435 213.415 117.435Z" fill="#5A5A5A"/>
<path d="M215.028 104.575C215.028 105.462 214.306 106.182 213.417 106.182H170.023C169.134 106.182 168.412 105.462 168.412 104.575C168.412 103.688 169.134 102.968 170.023 102.968H213.417C214.306 102.968 215.028 103.688 215.028 104.575Z" fill="#5A5A5A"/>
<path d="M185.984 100.556H170.025C169.135 100.556 168.414 99.836 168.414 98.9484C168.414 98.0608 169.135 97.3411 170.025 97.3411H185.984C186.874 97.3411 187.595 98.0608 187.595 98.9484C187.595 99.836 186.874 100.556 185.984 100.556Z" fill="#5A5A5A"/>
<path d="M214.507 203.029L218.015 199.522L228.66 210.166L225.152 213.674L214.507 203.029Z" fill="white"/>
<path d="M217.908 202.91C209.923 210.895 196.93 210.895 188.944 202.91C180.959 194.924 180.959 181.931 188.944 173.946C196.929 165.96 209.923 165.96 217.908 173.946C225.893 181.931 225.893 194.924 217.908 202.91Z" fill="#81C2FF"/>
<path d="M203.417 203.831C211.924 203.831 218.82 196.935 218.82 188.428C218.82 179.921 211.924 173.025 203.417 173.025C194.911 173.025 188.014 179.921 188.014 188.428C188.014 196.935 194.911 203.831 203.417 203.831Z" fill="white" fill-opacity="0.86"/>
<path d="M212.958 176.324L191.324 197.959C190.468 196.875 189.781 195.702 189.26 194.475L209.475 174.261C210.702 174.781 211.875 175.469 212.958 176.324Z" fill="white"/>
<path d="M218.691 186.385L201.384 203.692C198.274 203.28 195.265 201.919 192.832 199.611L214.61 177.833C216.919 180.265 218.28 183.274 218.691 186.385Z" fill="white"/>
<path d="M245.421 227.073L242.072 230.422C241.411 231.083 240.34 231.083 239.679 230.422L223.81 214.553C223.149 213.892 223.149 212.821 223.81 212.16L227.159 208.811C227.82 208.15 228.891 208.15 229.551 208.811L245.421 224.68C246.082 225.341 246.082 226.412 245.421 227.073Z" fill="white"/>
<path d="M237.034 227.776L239.68 230.422C240.341 231.083 241.412 231.083 242.072 230.422L245.422 227.073C246.082 226.412 246.082 225.341 245.422 224.68L242.776 222.034L237.034 227.776Z" fill="#81C2FF"/>
<path d="M226.124 216.881L231.865 211.14L235.654 214.929L229.913 220.67L226.124 216.881Z" fill="#81C2FF"/>
<path d="M202.245 194.029C201.716 194.029 201.288 193.601 201.288 193.072V191.921C201.288 191.178 201.483 190.444 201.851 189.799C202.415 188.812 203.366 188.079 204.46 187.79C206.131 187.348 207.298 185.831 207.298 184.1C207.298 183.061 206.888 182.089 206.143 181.365C205.398 180.64 204.415 180.258 203.373 180.286C201.374 180.341 199.711 182.013 199.667 184.013C199.658 184.431 199.715 184.842 199.837 185.235C199.994 185.74 199.712 186.276 199.208 186.433C198.703 186.59 198.167 186.308 198.01 185.803C197.826 185.212 197.74 184.595 197.753 183.971C197.821 180.916 200.267 178.457 203.32 178.372C204.885 178.33 206.359 178.904 207.477 179.992C208.596 181.081 209.212 182.54 209.212 184.1C209.212 186.699 207.459 188.977 204.949 189.64C204.348 189.799 203.824 190.203 203.513 190.748C203.309 191.105 203.202 191.51 203.202 191.92V193.072C203.202 193.601 202.773 194.029 202.245 194.029Z" fill="#5A5A5A"/>
<path d="M202.245 197.703C201.716 197.703 201.288 197.274 201.288 196.746V196.726C201.288 196.197 201.716 195.769 202.245 195.769C202.773 195.769 203.202 196.197 203.202 196.726V196.746C203.202 197.275 202.773 197.703 202.245 197.703Z" fill="#5A5A5A"/>
<path fill-rule="evenodd" clip-rule="evenodd" d="M246.099 224.004L230.731 208.636C229.756 207.661 229.049 207.406 228.817 207.4C228.666 207.374 228.513 207.358 228.357 207.358C228.024 207.358 227.702 207.421 227.401 207.538L220.822 200.959C226.862 192.585 226.118 180.8 218.587 173.269C210.228 164.91 196.627 164.91 188.27 173.269C184.227 177.312 182 182.695 182 188.427C182 194.16 184.227 199.543 188.27 203.586C192.449 207.765 197.938 209.855 203.428 209.855C207.831 209.855 212.233 208.509 215.959 205.821L222.538 212.4C222.422 212.701 222.359 213.024 222.359 213.356C222.359 214.064 222.634 214.729 223.135 215.229L228.817 220.912L239.004 231.099C239.504 231.599 240.17 231.875 240.877 231.875C241.585 231.875 242.25 231.599 242.75 231.099L246.099 227.75C247.132 226.717 247.132 225.037 246.099 224.004ZM183.914 188.427C183.914 193.649 185.941 198.551 189.623 202.233C197.235 209.845 209.621 209.845 217.233 202.233C224.845 194.621 224.845 182.235 217.233 174.623C213.427 170.816 208.427 168.913 203.428 168.913C198.428 168.913 193.429 170.816 189.623 174.622C185.941 178.304 183.914 183.206 183.914 188.427ZM219.625 202.47C219.294 202.851 218.949 203.224 218.586 203.586C218.224 203.948 217.851 204.294 217.47 204.625L223.731 210.887L225.887 208.731L219.625 202.47ZM241.396 229.746L244.746 226.396C245.032 226.11 245.032 225.644 244.746 225.358L228.876 209.488C228.737 209.349 228.553 209.273 228.356 209.273C228.16 209.273 227.976 209.349 227.837 209.488L224.488 212.837C224.349 212.976 224.272 213.16 224.272 213.357C224.272 213.553 224.349 213.737 224.488 213.876L240.357 229.746C240.635 230.023 241.119 230.023 241.396 229.746Z" fill="#3A85F4"/>
<ellipse cx="218.034" cy="87.9376" rx="4.93234" ry="4.93762" fill="#3A85F4"/>
<path fill-rule="evenodd" clip-rule="evenodd" d="M210 100.018C210.212 97.7121 211.244 94.8908 214.268 93.7729C215.394 94.6135 218.458 95.7902 221.711 93.7729C223.114 94.2385 225.553 96.0003 226.02 99.6202C223.696 101.3 220.844 102.293 217.761 102.302H217.679C214.847 102.294 212.211 101.456 210 100.018Z" fill="#3A85F4"/>
<ellipse cx="93.0339" cy="104.938" rx="4.93234" ry="4.93762" fill="#3A85F4"/>
<path fill-rule="evenodd" clip-rule="evenodd" d="M85 117.018C85.2122 114.712 86.2437 111.891 89.2684 110.773C90.3937 111.613 93.4577 112.79 96.7107 110.773C98.1138 111.239 100.553 113 101.02 116.62C98.6958 118.3 95.8439 119.293 92.7607 119.302H92.6786C89.8475 119.294 87.2113 118.456 85 117.018Z" fill="#3A85F4"/>
<defs>
<filter id="filter0_d_73_5096" x="0" y="0" width="312" height="313" filterUnits="userSpaceOnUse" color-interpolation-filters="sRGB">
<feFlood flood-opacity="0" result="BackgroundImageFix"/>
<feColorMatrix in="SourceAlpha" type="matrix" values="0 0 0 0 0 0 0 0 0 0 0 0 0 0 0 0 0 0 127 0" result="hardAlpha"/>
<feOffset dy="8"/>
<feGaussianBlur stdDeviation="11.5"/>
<feColorMatrix type="matrix" values="0 0 0 0 0.170833 0 0 0 0 0.5025 0 0 0 0 1 0 0 0 0.2 0"/>
<feBlend mode="normal" in2="BackgroundImageFix" result="effect1_dropShadow_73_5096"/>
<feBlend mode="normal" in="SourceGraphic" in2="effect1_dropShadow_73_5096" result="shape"/>
</filter>
<linearGradient id="paint0_linear_73_5096" x1="198.424" y1="209.062" x2="79.6574" y2="72.2528" gradientUnits="userSpaceOnUse">
<stop stop-color="#5EB6FE" stop-opacity="0"/>
<stop offset="1" stop-color="#5FB6FE"/>
</linearGradient>
</defs>
</svg>
