<svg width="312" height="313" viewBox="0 0 312 313" fill="none" xmlns="http://www.w3.org/2000/svg">
<g filter="url(#filter0_d_73_5159)">
<rect x="23" y="15" width="266" height="267" rx="14" fill="white"/>
</g>
<path d="M235.046 63.6158C212.656 50.261 183.683 51.0024 161.693 64.6849C149.338 72.3722 139.788 83.4594 128.958 93.004C119.468 101.367 108.433 107.333 98.6322 115.224C63.0885 143.842 66.48 221.031 116.529 231.284C138.225 235.728 167.876 237.154 180.628 215.941C192.786 195.715 196.864 175.025 220.619 164.282C228.898 160.537 242.735 160.726 248.343 152.522C255.421 142.168 246.639 131.413 241.955 122.39C235.918 110.763 234.652 99.2991 238.9 86.8263C242.516 76.2053 245.063 71.4342 235.046 63.6158Z" fill="url(#paint0_linear_73_5159)"/>
<path opacity="0.1" d="M204.856 162.027C190.334 162.027 177.922 171.067 172.926 183.831C172.892 183.819 172.86 183.8 172.824 183.79L153.635 178.167C154.784 174.736 155.408 171.064 155.408 167.245C155.408 158.381 152.051 150.302 146.54 144.212L167.48 129.957C167.505 129.94 167.524 129.918 167.548 129.899C173.829 137.79 183.509 142.847 194.371 142.847C213.304 142.847 228.653 127.483 228.653 108.529C228.653 89.5759 213.304 74.2112 194.371 74.2112C175.438 74.2112 160.09 89.5759 160.09 108.529C160.09 115.351 162.078 121.707 165.506 127.05H165.505L144.324 141.47C144.217 141.542 144.122 141.627 144.037 141.717C137.965 136.253 129.934 132.926 121.127 132.926C102.194 132.926 86.8455 148.291 86.8455 167.245C86.8455 186.198 102.194 201.563 121.127 201.563C135.005 201.563 146.957 193.306 152.35 181.433C152.413 181.459 152.473 181.49 152.54 181.51L171.819 187.158C171.009 190.083 170.574 193.163 170.574 196.346C170.574 215.299 185.923 230.664 204.856 230.664C223.789 230.664 239.137 215.299 239.137 196.346C239.137 177.392 223.789 162.027 204.856 162.027Z" fill="#3A85F4"/>
<path d="M194.372 134.41C213.305 134.41 228.654 119.045 228.654 100.092C228.654 81.1384 213.305 65.7737 194.372 65.7737C175.439 65.7737 160.091 81.1384 160.091 100.092C160.091 119.045 175.439 134.41 194.372 134.41Z" fill="#D4EBFF"/>
<path d="M121.127 193.125C140.06 193.125 155.408 177.76 155.408 158.807C155.408 139.854 140.06 124.489 121.127 124.489C102.194 124.489 86.8455 139.854 86.8455 158.807C86.8455 177.76 102.194 193.125 121.127 193.125Z" fill="#D4EBFF"/>
<path d="M204.857 222.226C223.79 222.226 239.139 206.861 239.139 187.908C239.139 168.955 223.79 153.59 204.857 153.59C185.924 153.59 170.576 168.955 170.576 187.908C170.576 206.861 185.924 222.226 204.857 222.226Z" fill="#D4EBFF"/>
<path d="M127.552 103.782C126.582 103.782 125.796 102.995 125.796 102.025C125.796 100.861 124.851 99.9153 123.689 99.9153C122.719 99.9153 121.933 99.1281 121.933 98.1575C121.933 97.1868 122.719 96.3997 123.689 96.3997C124.851 96.3997 125.796 95.4536 125.796 94.2903C125.796 93.3196 126.582 92.5325 127.552 92.5325C128.522 92.5325 129.308 93.3196 129.308 94.2903C129.308 95.4536 130.253 96.3997 131.415 96.3997C132.385 96.3997 133.171 97.1868 133.171 98.1575C133.171 99.1281 132.385 99.9153 131.415 99.9153C130.253 99.9153 129.308 100.861 129.308 102.025C129.308 102.995 128.522 103.782 127.552 103.782Z" fill="#81C2FF"/>
<path d="M232.441 140.111C231.472 140.111 230.686 139.324 230.686 138.353C230.686 137.19 229.741 136.244 228.578 136.244C227.608 136.244 226.823 135.457 226.823 134.486C226.823 133.515 227.608 132.728 228.578 132.728C229.741 132.728 230.686 131.782 230.686 130.619C230.686 129.648 231.472 128.861 232.441 128.861C233.411 128.861 234.197 129.648 234.197 130.619C234.197 131.782 235.142 132.728 236.305 132.728C237.275 132.728 238.06 133.515 238.06 134.486C238.06 135.457 237.275 136.244 236.305 136.244C235.142 136.244 234.197 137.19 234.197 138.353C234.197 139.324 233.411 140.111 232.441 140.111Z" fill="#D4EBFF"/>
<path d="M139.114 212.431C138.144 212.431 137.358 211.644 137.358 210.673C137.358 209.51 136.413 208.563 135.251 208.563C134.281 208.563 133.495 207.776 133.495 206.806C133.495 205.835 134.281 205.048 135.251 205.048C136.413 205.048 137.358 204.102 137.358 202.938C137.358 201.968 138.144 201.181 139.114 201.181C140.084 201.181 140.87 201.968 140.87 202.938C140.87 204.102 141.815 205.048 142.977 205.048C143.947 205.048 144.733 205.835 144.733 206.806C144.733 207.776 143.947 208.563 142.977 208.563C141.815 208.563 140.87 209.51 140.87 210.673C140.87 211.644 140.084 212.431 139.114 212.431Z" fill="#81C2FF"/>
<path d="M140.542 113.978C140.093 113.978 139.643 113.806 139.3 113.463L135.437 109.596C134.751 108.909 134.751 107.796 135.437 107.11L139.3 103.243C139.985 102.556 141.098 102.556 141.783 103.243L145.646 107.11C146.332 107.797 146.332 108.91 145.646 109.596L141.783 113.463C141.441 113.806 140.991 113.978 140.542 113.978ZM139.162 108.353L140.542 109.734L141.922 108.353L140.542 106.971L139.162 108.353Z" fill="#D4EBFF"/>
<path d="M159.27 217.097C158.821 217.097 158.371 216.925 158.028 216.582L154.165 212.715C153.479 212.028 153.479 210.915 154.165 210.229L158.028 206.362C158.714 205.676 159.826 205.676 160.511 206.362L164.374 210.229C165.06 210.916 165.06 212.029 164.374 212.715L160.511 216.582C160.169 216.925 159.719 217.097 159.27 217.097ZM157.89 211.472L159.27 212.853L160.65 211.472L159.27 210.091L157.89 211.472Z" fill="#9ED0FF"/>
<path d="M66.6189 181.25C66.1697 181.25 65.7199 181.078 65.3775 180.735L61.5144 176.868C60.8285 176.181 60.8285 175.068 61.5144 174.382L65.3775 170.515C66.0626 169.828 67.1752 169.828 67.8603 170.515L71.7234 174.382C72.4093 175.068 72.4093 176.182 71.7234 176.868L67.8603 180.735C67.5179 181.078 67.0684 181.25 66.6189 181.25ZM65.2394 175.625L66.6193 177.006L67.9991 175.625L66.6193 174.243L65.2394 175.625Z" fill="#81C2FF"/>
<path d="M145.5 134L166 120" stroke="#5A5A5A" stroke-width="3"/>
<path fill-rule="evenodd" clip-rule="evenodd" d="M121.127 194.884C135.77 194.884 148.401 186.095 154.033 173.51C154.279 173.009 154.879 171.651 155.315 170.223C156.514 166.633 157.165 162.795 157.165 158.808C157.165 149.591 153.693 141.172 147.991 134.788C147.706 134.464 146.201 132.957 145.483 132.243C139.065 126.34 130.509 122.731 121.127 122.731C101.256 122.731 85.0894 138.915 85.0894 158.807C85.0897 178.7 101.256 194.884 121.127 194.884ZM164.065 119.593C164.656 120.431 165.891 122.177 166.111 122.452C172.717 130.801 182.93 136.168 194.372 136.168C202.949 136.168 211.259 133.1 217.771 127.528C224.209 122.02 228.521 114.405 229.911 106.086C230.071 105.128 229.425 104.222 228.469 104.062C227.515 103.903 226.607 104.548 226.447 105.506C225.193 113.011 221.301 119.883 215.489 124.856C209.613 129.884 202.113 132.652 194.372 132.652C176.437 132.652 161.846 118.046 161.846 100.092C161.846 82.1381 176.437 67.5317 194.372 67.5317C210.127 67.5317 223.588 78.7786 226.379 94.2741C226.551 95.2296 227.463 95.8635 228.419 95.6919C229.373 95.5197 230.008 94.6056 229.836 93.65C226.742 76.479 211.828 64.0161 194.371 64.0161C174.5 64.0161 158.334 80.1996 158.334 100.092C158.334 107.271 160.44 113.967 164.065 119.593ZM168.819 187.908C168.819 184.6 169.265 181.351 170.132 178.227C170.239 177.608 170.917 175.744 171.242 174.889C172.28 172.207 173.639 169.642 175.315 167.246C175.871 166.45 176.966 166.257 177.761 166.813C178.555 167.37 178.748 168.466 178.192 169.261C174.358 174.745 172.331 181.193 172.331 187.908C172.331 205.862 186.922 220.469 204.857 220.469C222.791 220.469 237.382 205.862 237.382 187.908C237.382 169.954 222.791 155.348 204.857 155.348C198.094 155.348 191.609 157.406 186.105 161.301C185.314 161.861 184.218 161.673 183.658 160.88C183.098 160.087 183.286 158.99 184.078 158.43C190.178 154.114 197.363 151.832 204.856 151.832C224.728 151.832 240.894 168.016 240.894 187.908C240.894 207.801 224.728 223.984 204.856 223.984C184.985 223.984 168.819 207.801 168.819 187.908ZM121.127 126.247C139.062 126.247 153.653 140.853 153.653 158.807C153.653 176.761 139.062 191.368 121.127 191.368C103.193 191.368 88.6016 176.761 88.6016 158.807C88.6016 140.854 103.193 126.247 121.127 126.247Z" fill="#3A85F4"/>
<ellipse cx="194.357" cy="99.5" rx="26.4717" ry="26.5" fill="white"/>
<ellipse cx="120.436" cy="158.5" rx="26.4717" ry="26.5" fill="white"/>
<ellipse cx="204.346" cy="187.5" rx="26.4717" ry="26.5" fill="white"/>
<ellipse cx="204.915" cy="187.209" rx="9.19945" ry="9.2093" fill="#3A85F4"/>
<path fill-rule="evenodd" clip-rule="evenodd" d="M189.945 209.739C190.342 205.438 192.266 200.178 197.906 198.093C200.005 199.661 205.72 201.855 211.787 198.093C214.404 198.961 218.954 202.248 219.824 209.001C215.476 212.143 210.136 213.996 204.365 214H204.33C199.025 213.997 194.086 212.431 189.945 209.739Z" fill="#3A85F4"/>
<ellipse cx="120.923" cy="158.209" rx="9.19945" ry="9.2093" fill="#3A85F4"/>
<path fill-rule="evenodd" clip-rule="evenodd" d="M105.953 180.739C106.35 176.438 108.274 171.178 113.914 169.093C116.013 170.661 121.728 172.855 127.795 169.093C130.412 169.961 134.962 173.248 135.832 180.001C131.484 183.143 126.144 184.996 120.373 185H120.338C115.033 184.997 110.094 183.431 105.953 180.739Z" fill="#3A85F4"/>
<ellipse cx="194.843" cy="99.2093" rx="9.19945" ry="9.2093" fill="#3A85F4"/>
<path fill-rule="evenodd" clip-rule="evenodd" d="M179.873 121.738C180.269 117.438 182.193 112.178 187.834 110.093C189.933 111.661 195.647 113.855 201.715 110.093C204.332 110.961 208.882 114.248 209.751 121.002C205.403 124.144 200.064 125.996 194.293 126H194.257C188.953 125.997 184.013 124.431 179.873 121.738Z" fill="#3A85F4"/>
<path d="M154.5 172L170.5 177" stroke="#5A5A5A" stroke-width="3"/>
<defs>
<filter id="filter0_d_73_5159" x="0" y="0" width="312" height="313" filterUnits="userSpaceOnUse" color-interpolation-filters="sRGB">
<feFlood flood-opacity="0" result="BackgroundImageFix"/>
<feColorMatrix in="SourceAlpha" type="matrix" values="0 0 0 0 0 0 0 0 0 0 0 0 0 0 0 0 0 0 127 0" result="hardAlpha"/>
<feOffset dy="8"/>
<feGaussianBlur stdDeviation="11.5"/>
<feColorMatrix type="matrix" values="0 0 0 0 0.170833 0 0 0 0 0.5025 0 0 0 0 1 0 0 0 0.2 0"/>
<feBlend mode="normal" in2="BackgroundImageFix" result="effect1_dropShadow_73_5159"/>
<feBlend mode="normal" in="SourceGraphic" in2="effect1_dropShadow_73_5159" result="shape"/>
</filter>
<linearGradient id="paint0_linear_73_5159" x1="74.9846" y1="144" x2="251" y2="144" gradientUnits="userSpaceOnUse">
<stop stop-color="#6EBDFE" stop-opacity="0"/>
<stop offset="1" stop-color="#6EBDFE"/>
</linearGradient>
</defs>
</svg>
