<svg width="329" height="40" viewBox="0 0 329 40" fill="none" xmlns="http://www.w3.org/2000/svg">
<rect width="329" height="40" rx="20" fill="#3A85F4"/>
<path d="M48.1163 26H45.9117V17.1157H41.6417V26H39.4444V15.3359H48.1163V26ZM52.5472 22.2427V26H50.3499V15.3359H54.5101C55.3108 15.3359 56.014 15.4824 56.6194 15.7754C57.2298 16.0684 57.6985 16.4858 58.0257 17.0278C58.3528 17.5649 58.5164 18.1777 58.5164 18.8662C58.5164 19.9111 58.1575 20.7363 57.4397 21.3418C56.7269 21.9424 55.7381 22.2427 54.4734 22.2427H52.5472ZM52.5472 20.4629H54.5101C55.0911 20.4629 55.533 20.3262 55.8357 20.0527C56.1434 19.7793 56.2972 19.3887 56.2972 18.8809C56.2972 18.3584 56.1434 17.936 55.8357 17.6138C55.5281 17.2915 55.1033 17.1255 54.5613 17.1157H52.5472V20.4629ZM66.7485 21.3784H62.5298V24.2349H67.481V26H60.3325V15.3359H67.4663V17.1157H62.5298V19.6572H66.7485V21.3784ZM78.9577 28.6221H76.9289V26H70.4982V28.6147H68.4182L68.301 24.2349H69.1066C69.5412 23.8735 69.8757 23.3438 70.1101 22.6455C70.3493 21.9424 70.5105 21.0732 70.5935 20.0381L70.9011 15.3359H77.8884V24.2349H79.1335L78.9577 28.6221ZM71.6262 24.2349H75.6911V17.1157H72.9885L72.8054 19.9209C72.6589 21.8008 72.2658 23.2388 71.6262 24.2349ZM89.3798 15.3359V26H87.1752V17.1157H84.3334L84.1576 20.8804C84.0844 22.1499 83.9232 23.1509 83.6742 23.8833C83.4252 24.6108 83.0614 25.1455 82.5829 25.4873C82.1044 25.8242 81.4501 25.9951 80.62 26H80.0487V24.2349L80.4149 24.1982C80.9667 24.125 81.3598 23.8076 81.5941 23.2461C81.8334 22.6797 81.9848 21.6738 82.0482 20.2285L82.2313 15.3359H89.3798ZM100.358 20.9097C100.358 21.9595 100.173 22.8799 99.8019 23.6709C99.4308 24.4619 98.8985 25.0723 98.2052 25.502C97.5167 25.9316 96.7257 26.1465 95.8321 26.1465C94.9483 26.1465 94.1598 25.9341 93.4664 25.5093C92.773 25.0845 92.2359 24.479 91.8551 23.6929C91.4742 22.9019 91.2813 21.9937 91.2765 20.9683V20.4409C91.2765 19.3911 91.4645 18.4683 91.8404 17.6724C92.2213 16.8716 92.756 16.2588 93.4444 15.834C94.1378 15.4043 94.9288 15.1895 95.8175 15.1895C96.7062 15.1895 97.4947 15.4043 98.1832 15.834C98.8766 16.2588 99.4112 16.8716 99.7872 17.6724C100.168 18.4683 100.358 19.3887 100.358 20.4336V20.9097ZM98.1319 20.4263C98.1319 19.3081 97.9317 18.4585 97.5313 17.8774C97.131 17.2964 96.5597 17.0059 95.8175 17.0059C95.0802 17.0059 94.5113 17.2939 94.1109 17.8701C93.7105 18.4414 93.5079 19.2812 93.503 20.3896V20.9097C93.503 21.9985 93.7032 22.8433 94.1036 23.4438C94.504 24.0444 95.0802 24.3447 95.8321 24.3447C96.5694 24.3447 97.1358 24.0566 97.5313 23.4805C97.9269 22.8994 98.1271 22.0547 98.1319 20.9463V20.4263ZM111.088 21.6567H109.821V26H107.624V21.6567H106.327L104.006 26H101.266L104.592 20.2798L101.428 15.3359H104.159L106.533 19.6353H107.624V15.3359H109.821V19.6353H110.89L113.205 15.3359H115.929L112.824 20.2725L116.098 26H113.351L111.088 21.6567ZM123.759 15.3359H125.963V26H123.759V18.9175L119.489 26H117.292V15.3359H119.489V22.4331L123.759 15.3359ZM135.975 17.1157H132.709V26H130.511V17.1157H127.289V15.3359H135.975V17.1157ZM139.85 19.1812H141.563C142.818 19.1812 143.812 19.4863 144.544 20.0967C145.282 20.7021 145.65 21.52 145.65 22.5503C145.65 23.5854 145.284 24.418 144.552 25.0479C143.824 25.6729 142.855 25.9902 141.644 26H137.638V15.3359H139.85V19.1812ZM139.85 20.9536V24.2349H141.6C142.162 24.2349 142.608 24.0811 142.94 23.7734C143.277 23.4658 143.446 23.0532 143.446 22.5356C143.446 22.0522 143.285 21.6714 142.962 21.3931C142.645 21.1099 142.208 20.9634 141.651 20.9536H139.85ZM159.749 22.4478C159.666 23.5952 159.241 24.4985 158.474 25.1577C157.713 25.8169 156.707 26.1465 155.457 26.1465C154.09 26.1465 153.013 25.6875 152.227 24.7695C151.446 23.8467 151.055 22.582 151.055 20.9756V20.3237C151.055 19.2983 151.236 18.395 151.597 17.6138C151.958 16.8325 152.473 16.2344 153.142 15.8193C153.816 15.3994 154.597 15.1895 155.486 15.1895C156.717 15.1895 157.708 15.519 158.46 16.1782C159.212 16.8374 159.646 17.7627 159.763 18.9541H157.566C157.513 18.2656 157.32 17.7676 156.988 17.46C156.66 17.1475 156.16 16.9912 155.486 16.9912C154.754 16.9912 154.204 17.2549 153.838 17.7822C153.477 18.3047 153.291 19.1177 153.282 20.2212V21.0269C153.282 22.1792 153.455 23.0215 153.802 23.5537C154.153 24.0859 154.705 24.3521 155.457 24.3521C156.136 24.3521 156.641 24.1982 156.973 23.8906C157.31 23.5781 157.503 23.0972 157.552 22.4478H159.749ZM170.251 20.9097C170.251 21.9595 170.066 22.8799 169.695 23.6709C169.324 24.4619 168.792 25.0723 168.098 25.502C167.41 25.9316 166.619 26.1465 165.725 26.1465C164.841 26.1465 164.053 25.9341 163.359 25.5093C162.666 25.0845 162.129 24.479 161.748 23.6929C161.367 22.9019 161.174 21.9937 161.169 20.9683V20.4409C161.169 19.3911 161.357 18.4683 161.733 17.6724C162.114 16.8716 162.649 16.2588 163.337 15.834C164.031 15.4043 164.822 15.1895 165.71 15.1895C166.599 15.1895 167.388 15.4043 168.076 15.834C168.77 16.2588 169.304 16.8716 169.68 17.6724C170.061 18.4683 170.251 19.3887 170.251 20.4336V20.9097ZM168.025 20.4263C168.025 19.3081 167.825 18.4585 167.424 17.8774C167.024 17.2964 166.453 17.0059 165.71 17.0059C164.973 17.0059 164.404 17.2939 164.004 17.8701C163.604 18.4414 163.401 19.2812 163.396 20.3896V20.9097C163.396 21.9985 163.596 22.8433 163.997 23.4438C164.397 24.0444 164.973 24.3447 165.725 24.3447C166.462 24.3447 167.029 24.0566 167.424 23.4805C167.82 22.8994 168.02 22.0547 168.025 20.9463V20.4263ZM179.546 17.1157H176.279V26H174.082V17.1157H170.859V15.3359H179.546V17.1157ZM183.303 22.2427V26H181.105V15.3359H185.266C186.066 15.3359 186.769 15.4824 187.375 15.7754C187.985 16.0684 188.454 16.4858 188.781 17.0278C189.108 17.5649 189.272 18.1777 189.272 18.8662C189.272 19.9111 188.913 20.7363 188.195 21.3418C187.482 21.9424 186.494 22.2427 185.229 22.2427H183.303ZM183.303 20.4629H185.266C185.847 20.4629 186.288 20.3262 186.591 20.0527C186.899 19.7793 187.053 19.3887 187.053 18.8809C187.053 18.3584 186.899 17.936 186.591 17.6138C186.284 17.2915 185.859 17.1255 185.317 17.1157H183.303V20.4629ZM195.087 20.375L197.028 15.3359H199.401L195.673 24.1323L195.373 24.7109C194.821 25.6729 193.976 26.1538 192.838 26.1538L192.069 26.1245L192.047 24.3594C192.165 24.3789 192.355 24.3887 192.619 24.3887C192.926 24.3887 193.173 24.335 193.358 24.2275C193.549 24.1201 193.708 23.9224 193.835 23.6343L194.106 22.9385L190.363 15.3359H192.729L195.087 20.375ZM210.153 28.6221H208.124V26H201.693V28.6147H199.613L199.496 24.2349H200.302C200.736 23.8735 201.071 23.3438 201.305 22.6455C201.544 21.9424 201.705 21.0732 201.788 20.0381L202.096 15.3359H209.083V24.2349H210.328L210.153 28.6221ZM202.821 24.2349H206.886V17.1157H204.183L204 19.9209C203.854 21.8008 203.461 23.2388 202.821 24.2349ZM220.465 26H218.268V21.4297H213.983V26H211.786V15.3359H213.983V19.6572H218.268V15.3359H220.465V26ZM229.085 15.3359H231.29V26H229.085V18.9175L224.815 26H222.618V15.3359H224.815V22.4331L229.085 15.3359ZM241.8 15.3359V26H239.595V21.957C238.926 22.0986 238.228 22.1694 237.5 22.1694C236.148 22.1694 235.12 21.874 234.417 21.2832C233.719 20.6924 233.36 19.8379 233.34 18.7197V15.3359H235.545V18.6758C235.55 19.2861 235.696 19.7256 235.984 19.9941C236.277 20.2627 236.783 20.397 237.5 20.397C238.228 20.397 238.926 20.3262 239.595 20.1846V15.3359H241.8ZM250.435 21.3784H246.216V24.2349H251.167V26H244.019V15.3359H251.152V17.1157H246.216V19.6572H250.435V21.3784ZM261.128 22.4478C261.045 23.5952 260.62 24.4985 259.853 25.1577C259.092 25.8169 258.086 26.1465 256.836 26.1465C255.469 26.1465 254.392 25.6875 253.606 24.7695C252.825 23.8467 252.434 22.582 252.434 20.9756V20.3237C252.434 19.2983 252.615 18.395 252.976 17.6138C253.337 16.8325 253.852 16.2344 254.521 15.8193C255.195 15.3994 255.976 15.1895 256.865 15.1895C258.096 15.1895 259.087 15.519 259.839 16.1782C260.591 16.8374 261.025 17.7627 261.142 18.9541H258.945C258.891 18.2656 258.699 17.7676 258.367 17.46C258.039 17.1475 257.539 16.9912 256.865 16.9912C256.133 16.9912 255.583 17.2549 255.217 17.7822C254.856 18.3047 254.67 19.1177 254.66 20.2212V21.0269C254.66 22.1792 254.834 23.0215 255.18 23.5537C255.532 24.0859 256.084 24.3521 256.836 24.3521C257.514 24.3521 258.02 24.1982 258.352 23.8906C258.689 23.5781 258.882 23.0972 258.93 22.4478H261.128ZM270.678 17.1157H267.412V26H265.214V17.1157H261.992V15.3359H270.678V17.1157ZM272.238 26V15.3359H275.973C277.267 15.3359 278.249 15.585 278.918 16.083C279.587 16.5762 279.921 17.3013 279.921 18.2583C279.921 18.7808 279.787 19.2422 279.518 19.6426C279.25 20.0381 278.876 20.3286 278.398 20.5142C278.945 20.6509 279.374 20.9268 279.687 21.3418C280.004 21.7568 280.163 22.2646 280.163 22.8652C280.163 23.8906 279.836 24.667 279.181 25.1943C278.527 25.7217 277.594 25.9902 276.383 26H272.238ZM274.435 21.3564V24.2349H276.318C276.835 24.2349 277.238 24.1128 277.526 23.8687C277.819 23.6196 277.966 23.2778 277.966 22.8433C277.966 21.8667 277.46 21.3711 276.449 21.3564H274.435ZM274.435 19.8037H276.061C277.17 19.7842 277.724 19.3423 277.724 18.478C277.724 17.9946 277.582 17.6479 277.299 17.438C277.021 17.2231 276.579 17.1157 275.973 17.1157H274.435V19.8037ZM290.878 20.9097C290.878 21.9595 290.692 22.8799 290.321 23.6709C289.95 24.4619 289.418 25.0723 288.725 25.502C288.036 25.9316 287.245 26.1465 286.351 26.1465C285.468 26.1465 284.679 25.9341 283.986 25.5093C283.292 25.0845 282.755 24.479 282.374 23.6929C281.994 22.9019 281.801 21.9937 281.796 20.9683V20.4409C281.796 19.3911 281.984 18.4683 282.36 17.6724C282.741 16.8716 283.275 16.2588 283.964 15.834C284.657 15.4043 285.448 15.1895 286.337 15.1895C287.225 15.1895 288.014 15.4043 288.703 15.834C289.396 16.2588 289.931 16.8716 290.307 17.6724C290.687 18.4683 290.878 19.3887 290.878 20.4336V20.9097ZM288.651 20.4263C288.651 19.3081 288.451 18.4585 288.051 17.8774C287.65 17.2964 287.079 17.0059 286.337 17.0059C285.6 17.0059 285.031 17.2939 284.63 17.8701C284.23 18.4414 284.027 19.2812 284.022 20.3896V20.9097C284.022 21.9985 284.223 22.8433 284.623 23.4438C285.023 24.0444 285.6 24.3447 286.351 24.3447C287.089 24.3447 287.655 24.0566 288.051 23.4805C288.446 22.8994 288.646 22.0547 288.651 20.9463V20.4263Z" fill="white"/>
</svg>
