<svg width="600" height="95" viewBox="0 0 600 95" fill="none" xmlns="http://www.w3.org/2000/svg">
<path d="M2.62 16.16C2.34 16.16 2.14 16.1333 2.02 16.08L1.84 16V14.42L2.02 14.46C2.20667 14.4867 2.40667 14.5 2.62 14.5C3.19333 14.5 3.68 14.3533 4.08 14.06C4.48 13.7667 4.84 13.2867 5.16 12.62L0.4 1.7H2.22L6.04 10.62L9.92 1.7H11.56L6.74 12.62C6.24667 13.7667 5.69333 14.6467 5.08 15.26C4.48 15.86 3.66 16.16 2.62 16.16ZM14.1692 11.96C14.0226 13.1867 13.7959 14.0667 13.4892 14.6H18.3892V6.9H14.5492C14.4826 8.52667 14.3559 10.2133 14.1692 11.96ZM12.0892 18.54H10.7492V14.6H11.4892C11.8626 14.5067 12.1226 14.24 12.2692 13.8C12.4159 13.3467 12.5426 12.7 12.6492 11.86C12.7692 10.78 12.8826 9.42 12.9892 7.78C13.0426 7.04667 13.0826 6.3 13.1092 5.54H20.0092V14.6H21.6092V18.54H20.2692L20.1492 16H12.2092L12.0892 18.54ZM28.0741 14.8C29.1141 14.8 29.9407 14.44 30.5541 13.72C31.1807 13 31.4941 12.0467 31.4941 10.86V10.72C31.4941 9.50667 31.1807 8.54 30.5541 7.82C29.9407 7.1 29.1141 6.74 28.0741 6.74C27.0207 6.74 26.1874 7.1 25.5741 7.82C24.9607 8.54 24.6541 9.5 24.6541 10.7V10.86C24.6541 12.0733 24.9541 13.0333 25.5541 13.74C26.1674 14.4467 27.0074 14.8 28.0741 14.8ZM28.0541 16.18C26.5741 16.18 25.3474 15.68 24.3741 14.68C23.4141 13.6667 22.9341 12.3933 22.9341 10.86V10.7C22.9341 9.14 23.4141 7.86 24.3741 6.86C25.3474 5.86 26.5807 5.36 28.0741 5.36C29.5674 5.36 30.7941 5.86 31.7541 6.86C32.7274 7.84667 33.2141 9.12 33.2141 10.68V10.84C33.2141 12.4133 32.7274 13.7 31.7541 14.7C30.7807 15.6867 29.5474 16.18 28.0541 16.18ZM40.1644 16.18C38.591 16.18 37.3444 15.6733 36.4244 14.66C35.5044 13.6467 35.0444 12.1067 35.0444 10.04V9.4C35.0444 8.41333 35.0844 7.54 35.1644 6.78C35.2444 6.00667 35.411 5.23333 35.6644 4.46C35.9177 3.67333 36.251 3.02 36.6644 2.5C37.0777 1.98 37.6377 1.54667 38.3444 1.2C39.0644 0.853333 39.911 0.653333 40.8844 0.599999L41.2844 0.579999C42.751 0.5 43.7444 0.353333 44.2644 0.139999L44.4844 1.54C43.8044 1.83333 42.7444 2.01333 41.3044 2.08L41.0044 2.1C39.391 2.18 38.2377 2.70667 37.5444 3.68C36.8644 4.64 36.4644 6.13333 36.3444 8.16H36.4244C36.7844 7.42667 37.3177 6.84667 38.0244 6.42C38.7444 5.98 39.5777 5.76 40.5244 5.76C41.9777 5.76 43.1377 6.23333 44.0044 7.18C44.8844 8.11333 45.3244 9.32667 45.3244 10.82V10.9C45.3244 12.5133 44.8377 13.8 43.8644 14.76C42.9044 15.7067 41.671 16.18 40.1644 16.18ZM37.6644 13.78C38.2777 14.46 39.1177 14.8 40.1844 14.8C41.251 14.8 42.0844 14.4667 42.6844 13.8C43.2977 13.12 43.6044 12.16 43.6044 10.92V10.88C43.6044 9.72 43.3244 8.80667 42.7644 8.14C42.2177 7.47333 41.4177 7.14 40.3644 7.14C39.2577 7.14 38.3777 7.48667 37.7244 8.18C37.0844 8.87333 36.7644 9.82 36.7644 11.02V11.06C36.7644 12.1933 37.0644 13.1 37.6644 13.78ZM54.7105 11.34H49.5705V16H47.9105V5.54H49.5705V9.94H54.7105V5.54H56.3705V16H54.7105V11.34ZM68.7269 5.54H70.3869V16H68.7269V5.54ZM59.7269 5.54H61.3869V9.2H63.2469C64.4335 9.2 65.3935 9.46667 66.1269 10C66.8735 10.5333 67.2469 11.3733 67.2469 12.52V12.58C67.2469 13.7133 66.8735 14.5667 66.1269 15.14C65.3802 15.7133 64.4202 16 63.2469 16H59.7269V5.54ZM63.3469 14.68C64.1335 14.68 64.7002 14.5133 65.0469 14.18C65.4069 13.8333 65.5869 13.3 65.5869 12.58V12.52C65.5869 11.8533 65.4135 11.3533 65.0669 11.02C64.7202 10.6733 64.1469 10.5 63.3469 10.5H61.3869V14.68H63.3469ZM78.0503 3.62C77.3303 3.62 76.717 3.37333 76.2103 2.88C75.7036 2.37333 75.437 1.74 75.4103 0.979999H76.8503C76.9303 1.96667 77.3303 2.46 78.0503 2.46C78.837 2.46 79.277 1.96667 79.3703 0.979999H80.7703C80.717 1.74 80.4303 2.37333 79.9103 2.88C79.4036 3.37333 78.7836 3.62 78.0503 3.62ZM73.7503 16V5.54H75.4103V13.6L80.7503 5.54H82.4103V16H80.7503V7.94L75.4103 16H73.7503ZM95.3197 16.18C93.8264 16.18 92.5997 15.7 91.6397 14.74C90.6797 13.7667 90.1997 12.48 90.1997 10.88V10.72C90.1997 9.14667 90.6864 7.86 91.6597 6.86C92.6464 5.86 93.853 5.36 95.2797 5.36C96.4797 5.36 97.4997 5.66 98.3397 6.26C99.1797 6.84667 99.673 7.76667 99.8197 9.02H98.1797C97.9397 7.5 96.973 6.74 95.2797 6.74C94.3064 6.74 93.4997 7.10667 92.8597 7.84C92.233 8.56 91.9197 9.52 91.9197 10.72V10.88C91.9197 12.1333 92.2264 13.1 92.8397 13.78C93.4664 14.46 94.2997 14.8 95.3397 14.8C96.1264 14.8 96.7997 14.58 97.3597 14.14C97.933 13.6867 98.2597 13.0533 98.3397 12.24H99.8797C99.773 13.3867 99.293 14.3333 98.4397 15.08C97.5997 15.8133 96.5597 16.18 95.3197 16.18ZM106.666 16.18C105.173 16.18 103.953 15.6933 103.006 14.72C102.073 13.7467 101.606 12.4667 101.606 10.88V10.72C101.606 9.14667 102.059 7.86 102.966 6.86C103.886 5.86 105.066 5.36 106.506 5.36C107.839 5.36 108.953 5.79333 109.846 6.66C110.753 7.51333 111.206 8.81333 111.206 10.56V11.1H103.326C103.406 13.5667 104.526 14.8 106.686 14.8C108.326 14.8 109.253 14.1933 109.466 12.98H111.126C110.939 14.02 110.453 14.8133 109.666 15.36C108.879 15.9067 107.879 16.18 106.666 16.18ZM109.506 9.76C109.359 7.74667 108.359 6.74 106.506 6.74C105.666 6.74 104.973 7.00667 104.426 7.54C103.879 8.07333 103.533 8.81333 103.386 9.76H109.506ZM113.753 5.54H115.413V7.3C115.72 6.76667 116.2 6.31333 116.853 5.94C117.506 5.55333 118.206 5.36 118.953 5.36C120.353 5.36 121.493 5.83333 122.373 6.78C123.266 7.72667 123.713 9.00667 123.713 10.62V10.78C123.713 12.3933 123.273 13.7 122.393 14.7C121.526 15.6867 120.38 16.18 118.953 16.18C117.353 16.18 116.173 15.5467 115.413 14.28V19.64H113.753V5.54ZM118.793 14.8C119.833 14.8 120.626 14.4667 121.173 13.8C121.72 13.12 121.993 12.14 121.993 10.86V10.7C121.993 9.43333 121.686 8.46 121.073 7.78C120.473 7.08667 119.706 6.74 118.773 6.74C117.76 6.74 116.933 7.08 116.293 7.76C115.666 8.42667 115.353 9.40667 115.353 10.7V10.86C115.353 12.1533 115.66 13.1333 116.273 13.8C116.9 14.4667 117.74 14.8 118.793 14.8ZM126.172 5.54H129.832C132.286 5.54 133.512 6.42667 133.512 8.2V8.26C133.512 8.76667 133.372 9.23333 133.092 9.66C132.812 10.0733 132.392 10.3533 131.832 10.5C133.286 10.82 134.012 11.6067 134.012 12.86V12.92C134.012 13.9333 133.679 14.7 133.012 15.22C132.359 15.74 131.446 16 130.272 16H126.172V5.54ZM127.832 6.86V9.96H129.832C130.526 9.96 131.019 9.83333 131.312 9.58C131.619 9.32667 131.772 8.91333 131.772 8.34V8.28C131.772 7.74667 131.612 7.38 131.292 7.18C130.986 6.96667 130.492 6.86 129.812 6.86H127.832ZM127.832 11.28V14.68H130.112C130.846 14.68 131.386 14.5533 131.732 14.3C132.092 14.0333 132.272 13.6067 132.272 13.02V12.96C132.272 12.3733 132.092 11.9467 131.732 11.68C131.386 11.4133 130.846 11.28 130.112 11.28H127.832ZM136.66 16V5.54H138.32V13.6L143.66 5.54H145.32V16H143.66V7.94L138.32 16H136.66ZM152.937 16.18C151.444 16.18 150.217 15.7 149.257 14.74C148.297 13.7667 147.817 12.48 147.817 10.88V10.72C147.817 9.14667 148.304 7.86 149.277 6.86C150.264 5.86 151.47 5.36 152.897 5.36C154.097 5.36 155.117 5.66 155.957 6.26C156.797 6.84667 157.29 7.76667 157.437 9.02H155.797C155.557 7.5 154.59 6.74 152.897 6.74C151.924 6.74 151.117 7.10667 150.477 7.84C149.85 8.56 149.537 9.52 149.537 10.72V10.88C149.537 12.1333 149.844 13.1 150.457 13.78C151.084 14.46 151.917 14.8 152.957 14.8C153.744 14.8 154.417 14.58 154.977 14.14C155.55 13.6867 155.877 13.0533 155.957 12.24H157.497C157.39 13.3867 156.91 14.3333 156.057 15.08C155.217 15.8133 154.177 16.18 152.937 16.18ZM158.848 17.9L160.768 13.52L162.388 14.28L159.928 18.46L158.848 17.9ZM172.52 10.66V16H170.86V5.54H172.52V10.42L176.86 5.54H178.8L174.32 10.46L179.18 16H177.16L172.52 10.66ZM185.262 14.8C186.302 14.8 187.128 14.44 187.742 13.72C188.368 13 188.682 12.0467 188.682 10.86V10.72C188.682 9.50667 188.368 8.54 187.742 7.82C187.128 7.1 186.302 6.74 185.262 6.74C184.208 6.74 183.375 7.1 182.762 7.82C182.148 8.54 181.842 9.5 181.842 10.7V10.86C181.842 12.0733 182.142 13.0333 182.742 13.74C183.355 14.4467 184.195 14.8 185.262 14.8ZM185.242 16.18C183.762 16.18 182.535 15.68 181.562 14.68C180.602 13.6667 180.122 12.3933 180.122 10.86V10.7C180.122 9.14 180.602 7.86 181.562 6.86C182.535 5.86 183.768 5.36 185.262 5.36C186.755 5.36 187.982 5.86 188.942 6.86C189.915 7.84667 190.402 9.12 190.402 10.68V10.84C190.402 12.4133 189.915 13.7 188.942 14.7C187.968 15.6867 186.735 16.18 185.242 16.18ZM199.801 6.94H196.421V16H194.761V6.94H191.381V5.54H199.801V6.94ZM206.18 14.8C207.22 14.8 208.046 14.44 208.66 13.72C209.286 13 209.6 12.0467 209.6 10.86V10.72C209.6 9.50667 209.286 8.54 208.66 7.82C208.046 7.1 207.22 6.74 206.18 6.74C205.126 6.74 204.293 7.1 203.68 7.82C203.066 8.54 202.76 9.5 202.76 10.7V10.86C202.76 12.0733 203.06 13.0333 203.66 13.74C204.273 14.4467 205.113 14.8 206.18 14.8ZM206.16 16.18C204.68 16.18 203.453 15.68 202.48 14.68C201.52 13.6667 201.04 12.3933 201.04 10.86V10.7C201.04 9.14 201.52 7.86 202.48 6.86C203.453 5.86 204.686 5.36 206.18 5.36C207.673 5.36 208.9 5.86 209.86 6.86C210.833 7.84667 211.32 9.12 211.32 10.68V10.84C211.32 12.4133 210.833 13.7 209.86 14.7C208.886 15.6867 207.653 16.18 206.16 16.18ZM213.89 5.54H215.55V7.3C215.857 6.76667 216.337 6.31333 216.99 5.94C217.643 5.55333 218.343 5.36 219.09 5.36C220.49 5.36 221.63 5.83333 222.51 6.78C223.403 7.72667 223.85 9.00667 223.85 10.62V10.78C223.85 12.3933 223.41 13.7 222.53 14.7C221.663 15.6867 220.517 16.18 219.09 16.18C217.49 16.18 216.31 15.5467 215.55 14.28V19.64H213.89V5.54ZM218.93 14.8C219.97 14.8 220.763 14.4667 221.31 13.8C221.857 13.12 222.13 12.14 222.13 10.86V10.7C222.13 9.43333 221.823 8.46 221.21 7.78C220.61 7.08667 219.843 6.74 218.91 6.74C217.897 6.74 217.07 7.08 216.43 7.76C215.803 8.42667 215.49 9.40667 215.49 10.7V10.86C215.49 12.1533 215.797 13.1333 216.41 13.8C217.037 14.4667 217.877 14.8 218.93 14.8ZM235.309 5.54H236.969V16H235.309V5.54ZM226.309 5.54H227.969V9.2H229.829C231.016 9.2 231.976 9.46667 232.709 10C233.456 10.5333 233.829 11.3733 233.829 12.52V12.58C233.829 13.7133 233.456 14.5667 232.709 15.14C231.962 15.7133 231.002 16 229.829 16H226.309V5.54ZM229.929 14.68C230.716 14.68 231.282 14.5133 231.629 14.18C231.989 13.8333 232.169 13.3 232.169 12.58V12.52C232.169 11.8533 231.996 11.3533 231.649 11.02C231.302 10.6733 230.729 10.5 229.929 10.5H227.969V14.68H229.929ZM244.632 3.62C243.912 3.62 243.299 3.37333 242.792 2.88C242.286 2.37333 242.019 1.74 241.992 0.979999H243.432C243.512 1.96667 243.912 2.46 244.632 2.46C245.419 2.46 245.859 1.96667 245.952 0.979999H247.352C247.299 1.74 247.012 2.37333 246.492 2.88C245.986 3.37333 245.366 3.62 244.632 3.62ZM240.332 16V5.54H241.992V13.6L247.332 5.54H248.992V16H247.332V7.94L241.992 16H240.332ZM264.042 6.94H259.102V16H257.442V5.54H265.702V16H264.042V6.94ZM273.543 14.8C274.583 14.8 275.409 14.44 276.023 13.72C276.649 13 276.963 12.0467 276.963 10.86V10.72C276.963 9.50667 276.649 8.54 276.023 7.82C275.409 7.1 274.583 6.74 273.543 6.74C272.489 6.74 271.656 7.1 271.043 7.82C270.429 8.54 270.123 9.5 270.123 10.7V10.86C270.123 12.0733 270.423 13.0333 271.023 13.74C271.636 14.4467 272.476 14.8 273.543 14.8ZM273.523 16.18C272.043 16.18 270.816 15.68 269.843 14.68C268.883 13.6667 268.403 12.3933 268.403 10.86V10.7C268.403 9.14 268.883 7.86 269.843 6.86C270.816 5.86 272.049 5.36 273.543 5.36C275.036 5.36 276.263 5.86 277.223 6.86C278.196 7.84667 278.683 9.12 278.683 10.68V10.84C278.683 12.4133 278.196 13.7 277.223 14.7C276.249 15.6867 275.016 16.18 273.523 16.18ZM282.88 11.96C282.733 13.1867 282.507 14.0667 282.2 14.6H287.1V6.9H283.26C283.193 8.52667 283.067 10.2133 282.88 11.96ZM280.8 18.54H279.46V14.6H280.2C280.573 14.5067 280.833 14.24 280.98 13.8C281.127 13.3467 281.253 12.7 281.36 11.86C281.48 10.78 281.593 9.42 281.7 7.78C281.753 7.04667 281.793 6.3 281.82 5.54H288.72V14.6H290.32V18.54H288.98L288.86 16H280.92L280.8 18.54ZM296.903 16.18C295.329 16.18 294.083 15.6733 293.163 14.66C292.243 13.6467 291.783 12.1067 291.783 10.04V9.4C291.783 8.41333 291.823 7.54 291.903 6.78C291.983 6.00667 292.149 5.23333 292.403 4.46C292.656 3.67333 292.989 3.02 293.403 2.5C293.816 1.98 294.376 1.54667 295.083 1.2C295.803 0.853333 296.649 0.653333 297.623 0.599999L298.023 0.579999C299.489 0.5 300.483 0.353333 301.003 0.139999L301.223 1.54C300.543 1.83333 299.483 2.01333 298.043 2.08L297.743 2.1C296.129 2.18 294.976 2.70667 294.283 3.68C293.603 4.64 293.203 6.13333 293.083 8.16H293.163C293.523 7.42667 294.056 6.84667 294.763 6.42C295.483 5.98 296.316 5.76 297.263 5.76C298.716 5.76 299.876 6.23333 300.743 7.18C301.623 8.11333 302.063 9.32667 302.063 10.82V10.9C302.063 12.5133 301.576 13.8 300.603 14.76C299.643 15.7067 298.409 16.18 296.903 16.18ZM294.403 13.78C295.016 14.46 295.856 14.8 296.923 14.8C297.989 14.8 298.823 14.4667 299.423 13.8C300.036 13.12 300.343 12.16 300.343 10.92V10.88C300.343 9.72 300.063 8.80667 299.503 8.14C298.956 7.47333 298.156 7.14 297.103 7.14C295.996 7.14 295.116 7.48667 294.463 8.18C293.823 8.87333 293.503 9.82 293.503 11.02V11.06C293.503 12.1933 293.803 13.1 294.403 13.78ZM309.049 16.18C307.555 16.18 306.335 15.6933 305.389 14.72C304.455 13.7467 303.989 12.4667 303.989 10.88V10.72C303.989 9.14667 304.442 7.86 305.349 6.86C306.269 5.86 307.449 5.36 308.889 5.36C310.222 5.36 311.335 5.79333 312.229 6.66C313.135 7.51333 313.589 8.81333 313.589 10.56V11.1H305.709C305.789 13.5667 306.909 14.8 309.069 14.8C310.709 14.8 311.635 14.1933 311.849 12.98H313.509C313.322 14.02 312.835 14.8133 312.049 15.36C311.262 15.9067 310.262 16.18 309.049 16.18ZM311.889 9.76C311.742 7.74667 310.742 6.74 308.889 6.74C308.049 6.74 307.355 7.00667 306.809 7.54C306.262 8.07333 305.915 8.81333 305.769 9.76H311.889ZM316.136 5.54H317.796V7.3C318.103 6.76667 318.583 6.31333 319.236 5.94C319.889 5.55333 320.589 5.36 321.336 5.36C322.736 5.36 323.876 5.83333 324.756 6.78C325.649 7.72667 326.096 9.00667 326.096 10.62V10.78C326.096 12.3933 325.656 13.7 324.776 14.7C323.909 15.6867 322.763 16.18 321.336 16.18C319.736 16.18 318.556 15.5467 317.796 14.28V19.64H316.136V5.54ZM321.176 14.8C322.216 14.8 323.009 14.4667 323.556 13.8C324.103 13.12 324.376 12.14 324.376 10.86V10.7C324.376 9.43333 324.069 8.46 323.456 7.78C322.856 7.08667 322.089 6.74 321.156 6.74C320.143 6.74 319.316 7.08 318.676 7.76C318.049 8.42667 317.736 9.40667 317.736 10.7V10.86C317.736 12.1533 318.043 13.1333 318.656 13.8C319.283 14.4667 320.123 14.8 321.176 14.8ZM332.955 16.18C331.462 16.18 330.242 15.6933 329.295 14.72C328.362 13.7467 327.895 12.4667 327.895 10.88V10.72C327.895 9.14667 328.348 7.86 329.255 6.86C330.175 5.86 331.355 5.36 332.795 5.36C334.128 5.36 335.242 5.79333 336.135 6.66C337.042 7.51333 337.495 8.81333 337.495 10.56V11.1H329.615C329.695 13.5667 330.815 14.8 332.975 14.8C334.615 14.8 335.542 14.1933 335.755 12.98H337.415C337.228 14.02 336.742 14.8133 335.955 15.36C335.168 15.9067 334.168 16.18 332.955 16.18ZM335.795 9.76C335.648 7.74667 334.648 6.74 332.795 6.74C331.955 6.74 331.262 7.00667 330.715 7.54C330.168 8.07333 329.822 8.81333 329.675 9.76H335.795ZM331.655 3.02C331.455 3.22 331.208 3.32 330.915 3.32C330.622 3.32 330.368 3.22 330.155 3.02C329.955 2.80667 329.855 2.55333 329.855 2.26C329.855 1.96667 329.955 1.72 330.155 1.52C330.368 1.30667 330.622 1.2 330.915 1.2C331.208 1.2 331.455 1.30667 331.655 1.52C331.868 1.72 331.975 1.96667 331.975 2.26C331.975 2.55333 331.868 2.80667 331.655 3.02ZM335.415 3.02C335.215 3.22 334.968 3.32 334.675 3.32C334.382 3.32 334.128 3.22 333.915 3.02C333.715 2.80667 333.615 2.55333 333.615 2.26C333.615 1.96667 333.715 1.72 333.915 1.52C334.128 1.30667 334.382 1.2 334.675 1.2C334.968 1.2 335.215 1.30667 335.415 1.52C335.628 1.72 335.735 1.96667 335.735 2.26C335.735 2.55333 335.628 2.80667 335.415 3.02ZM347.165 6.94H343.785V16H342.125V6.94H338.745V5.54H347.165V6.94ZM356.786 11.96C356.64 13.1867 356.413 14.0667 356.106 14.6H361.006V6.9H357.166C357.1 8.52667 356.973 10.2133 356.786 11.96ZM354.706 18.54H353.366V14.6H354.106C354.48 14.5067 354.74 14.24 354.886 13.8C355.033 13.3467 355.16 12.7 355.266 11.86C355.386 10.78 355.5 9.42 355.606 7.78C355.66 7.04667 355.7 6.3 355.726 5.54H362.626V14.6H364.226V18.54H362.886L362.766 16H354.826L354.706 18.54ZM368.602 11.96C368.482 13.4 368.229 14.4533 367.842 15.12C367.455 15.7733 366.849 16.1 366.022 16.1C365.849 16.1 365.669 16.0867 365.482 16.06L365.322 16V14.42L365.462 14.46C365.595 14.4867 365.735 14.5 365.882 14.5C366.095 14.5 366.269 14.44 366.402 14.32C366.549 14.1867 366.662 13.98 366.742 13.7C366.835 13.42 366.902 13.16 366.942 12.92C366.982 12.6667 367.029 12.3133 367.082 11.86C367.135 11.38 367.215 10.02 367.322 7.78L367.382 5.54H374.282V16H372.622V6.94H368.862C368.742 9.82 368.655 11.4933 368.602 11.96ZM381.117 6.86C379.624 6.86 378.877 7.49333 378.877 8.76V8.82C378.877 9.42 379.05 9.87333 379.397 10.18C379.744 10.4867 380.317 10.64 381.117 10.64H383.077V6.86H381.117ZM378.357 16H376.457L379.637 11.62C378.024 11.2867 377.217 10.3533 377.217 8.82V8.76C377.217 7.66667 377.59 6.86 378.337 6.34C379.084 5.80667 380.044 5.54 381.217 5.54H384.737V16H383.077V11.9H381.277L378.357 16ZM393.399 5.54H397.059C399.512 5.54 400.739 6.42667 400.739 8.2V8.26C400.739 8.76667 400.599 9.23333 400.319 9.66C400.039 10.0733 399.619 10.3533 399.059 10.5C400.512 10.82 401.239 11.6067 401.239 12.86V12.92C401.239 13.9333 400.905 14.7 400.239 15.22C399.585 15.74 398.672 16 397.499 16H393.399V5.54ZM395.059 6.86V9.96H397.059C397.752 9.96 398.245 9.83333 398.539 9.58C398.845 9.32667 398.999 8.91333 398.999 8.34V8.28C398.999 7.74667 398.839 7.38 398.519 7.18C398.212 6.96667 397.719 6.86 397.039 6.86H395.059ZM395.059 11.28V14.68H397.339C398.072 14.68 398.612 14.5533 398.959 14.3C399.319 14.0333 399.499 13.6067 399.499 13.02V12.96C399.499 12.3733 399.319 11.9467 398.959 11.68C398.612 11.4133 398.072 11.28 397.339 11.28H395.059ZM406.725 16.18C405.698 16.18 404.858 15.9267 404.205 15.42C403.565 14.9 403.245 14.1267 403.245 13.1C403.245 12.5267 403.385 12.0267 403.665 11.6C403.958 11.16 404.358 10.82 404.865 10.58C405.371 10.3267 405.925 10.1467 406.525 10.04C407.125 9.92 407.778 9.86 408.485 9.86H409.985V9.1C409.985 8.26 409.811 7.66 409.465 7.3C409.118 6.92667 408.545 6.74 407.745 6.74C406.305 6.74 405.505 7.36667 405.345 8.62H403.685C403.791 7.5 404.225 6.68 404.985 6.16C405.758 5.62667 406.705 5.36 407.825 5.36C410.371 5.36 411.645 6.60667 411.645 9.1V16H409.985V14.68C409.185 15.68 408.098 16.18 406.725 16.18ZM406.885 14.86C407.791 14.86 408.531 14.64 409.105 14.2C409.691 13.7467 409.985 13.1267 409.985 12.34V11.04H408.545C406.118 11.04 404.905 11.7267 404.905 13.1C404.905 14.2733 405.565 14.86 406.885 14.86ZM419.245 16.18C417.752 16.18 416.525 15.7 415.565 14.74C414.605 13.7667 414.125 12.48 414.125 10.88V10.72C414.125 9.14667 414.612 7.86 415.585 6.86C416.572 5.86 417.779 5.36 419.205 5.36C420.405 5.36 421.425 5.66 422.265 6.26C423.105 6.84667 423.599 7.76667 423.745 9.02H422.105C421.865 7.5 420.899 6.74 419.205 6.74C418.232 6.74 417.425 7.10667 416.785 7.84C416.159 8.56 415.845 9.52 415.845 10.72V10.88C415.845 12.1333 416.152 13.1 416.765 13.78C417.392 14.46 418.225 14.8 419.265 14.8C420.052 14.8 420.725 14.58 421.285 14.14C421.859 13.6867 422.185 13.0533 422.265 12.24H423.805C423.699 13.3867 423.219 14.3333 422.365 15.08C421.525 15.8133 420.485 16.18 419.245 16.18ZM433.145 10.66V16H431.485V5.54H433.145V10.42L437.485 5.54H439.425L434.945 10.46L439.805 16H437.785L433.145 10.66ZM445.887 14.8C446.927 14.8 447.753 14.44 448.367 13.72C448.993 13 449.307 12.0467 449.307 10.86V10.72C449.307 9.50667 448.993 8.54 448.367 7.82C447.753 7.1 446.927 6.74 445.887 6.74C444.833 6.74 444 7.1 443.387 7.82C442.773 8.54 442.467 9.5 442.467 10.7V10.86C442.467 12.0733 442.767 13.0333 443.367 13.74C443.98 14.4467 444.82 14.8 445.887 14.8ZM445.867 16.18C444.387 16.18 443.16 15.68 442.187 14.68C441.227 13.6667 440.747 12.3933 440.747 10.86V10.7C440.747 9.14 441.227 7.86 442.187 6.86C443.16 5.86 444.393 5.36 445.887 5.36C447.38 5.36 448.607 5.86 449.567 6.86C450.54 7.84667 451.027 9.12 451.027 10.68V10.84C451.027 12.4133 450.54 13.7 449.567 14.7C448.593 15.6867 447.36 16.18 445.867 16.18ZM455.379 11.96C455.259 13.4 455.006 14.4533 454.619 15.12C454.233 15.7733 453.626 16.1 452.799 16.1C452.626 16.1 452.446 16.0867 452.259 16.06L452.099 16V14.42L452.239 14.46C452.373 14.4867 452.513 14.5 452.659 14.5C452.873 14.5 453.046 14.44 453.179 14.32C453.326 14.1867 453.439 13.98 453.519 13.7C453.613 13.42 453.679 13.16 453.719 12.92C453.759 12.6667 453.806 12.3133 453.859 11.86C453.913 11.38 453.993 10.02 454.099 7.78L454.159 5.54H461.059V16H459.399V6.94H455.639C455.519 9.82 455.433 11.4933 455.379 11.96ZM466.414 11.96C466.294 13.4 466.041 14.4533 465.654 15.12C465.268 15.7733 464.661 16.1 463.834 16.1C463.661 16.1 463.481 16.0867 463.294 16.06L463.134 16V14.42L463.274 14.46C463.408 14.4867 463.548 14.5 463.694 14.5C463.908 14.5 464.081 14.44 464.214 14.32C464.361 14.1867 464.474 13.98 464.554 13.7C464.648 13.42 464.714 13.16 464.754 12.92C464.794 12.6667 464.841 12.3133 464.894 11.86C464.948 11.38 465.028 10.02 465.134 7.78L465.194 5.54H472.094V16H470.434V6.94H466.674C466.554 9.82 466.468 11.4933 466.414 11.96ZM479.85 16.18C478.356 16.18 477.136 15.6933 476.19 14.72C475.256 13.7467 474.79 12.4667 474.79 10.88V10.72C474.79 9.14667 475.243 7.86 476.15 6.86C477.07 5.86 478.25 5.36 479.69 5.36C481.023 5.36 482.136 5.79333 483.03 6.66C483.936 7.51333 484.39 8.81333 484.39 10.56V11.1H476.51C476.59 13.5667 477.71 14.8 479.87 14.8C481.51 14.8 482.436 14.1933 482.65 12.98H484.31C484.123 14.02 483.636 14.8133 482.85 15.36C482.063 15.9067 481.063 16.18 479.85 16.18ZM482.69 9.76C482.543 7.74667 481.543 6.74 479.69 6.74C478.85 6.74 478.156 7.00667 477.61 7.54C477.063 8.07333 476.716 8.81333 476.57 9.76H482.69ZM488.477 6.94V16H486.817V5.54H493.457V6.94H488.477ZM501.035 16V5.54H502.695V13.6L508.035 5.54H509.695V16H508.035V7.94L502.695 16H501.035ZM524.745 6.94H519.805V16H518.145V5.54H526.405V16H524.745V6.94ZM534.246 14.8C535.286 14.8 536.113 14.44 536.726 13.72C537.353 13 537.666 12.0467 537.666 10.86V10.72C537.666 9.50667 537.353 8.54 536.726 7.82C536.113 7.1 535.286 6.74 534.246 6.74C533.193 6.74 532.359 7.1 531.746 7.82C531.133 8.54 530.826 9.5 530.826 10.7V10.86C530.826 12.0733 531.126 13.0333 531.726 13.74C532.339 14.4467 533.179 14.8 534.246 14.8ZM534.226 16.18C532.746 16.18 531.519 15.68 530.546 14.68C529.586 13.6667 529.106 12.3933 529.106 10.86V10.7C529.106 9.14 529.586 7.86 530.546 6.86C531.519 5.86 532.753 5.36 534.246 5.36C535.739 5.36 536.966 5.86 537.926 6.86C538.899 7.84667 539.386 9.12 539.386 10.68V10.84C539.386 12.4133 538.899 13.7 537.926 14.7C536.953 15.6867 535.719 16.18 534.226 16.18ZM543.236 7.18V16H541.856V5.54H544.196L547.176 13.4L550.236 5.54H552.516V16H550.876V7.18L547.416 16H546.656L543.236 7.18ZM560.379 14.8C561.419 14.8 562.245 14.44 562.859 13.72C563.485 13 563.799 12.0467 563.799 10.86V10.72C563.799 9.50667 563.485 8.54 562.859 7.82C562.245 7.1 561.419 6.74 560.379 6.74C559.325 6.74 558.492 7.1 557.879 7.82C557.265 8.54 556.959 9.5 556.959 10.7V10.86C556.959 12.0733 557.259 13.0333 557.859 13.74C558.472 14.4467 559.312 14.8 560.379 14.8ZM560.359 16.18C558.879 16.18 557.652 15.68 556.679 14.68C555.719 13.6667 555.239 12.3933 555.239 10.86V10.7C555.239 9.14 555.719 7.86 556.679 6.86C557.652 5.86 558.885 5.36 560.379 5.36C561.872 5.36 563.099 5.86 564.059 6.86C565.032 7.84667 565.519 9.12 565.519 10.68V10.84C565.519 12.4133 565.032 13.7 564.059 14.7C563.085 15.6867 561.852 16.18 560.359 16.18ZM572.178 10.62L568.138 16H566.278L570.538 10.44L566.658 5.54H568.438L572.178 10.46V5.54H573.798V10.46L577.538 5.54H579.338L575.458 10.44L579.718 16H577.838L573.798 10.62V16H572.178V10.62ZM585.768 16.18C584.274 16.18 583.054 15.6933 582.108 14.72C581.174 13.7467 580.708 12.4667 580.708 10.88V10.72C580.708 9.14667 581.161 7.86 582.068 6.86C582.988 5.86 584.168 5.36 585.608 5.36C586.941 5.36 588.054 5.79333 588.948 6.66C589.854 7.51333 590.308 8.81333 590.308 10.56V11.1H582.428C582.508 13.5667 583.628 14.8 585.788 14.8C587.428 14.8 588.354 14.1933 588.568 12.98H590.228C590.041 14.02 589.554 14.8133 588.768 15.36C587.981 15.9067 586.981 16.18 585.768 16.18ZM588.608 9.76C588.461 7.74667 587.461 6.74 585.608 6.74C584.768 6.74 584.074 7.00667 583.528 7.54C582.981 8.07333 582.634 8.81333 582.488 9.76H588.608ZM599.977 6.94H596.597V16H594.937V6.94H591.557V5.54H599.977V6.94ZM8.48 36.34H3.34V41H1.68V30.54H3.34V34.94H8.48V30.54H10.14V41H8.48V36.34ZM16.2364 41.18C15.2097 41.18 14.3697 40.9267 13.7164 40.42C13.0764 39.9 12.7564 39.1267 12.7564 38.1C12.7564 37.5267 12.8964 37.0267 13.1764 36.6C13.4697 36.16 13.8697 35.82 14.3764 35.58C14.8831 35.3267 15.4364 35.1467 16.0364 35.04C16.6364 34.92 17.2897 34.86 17.9964 34.86H19.4964V34.1C19.4964 33.26 19.3231 32.66 18.9764 32.3C18.6297 31.9267 18.0564 31.74 17.2564 31.74C15.8164 31.74 15.0164 32.3667 14.8564 33.62H13.1964C13.3031 32.5 13.7364 31.68 14.4964 31.16C15.2697 30.6267 16.2164 30.36 17.3364 30.36C19.8831 30.36 21.1564 31.6067 21.1564 34.1V41H19.4964V39.68C18.6964 40.68 17.6097 41.18 16.2364 41.18ZM16.3964 39.86C17.3031 39.86 18.0431 39.64 18.6164 39.2C19.2031 38.7467 19.4964 38.1267 19.4964 37.34V36.04H18.0564C15.6297 36.04 14.4164 36.7267 14.4164 38.1C14.4164 39.2733 15.0764 39.86 16.3964 39.86ZM26.2972 36.96C26.1772 38.4 25.9239 39.4533 25.5372 40.12C25.1505 40.7733 24.5439 41.1 23.7172 41.1C23.5439 41.1 23.3639 41.0867 23.1772 41.06L23.0172 41V39.42L23.1572 39.46C23.2905 39.4867 23.4305 39.5 23.5772 39.5C23.7905 39.5 23.9639 39.44 24.0972 39.32C24.2439 39.1867 24.3572 38.98 24.4372 38.7C24.5305 38.42 24.5972 38.16 24.6372 37.92C24.6772 37.6667 24.7239 37.3133 24.7772 36.86C24.8305 36.38 24.9105 35.02 25.0172 32.78L25.0772 30.54H31.9772V41H30.3172V31.94H26.5572C26.4372 34.82 26.3505 36.4933 26.2972 36.96ZM38.0723 41.18C37.0457 41.18 36.2057 40.9267 35.5523 40.42C34.9123 39.9 34.5923 39.1267 34.5923 38.1C34.5923 37.5267 34.7323 37.0267 35.0123 36.6C35.3057 36.16 35.7057 35.82 36.2123 35.58C36.719 35.3267 37.2723 35.1467 37.8723 35.04C38.4723 34.92 39.1257 34.86 39.8323 34.86H41.3323V34.1C41.3323 33.26 41.159 32.66 40.8123 32.3C40.4657 31.9267 39.8923 31.74 39.0923 31.74C37.6523 31.74 36.8523 32.3667 36.6923 33.62H35.0323C35.139 32.5 35.5723 31.68 36.3323 31.16C37.1057 30.6267 38.0523 30.36 39.1723 30.36C41.719 30.36 42.9923 31.6067 42.9923 34.1V41H41.3323V39.68C40.5323 40.68 39.4457 41.18 38.0723 41.18ZM38.2323 39.86C39.139 39.86 39.879 39.64 40.4523 39.2C41.039 38.7467 41.3323 38.1267 41.3323 37.34V36.04H39.8923C37.4657 36.04 36.2523 36.7267 36.2523 38.1C36.2523 39.2733 36.9123 39.86 38.2323 39.86ZM48.1731 36.96C48.0265 38.1867 47.7998 39.0667 47.4931 39.6H52.3931V31.9H48.5531C48.4865 33.5267 48.3598 35.2133 48.1731 36.96ZM46.0931 43.54H44.7531V39.6H45.4931C45.8665 39.5067 46.1265 39.24 46.2731 38.8C46.4198 38.3467 46.5465 37.7 46.6531 36.86C46.7731 35.78 46.8865 34.42 46.9931 32.78C47.0465 32.0467 47.0865 31.3 47.1131 30.54H54.0131V39.6H55.6131V43.54H54.2731L54.1531 41H46.2131L46.0931 43.54ZM57.6956 41V30.54H59.3556V38.6L64.6956 30.54H66.3556V41H64.6956V32.94L59.3556 41H57.6956ZM76.852 31.94H73.472V41H71.812V31.94H68.432V30.54H76.852V31.94ZM79.1409 30.54H80.8009V34.2H82.6609C83.8343 34.2 84.7943 34.4867 85.5409 35.06C86.2876 35.6333 86.6609 36.4867 86.6609 37.62V37.68C86.6609 38.8267 86.2876 39.6667 85.5409 40.2C84.8076 40.7333 83.8476 41 82.6609 41H79.1409V30.54ZM82.7609 39.7C83.5609 39.7 84.1343 39.5333 84.4809 39.2C84.8276 38.8533 85.0009 38.3467 85.0009 37.68V37.62C85.0009 36.9 84.8209 36.3733 84.4609 36.04C84.1143 35.6933 83.5476 35.52 82.7609 35.52H80.8009V39.7H82.7609ZM98.7767 41.18C97.2834 41.18 96.0567 40.7 95.0967 39.74C94.1367 38.7667 93.6567 37.48 93.6567 35.88V35.72C93.6567 34.1467 94.1434 32.86 95.1167 31.86C96.1034 30.86 97.3101 30.36 98.7367 30.36C99.9367 30.36 100.957 30.66 101.797 31.26C102.637 31.8467 103.13 32.7667 103.277 34.02H101.637C101.397 32.5 100.43 31.74 98.7367 31.74C97.7634 31.74 96.9567 32.1067 96.3167 32.84C95.6901 33.56 95.3767 34.52 95.3767 35.72V35.88C95.3767 37.1333 95.6834 38.1 96.2967 38.78C96.9234 39.46 97.7567 39.8 98.7967 39.8C99.5834 39.8 100.257 39.58 100.817 39.14C101.39 38.6867 101.717 38.0533 101.797 37.24H103.337C103.23 38.3867 102.75 39.3333 101.897 40.08C101.057 40.8133 100.017 41.18 98.7767 41.18ZM117.816 36.34H112.676V41H111.016V30.54H112.676V34.94H117.816V30.54H119.476V41H117.816V36.34ZM122.832 41V30.54H124.492V38.6L129.832 30.54H131.492V41H129.832V32.94L124.492 41H122.832ZM136.049 32.18V41H134.669V30.54H137.009L139.989 38.4L143.049 30.54H145.329V41H143.689V32.18L140.229 41H139.469L136.049 32.18ZM148.711 41V30.54H150.371V38.6L155.711 30.54H157.371V41H155.711V32.94L150.371 41H148.711ZM165.821 30.54H169.481C171.934 30.54 173.161 31.4267 173.161 33.2V33.26C173.161 33.7667 173.021 34.2333 172.741 34.66C172.461 35.0733 172.041 35.3533 171.481 35.5C172.934 35.82 173.661 36.6067 173.661 37.86V37.92C173.661 38.9333 173.327 39.7 172.661 40.22C172.007 40.74 171.094 41 169.921 41H165.821V30.54ZM167.481 31.86V34.96H169.481C170.174 34.96 170.667 34.8333 170.961 34.58C171.267 34.3267 171.421 33.9133 171.421 33.34V33.28C171.421 32.7467 171.261 32.38 170.941 32.18C170.634 31.9667 170.141 31.86 169.461 31.86H167.481ZM167.481 36.28V39.68H169.761C170.494 39.68 171.034 39.5533 171.381 39.3C171.741 39.0333 171.921 38.6067 171.921 38.02V37.96C171.921 37.3733 171.741 36.9467 171.381 36.68C171.034 36.4133 170.494 36.28 169.761 36.28H167.481ZM183.049 33.26C183.049 33.78 182.896 34.26 182.589 34.7C182.296 35.1267 181.876 35.3933 181.329 35.5C182.009 35.62 182.549 35.88 182.949 36.28C183.349 36.68 183.549 37.2067 183.549 37.86V37.92C183.549 38.8933 183.189 39.68 182.469 40.28C181.762 40.88 180.796 41.18 179.569 41.18C178.302 41.18 177.309 40.8867 176.589 40.3C175.882 39.7 175.502 38.86 175.449 37.78H177.069C177.149 38.4467 177.376 38.9533 177.749 39.3C178.136 39.6333 178.742 39.8 179.569 39.8C181.062 39.8 181.809 39.2067 181.809 38.02V37.96C181.809 37.3733 181.629 36.9467 181.269 36.68C180.922 36.4133 180.382 36.28 179.649 36.28H178.069V34.96H179.369C180.062 34.96 180.556 34.8333 180.849 34.58C181.156 34.3267 181.309 33.9133 181.309 33.34V33.28C181.309 32.2533 180.709 31.74 179.509 31.74C178.349 31.74 177.656 32.2867 177.429 33.38H175.829C175.949 32.3267 176.349 31.56 177.029 31.08C177.722 30.6 178.582 30.36 179.609 30.36C180.596 30.36 181.416 30.6133 182.069 31.12C182.722 31.6133 183.049 32.3067 183.049 33.2V33.26ZM189.029 41.18C188.003 41.18 187.163 40.9267 186.509 40.42C185.869 39.9 185.549 39.1267 185.549 38.1C185.549 37.5267 185.689 37.0267 185.969 36.6C186.263 36.16 186.663 35.82 187.169 35.58C187.676 35.3267 188.229 35.1467 188.829 35.04C189.429 34.92 190.083 34.86 190.789 34.86H192.289V34.1C192.289 33.26 192.116 32.66 191.769 32.3C191.423 31.9267 190.849 31.74 190.049 31.74C188.609 31.74 187.809 32.3667 187.649 33.62H185.989C186.096 32.5 186.529 31.68 187.289 31.16C188.063 30.6267 189.009 30.36 190.129 30.36C192.676 30.36 193.949 31.6067 193.949 34.1V41H192.289V39.68C191.489 40.68 190.403 41.18 189.029 41.18ZM189.189 39.86C190.096 39.86 190.836 39.64 191.409 39.2C191.996 38.7467 192.289 38.1267 192.289 37.34V36.04H190.849C188.423 36.04 187.209 36.7267 187.209 38.1C187.209 39.2733 187.869 39.86 189.189 39.86ZM197.09 41V30.54H198.75V38.6L204.09 30.54H205.75V41H204.09V32.94L198.75 41H197.09ZM210.307 32.18V41H208.927V30.54H211.267L214.247 38.4L217.307 30.54H219.587V41H217.947V32.18L214.487 41H213.727L210.307 32.18ZM227.449 39.8C228.489 39.8 229.316 39.44 229.929 38.72C230.556 38 230.869 37.0467 230.869 35.86V35.72C230.869 34.5067 230.556 33.54 229.929 32.82C229.316 32.1 228.489 31.74 227.449 31.74C226.396 31.74 225.562 32.1 224.949 32.82C224.336 33.54 224.029 34.5 224.029 35.7V35.86C224.029 37.0733 224.329 38.0333 224.929 38.74C225.542 39.4467 226.382 39.8 227.449 39.8ZM227.429 41.18C225.949 41.18 224.722 40.68 223.749 39.68C222.789 38.6667 222.309 37.3933 222.309 35.86V35.7C222.309 34.14 222.789 32.86 223.749 31.86C224.722 30.86 225.956 30.36 227.449 30.36C228.942 30.36 230.169 30.86 231.129 31.86C232.102 32.8467 232.589 34.12 232.589 35.68V35.84C232.589 37.4133 232.102 38.7 231.129 39.7C230.156 40.6867 228.922 41.18 227.429 41.18ZM235.039 30.54H238.699C241.153 30.54 242.379 31.4267 242.379 33.2V33.26C242.379 33.7667 242.239 34.2333 241.959 34.66C241.679 35.0733 241.259 35.3533 240.699 35.5C242.153 35.82 242.879 36.6067 242.879 37.86V37.92C242.879 38.9333 242.546 39.7 241.879 40.22C241.226 40.74 240.313 41 239.139 41H235.039V30.54ZM236.699 31.86V34.96H238.699C239.393 34.96 239.886 34.8333 240.179 34.58C240.486 34.3267 240.639 33.9133 240.639 33.34V33.28C240.639 32.7467 240.479 32.38 240.159 32.18C239.853 31.9667 239.359 31.86 238.679 31.86H236.699ZM236.699 36.28V39.68H238.979C239.713 39.68 240.253 39.5533 240.599 39.3C240.959 39.0333 241.139 38.6067 241.139 38.02V37.96C241.139 37.3733 240.959 36.9467 240.599 36.68C240.253 36.4133 239.713 36.28 238.979 36.28H236.699ZM254.528 30.54H256.188V41H254.528V30.54ZM245.528 30.54H247.188V34.2H249.048C250.234 34.2 251.194 34.4667 251.928 35C252.674 35.5333 253.048 36.3733 253.048 37.52V37.58C253.048 38.7133 252.674 39.5667 251.928 40.14C251.181 40.7133 250.221 41 249.048 41H245.528V30.54ZM249.148 39.68C249.934 39.68 250.501 39.5133 250.848 39.18C251.208 38.8333 251.388 38.3 251.388 37.58V37.52C251.388 36.8533 251.214 36.3533 250.868 36.02C250.521 35.6733 249.948 35.5 249.148 35.5H247.188V39.68H249.148ZM261.211 31.94V41H259.551V30.54H266.191V31.94H261.211ZM272.566 39.8C273.606 39.8 274.433 39.44 275.046 38.72C275.673 38 275.986 37.0467 275.986 35.86V35.72C275.986 34.5067 275.673 33.54 275.046 32.82C274.433 32.1 273.606 31.74 272.566 31.74C271.513 31.74 270.68 32.1 270.066 32.82C269.453 33.54 269.146 34.5 269.146 35.7V35.86C269.146 37.0733 269.446 38.0333 270.046 38.74C270.66 39.4467 271.5 39.8 272.566 39.8ZM272.546 41.18C271.066 41.18 269.84 40.68 268.866 39.68C267.906 38.6667 267.426 37.3933 267.426 35.86V35.7C267.426 34.14 267.906 32.86 268.866 31.86C269.84 30.86 271.073 30.36 272.566 30.36C274.06 30.36 275.286 30.86 276.246 31.86C277.22 32.8467 277.706 34.12 277.706 35.68V35.84C277.706 37.4133 277.22 38.7 276.246 39.7C275.273 40.6867 274.04 41.18 272.546 41.18ZM281.904 36.96C281.757 38.1867 281.53 39.0667 281.224 39.6H286.124V31.9H282.284C282.217 33.5267 282.09 35.2133 281.904 36.96ZM279.824 43.54H278.484V39.6H279.224C279.597 39.5067 279.857 39.24 280.004 38.8C280.15 38.3467 280.277 37.7 280.384 36.86C280.504 35.78 280.617 34.42 280.724 32.78C280.777 32.0467 280.817 31.3 280.844 30.54H287.744V39.6H289.344V43.54H288.004L287.884 41H279.944L279.824 43.54ZM298.226 36.34H293.086V41H291.426V30.54H293.086V34.94H298.226V30.54H299.886V41H298.226V36.34ZM307.723 39.8C308.763 39.8 309.589 39.44 310.203 38.72C310.829 38 311.143 37.0467 311.143 35.86V35.72C311.143 34.5067 310.829 33.54 310.203 32.82C309.589 32.1 308.763 31.74 307.723 31.74C306.669 31.74 305.836 32.1 305.223 32.82C304.609 33.54 304.303 34.5 304.303 35.7V35.86C304.303 37.0733 304.603 38.0333 305.203 38.74C305.816 39.4467 306.656 39.8 307.723 39.8ZM307.703 41.18C306.223 41.18 304.996 40.68 304.023 39.68C303.063 38.6667 302.583 37.3933 302.583 35.86V35.7C302.583 34.14 303.063 32.86 304.023 31.86C304.996 30.86 306.229 30.36 307.723 30.36C309.216 30.36 310.443 30.86 311.403 31.86C312.376 32.8467 312.862 34.12 312.862 35.68V35.84C312.862 37.4133 312.376 38.7 311.403 39.7C310.429 40.6867 309.196 41.18 307.703 41.18ZM319.713 41.18C318.219 41.18 316.999 40.6933 316.053 39.72C315.119 38.7467 314.653 37.4667 314.653 35.88V35.72C314.653 34.1467 315.106 32.86 316.013 31.86C316.933 30.86 318.113 30.36 319.553 30.36C320.886 30.36 321.999 30.7933 322.893 31.66C323.799 32.5133 324.253 33.8133 324.253 35.56V36.1H316.373C316.453 38.5667 317.573 39.8 319.733 39.8C321.373 39.8 322.299 39.1933 322.513 37.98H324.173C323.986 39.02 323.499 39.8133 322.713 40.36C321.926 40.9067 320.926 41.18 319.713 41.18ZM322.553 34.76C322.406 32.7467 321.406 31.74 319.553 31.74C318.713 31.74 318.019 32.0067 317.473 32.54C316.926 33.0733 316.579 33.8133 316.433 34.76H322.553ZM336.433 41.18C334.94 41.18 333.713 40.7 332.753 39.74C331.793 38.7667 331.313 37.48 331.313 35.88V35.72C331.313 34.1467 331.8 32.86 332.773 31.86C333.76 30.86 334.966 30.36 336.393 30.36C337.593 30.36 338.613 30.66 339.453 31.26C340.293 31.8467 340.786 32.7667 340.933 34.02H339.293C339.053 32.5 338.086 31.74 336.393 31.74C335.42 31.74 334.613 32.1067 333.973 32.84C333.346 33.56 333.033 34.52 333.033 35.72V35.88C333.033 37.1333 333.34 38.1 333.953 38.78C334.58 39.46 335.413 39.8 336.453 39.8C337.24 39.8 337.913 39.58 338.473 39.14C339.046 38.6867 339.373 38.0533 339.453 37.24H340.993C340.886 38.3867 340.406 39.3333 339.553 40.08C338.713 40.8133 337.673 41.18 336.433 41.18ZM347.859 39.8C348.899 39.8 349.726 39.44 350.339 38.72C350.966 38 351.279 37.0467 351.279 35.86V35.72C351.279 34.5067 350.966 33.54 350.339 32.82C349.726 32.1 348.899 31.74 347.859 31.74C346.806 31.74 345.973 32.1 345.359 32.82C344.746 33.54 344.439 34.5 344.439 35.7V35.86C344.439 37.0733 344.739 38.0333 345.339 38.74C345.953 39.4467 346.793 39.8 347.859 39.8ZM347.839 41.18C346.359 41.18 345.133 40.68 344.159 39.68C343.199 38.6667 342.719 37.3933 342.719 35.86V35.7C342.719 34.14 343.199 32.86 344.159 31.86C345.133 30.86 346.366 30.36 347.859 30.36C349.353 30.36 350.579 30.86 351.539 31.86C352.513 32.8467 352.999 34.12 352.999 35.68V35.84C352.999 37.4133 352.513 38.7 351.539 39.7C350.566 40.6867 349.333 41.18 347.839 41.18ZM362.399 31.94H359.019V41H357.359V31.94H353.979V30.54H362.399V31.94ZM364.808 30.54H366.468V32.3C366.774 31.7667 367.254 31.3133 367.908 30.94C368.561 30.5533 369.261 30.36 370.008 30.36C371.408 30.36 372.548 30.8333 373.428 31.78C374.321 32.7267 374.768 34.0067 374.768 35.62V35.78C374.768 37.3933 374.328 38.7 373.448 39.7C372.581 40.6867 371.434 41.18 370.008 41.18C368.408 41.18 367.228 40.5467 366.468 39.28V44.64H364.808V30.54ZM369.848 39.8C370.888 39.8 371.681 39.4667 372.228 38.8C372.774 38.12 373.048 37.14 373.048 35.86V35.7C373.048 34.4333 372.741 33.46 372.128 32.78C371.528 32.0867 370.761 31.74 369.828 31.74C368.814 31.74 367.988 32.08 367.348 32.76C366.721 33.4267 366.408 34.4067 366.408 35.7V35.86C366.408 37.1533 366.714 38.1333 367.328 38.8C367.954 39.4667 368.794 39.8 369.848 39.8ZM380.072 39.92L375.972 30.54H377.752L380.952 38.04L383.852 30.54H385.552L379.772 44.64H378.092L380.072 39.92ZM388.954 36.96C388.808 38.1867 388.581 39.0667 388.274 39.6H393.174V31.9H389.334C389.268 33.5267 389.141 35.2133 388.954 36.96ZM386.874 43.54H385.534V39.6H386.274C386.648 39.5067 386.908 39.24 387.054 38.8C387.201 38.3467 387.328 37.7 387.434 36.86C387.554 35.78 387.668 34.42 387.774 32.78C387.828 32.0467 387.868 31.3 387.894 30.54H394.794V39.6H396.394V43.54H395.054L394.934 41H386.994L386.874 43.54ZM405.277 36.34H400.137V41H398.477V30.54H400.137V34.94H405.277V30.54H406.937V41H405.277V36.34ZM410.293 41V30.54H411.953V38.6L417.293 30.54H418.953V41H417.293V32.94L411.953 41H410.293ZM428.21 41V36.12C427.49 36.8933 426.49 37.28 425.21 37.28C424.183 37.28 423.343 36.9533 422.69 36.3C422.036 35.6333 421.71 34.62 421.71 33.26V30.54H423.37V33.18C423.37 34.9533 424.13 35.84 425.65 35.84C426.783 35.84 427.636 35.4533 428.21 34.68V30.54H429.87V41H428.21ZM437.623 41.18C436.13 41.18 434.91 40.6933 433.963 39.72C433.03 38.7467 432.563 37.4667 432.563 35.88V35.72C432.563 34.1467 433.016 32.86 433.923 31.86C434.843 30.86 436.023 30.36 437.463 30.36C438.796 30.36 439.91 30.7933 440.803 31.66C441.71 32.5133 442.163 33.8133 442.163 35.56V36.1H434.283C434.363 38.5667 435.483 39.8 437.643 39.8C439.283 39.8 440.21 39.1933 440.423 37.98H442.083C441.896 39.02 441.41 39.8133 440.623 40.36C439.836 40.9067 438.836 41.18 437.623 41.18ZM440.463 34.76C440.316 32.7467 439.316 31.74 437.463 31.74C436.623 31.74 435.93 32.0067 435.383 32.54C434.836 33.0733 434.49 33.8133 434.343 34.76H440.463ZM449.05 41.18C447.557 41.18 446.33 40.7 445.37 39.74C444.41 38.7667 443.93 37.48 443.93 35.88V35.72C443.93 34.1467 444.417 32.86 445.39 31.86C446.377 30.86 447.583 30.36 449.01 30.36C450.21 30.36 451.23 30.66 452.07 31.26C452.91 31.8467 453.403 32.7667 453.55 34.02H451.91C451.67 32.5 450.703 31.74 449.01 31.74C448.037 31.74 447.23 32.1067 446.59 32.84C445.963 33.56 445.65 34.52 445.65 35.72V35.88C445.65 37.1333 445.957 38.1 446.57 38.78C447.197 39.46 448.03 39.8 449.07 39.8C449.857 39.8 450.53 39.58 451.09 39.14C451.663 38.6867 451.99 38.0533 452.07 37.24H453.61C453.503 38.3867 453.023 39.3333 452.17 40.08C451.33 40.8133 450.29 41.18 449.05 41.18ZM463.336 31.94H459.956V41H458.296V31.94H454.916V30.54H463.336V31.94ZM465.625 30.54H469.285C471.739 30.54 472.965 31.4267 472.965 33.2V33.26C472.965 33.7667 472.825 34.2333 472.545 34.66C472.265 35.0733 471.845 35.3533 471.285 35.5C472.739 35.82 473.465 36.6067 473.465 37.86V37.92C473.465 38.9333 473.132 39.7 472.465 40.22C471.812 40.74 470.899 41 469.725 41H465.625V30.54ZM467.285 31.86V34.96H469.285C469.979 34.96 470.472 34.8333 470.765 34.58C471.072 34.3267 471.225 33.9133 471.225 33.34V33.28C471.225 32.7467 471.065 32.38 470.745 32.18C470.439 31.9667 469.945 31.86 469.265 31.86H467.285ZM467.285 36.28V39.68H469.565C470.299 39.68 470.839 39.5533 471.185 39.3C471.545 39.0333 471.725 38.6067 471.725 38.02V37.96C471.725 37.3733 471.545 36.9467 471.185 36.68C470.839 36.4133 470.299 36.28 469.565 36.28H467.285ZM480.594 39.8C481.634 39.8 482.46 39.44 483.074 38.72C483.7 38 484.014 37.0467 484.014 35.86V35.72C484.014 34.5067 483.7 33.54 483.074 32.82C482.46 32.1 481.634 31.74 480.594 31.74C479.54 31.74 478.707 32.1 478.094 32.82C477.48 33.54 477.174 34.5 477.174 35.7V35.86C477.174 37.0733 477.474 38.0333 478.074 38.74C478.687 39.4467 479.527 39.8 480.594 39.8ZM480.574 41.18C479.094 41.18 477.867 40.68 476.894 39.68C475.934 38.6667 475.454 37.3933 475.454 35.86V35.7C475.454 34.14 475.934 32.86 476.894 31.86C477.867 30.86 479.1 30.36 480.594 30.36C482.087 30.36 483.314 30.86 484.274 31.86C485.247 32.8467 485.734 34.12 485.734 35.68V35.84C485.734 37.4133 485.247 38.7 484.274 39.7C483.3 40.6867 482.067 41.18 480.574 41.18ZM493.477 30.54H497.137C499.59 30.54 500.817 31.4267 500.817 33.2V33.26C500.817 33.7667 500.677 34.2333 500.397 34.66C500.117 35.0733 499.697 35.3533 499.137 35.5C500.59 35.82 501.317 36.6067 501.317 37.86V37.92C501.317 38.9333 500.984 39.7 500.317 40.22C499.664 40.74 498.75 41 497.577 41H493.477V30.54ZM495.137 31.86V34.96H497.137C497.83 34.96 498.324 34.8333 498.617 34.58C498.924 34.3267 499.077 33.9133 499.077 33.34V33.28C499.077 32.7467 498.917 32.38 498.597 32.18C498.29 31.9667 497.797 31.86 497.117 31.86H495.137ZM495.137 36.28V39.68H497.417C498.15 39.68 498.69 39.5533 499.037 39.3C499.397 39.0333 499.577 38.6067 499.577 38.02V37.96C499.577 37.3733 499.397 36.9467 499.037 36.68C498.69 36.4133 498.15 36.28 497.417 36.28H495.137ZM513.738 39.8C514.778 39.8 515.605 39.44 516.218 38.72C516.845 38 517.158 37.0467 517.158 35.86V35.72C517.158 34.5067 516.845 33.54 516.218 32.82C515.605 32.1 514.778 31.74 513.738 31.74C512.685 31.74 511.851 32.1 511.238 32.82C510.625 33.54 510.318 34.5 510.318 35.7V35.86C510.318 37.0733 510.618 38.0333 511.218 38.74C511.831 39.4467 512.671 39.8 513.738 39.8ZM513.718 41.18C512.238 41.18 511.011 40.68 510.038 39.68C509.078 38.6667 508.598 37.3933 508.598 35.86V35.7C508.598 34.14 509.078 32.86 510.038 31.86C511.011 30.86 512.245 30.36 513.738 30.36C515.231 30.36 516.458 30.86 517.418 31.86C518.391 32.8467 518.878 34.12 518.878 35.68V35.84C518.878 37.4133 518.391 38.7 517.418 39.7C516.445 40.6867 515.211 41.18 513.718 41.18ZM525.828 41.18C524.255 41.18 523.008 40.6733 522.088 39.66C521.168 38.6467 520.708 37.1067 520.708 35.04V34.4C520.708 33.4133 520.748 32.54 520.828 31.78C520.908 31.0067 521.075 30.2333 521.328 29.46C521.582 28.6733 521.915 28.02 522.328 27.5C522.742 26.98 523.302 26.5467 524.008 26.2C524.728 25.8533 525.575 25.6533 526.548 25.6L526.948 25.58C528.415 25.5 529.408 25.3533 529.928 25.14L530.148 26.54C529.468 26.8333 528.408 27.0133 526.968 27.08L526.668 27.1C525.055 27.18 523.902 27.7067 523.208 28.68C522.528 29.64 522.128 31.1333 522.008 33.16H522.088C522.448 32.4267 522.982 31.8467 523.688 31.42C524.408 30.98 525.242 30.76 526.188 30.76C527.642 30.76 528.802 31.2333 529.668 32.18C530.548 33.1133 530.988 34.3267 530.988 35.82V35.9C530.988 37.5133 530.502 38.8 529.528 39.76C528.568 40.7067 527.335 41.18 525.828 41.18ZM523.328 38.78C523.942 39.46 524.782 39.8 525.848 39.8C526.915 39.8 527.748 39.4667 528.348 38.8C528.962 38.12 529.268 37.16 529.268 35.92V35.88C529.268 34.72 528.988 33.8067 528.428 33.14C527.882 32.4733 527.082 32.14 526.028 32.14C524.922 32.14 524.042 32.4867 523.388 33.18C522.748 33.8733 522.428 34.82 522.428 36.02V36.06C522.428 37.1933 522.728 38.1 523.328 38.78ZM535.575 36.96C535.455 38.4 535.201 39.4533 534.815 40.12C534.428 40.7733 533.821 41.1 532.995 41.1C532.821 41.1 532.641 41.0867 532.455 41.06L532.295 41V39.42L532.435 39.46C532.568 39.4867 532.708 39.5 532.855 39.5C533.068 39.5 533.241 39.44 533.375 39.32C533.521 39.1867 533.635 38.98 533.715 38.7C533.808 38.42 533.875 38.16 533.915 37.92C533.955 37.6667 534.001 37.3133 534.055 36.86C534.108 36.38 534.188 35.02 534.295 32.78L534.355 30.54H541.255V41H539.595V31.94H535.835C535.715 34.82 535.628 36.4933 535.575 36.96ZM547.35 41.18C546.323 41.18 545.483 40.9267 544.83 40.42C544.19 39.9 543.87 39.1267 543.87 38.1C543.87 37.5267 544.01 37.0267 544.29 36.6C544.583 36.16 544.983 35.82 545.49 35.58C545.996 35.3267 546.55 35.1467 547.15 35.04C547.75 34.92 548.403 34.86 549.11 34.86H550.61V34.1C550.61 33.26 550.436 32.66 550.09 32.3C549.743 31.9267 549.17 31.74 548.37 31.74C546.93 31.74 546.13 32.3667 545.97 33.62H544.31C544.416 32.5 544.85 31.68 545.61 31.16C546.383 30.6267 547.33 30.36 548.45 30.36C550.996 30.36 552.27 31.6067 552.27 34.1V41H550.61V39.68C549.81 40.68 548.723 41.18 547.35 41.18ZM547.51 39.86C548.416 39.86 549.156 39.64 549.73 39.2C550.316 38.7467 550.61 38.1267 550.61 37.34V36.04H549.17C546.743 36.04 545.53 36.7267 545.53 38.1C545.53 39.2733 546.19 39.86 547.51 39.86ZM559.87 41.18C558.377 41.18 557.15 40.7 556.19 39.74C555.23 38.7667 554.75 37.48 554.75 35.88V35.72C554.75 34.1467 555.237 32.86 556.21 31.86C557.197 30.86 558.404 30.36 559.83 30.36C561.03 30.36 562.05 30.66 562.89 31.26C563.73 31.8467 564.224 32.7667 564.37 34.02H562.73C562.49 32.5 561.524 31.74 559.83 31.74C558.857 31.74 558.05 32.1067 557.41 32.84C556.784 33.56 556.47 34.52 556.47 35.72V35.88C556.47 37.1333 556.777 38.1 557.39 38.78C558.017 39.46 558.85 39.8 559.89 39.8C560.677 39.8 561.35 39.58 561.91 39.14C562.484 38.6867 562.81 38.0533 562.89 37.24H564.43C564.324 38.3867 563.844 39.3333 562.99 40.08C562.15 40.8133 561.11 41.18 559.87 41.18ZM574.157 31.94H570.777V41H569.117V31.94H565.737V30.54H574.157V31.94ZM579.926 31.86C578.432 31.86 577.686 32.4933 577.686 33.76V33.82C577.686 34.42 577.859 34.8733 578.206 35.18C578.552 35.4867 579.126 35.64 579.926 35.64H581.886V31.86H579.926ZM577.166 41H575.266L578.446 36.62C576.832 36.2867 576.026 35.3533 576.026 33.82V33.76C576.026 32.6667 576.399 31.86 577.146 31.34C577.892 30.8067 578.852 30.54 580.026 30.54H583.546V41H581.886V36.9H580.086L577.166 41ZM589.654 35.62L586.154 30.54H588.094L590.654 34.34L593.194 30.54H594.994L591.534 35.5L595.354 41H593.394L590.574 36.78L587.694 41H585.914L589.654 35.62ZM6.14 66.18C4.64667 66.18 3.42 65.7 2.46 64.74C1.5 63.7667 1.02 62.48 1.02 60.88V60.72C1.02 59.1467 1.50667 57.86 2.48 56.86C3.46667 55.86 4.67333 55.36 6.1 55.36C7.3 55.36 8.32 55.66 9.16 56.26C10 56.8467 10.4933 57.7667 10.64 59.02H9C8.76 57.5 7.79333 56.74 6.1 56.74C5.12667 56.74 4.32 57.1067 3.68 57.84C3.05333 58.56 2.74 59.52 2.74 60.72V60.88C2.74 62.1333 3.04667 63.1 3.66 63.78C4.28667 64.46 5.12 64.8 6.16 64.8C6.94667 64.8 7.62 64.58 8.18 64.14C8.75333 63.6867 9.08 63.0533 9.16 62.24H10.7C10.5933 63.3867 10.1133 64.3333 9.26 65.08C8.42 65.8133 7.38 66.18 6.14 66.18ZM17.5663 64.8C18.6063 64.8 19.4329 64.44 20.0463 63.72C20.6729 63 20.9863 62.0467 20.9863 60.86V60.72C20.9863 59.5067 20.6729 58.54 20.0463 57.82C19.4329 57.1 18.6063 56.74 17.5663 56.74C16.5129 56.74 15.6796 57.1 15.0663 57.82C14.4529 58.54 14.1463 59.5 14.1463 60.7V60.86C14.1463 62.0733 14.4463 63.0333 15.0463 63.74C15.6596 64.4467 16.4996 64.8 17.5663 64.8ZM17.5463 66.18C16.0663 66.18 14.8396 65.68 13.8663 64.68C12.9063 63.6667 12.4263 62.3933 12.4263 60.86V60.7C12.4263 59.14 12.9063 57.86 13.8663 56.86C14.8396 55.86 16.0729 55.36 17.5663 55.36C19.0596 55.36 20.2863 55.86 21.2463 56.86C22.2196 57.8467 22.7062 59.12 22.7062 60.68V60.84C22.7062 62.4133 22.2196 63.7 21.2463 64.7C20.2729 65.6867 19.0396 66.18 17.5463 66.18ZM25.1566 55.54H28.8166C31.2699 55.54 32.4966 56.4267 32.4966 58.2V58.26C32.4966 58.7667 32.3566 59.2333 32.0766 59.66C31.7966 60.0733 31.3766 60.3533 30.8166 60.5C32.2699 60.82 32.9966 61.6067 32.9966 62.86V62.92C32.9966 63.9333 32.6632 64.7 31.9966 65.22C31.3432 65.74 30.4299 66 29.2566 66H25.1566V55.54ZM26.8166 56.86V59.96H28.8166C29.5099 59.96 30.0032 59.8333 30.2966 59.58C30.6032 59.3267 30.7566 58.9133 30.7566 58.34V58.28C30.7566 57.7467 30.5966 57.38 30.2766 57.18C29.9699 56.9667 29.4766 56.86 28.7966 56.86H26.8166ZM26.8166 61.28V64.68H29.0966C29.8299 64.68 30.3699 64.5533 30.7166 64.3C31.0766 64.0333 31.2566 63.6067 31.2566 63.02V62.96C31.2566 62.3733 31.0766 61.9467 30.7166 61.68C30.3699 61.4133 29.8299 61.28 29.0966 61.28H26.8166ZM37.0448 57.18V66H35.6648V55.54H38.0048L40.9848 63.4L44.0448 55.54H46.3248V66H44.6848V57.18L41.2248 66H40.4648L37.0448 57.18ZM54.1073 66.18C52.614 66.18 51.394 65.6933 50.4473 64.72C49.514 63.7467 49.0473 62.4667 49.0473 60.88V60.72C49.0473 59.1467 49.5007 57.86 50.4073 56.86C51.3273 55.86 52.5073 55.36 53.9473 55.36C55.2807 55.36 56.394 55.7933 57.2873 56.66C58.194 57.5133 58.6473 58.8133 58.6473 60.56V61.1H50.7673C50.8473 63.5667 51.9673 64.8 54.1273 64.8C55.7673 64.8 56.694 64.1933 56.9073 62.98H58.5673C58.3807 64.02 57.894 64.8133 57.1073 65.36C56.3207 65.9067 55.3207 66.18 54.1073 66.18ZM56.9473 59.76C56.8007 57.7467 55.8007 56.74 53.9473 56.74C53.1073 56.74 52.414 57.0067 51.8673 57.54C51.3207 58.0733 50.974 58.8133 50.8273 59.76H56.9473ZM65.5345 66.18C64.0412 66.18 62.8145 65.7 61.8545 64.74C60.8945 63.7667 60.4145 62.48 60.4145 60.88V60.72C60.4145 59.1467 60.9012 57.86 61.8745 56.86C62.8612 55.86 64.0679 55.36 65.4945 55.36C66.6945 55.36 67.7145 55.66 68.5545 56.26C69.3945 56.8467 69.8879 57.7667 70.0345 59.02H68.3945C68.1545 57.5 67.1879 56.74 65.4945 56.74C64.5212 56.74 63.7145 57.1067 63.0745 57.84C62.4479 58.56 62.1345 59.52 62.1345 60.72V60.88C62.1345 62.1333 62.4412 63.1 63.0545 63.78C63.6812 64.46 64.5145 64.8 65.5545 64.8C66.3412 64.8 67.0145 64.58 67.5745 64.14C68.1479 63.6867 68.4745 63.0533 68.5545 62.24H70.0945C69.9879 63.3867 69.5079 64.3333 68.6545 65.08C67.8145 65.8133 66.7745 66.18 65.5345 66.18ZM79.8208 56.94H76.4408V66H74.7808V56.94H71.4008V55.54H79.8208V56.94ZM88.9097 61.34H83.7697V66H82.1097V55.54H83.7697V59.94H88.9097V55.54H90.5697V66H88.9097V61.34ZM102.926 55.54H104.586V66H102.926V55.54ZM93.9261 55.54H95.5861V59.2H97.4461C98.6328 59.2 99.5928 59.4667 100.326 60C101.073 60.5333 101.446 61.3733 101.446 62.52V62.58C101.446 63.7133 101.073 64.5667 100.326 65.14C99.5794 65.7133 98.6194 66 97.4461 66H93.9261V55.54ZM97.5461 64.68C98.3328 64.68 98.8994 64.5133 99.2461 64.18C99.6061 63.8333 99.7861 63.3 99.7861 62.58V62.52C99.7861 61.8533 99.6128 61.3533 99.2661 61.02C98.9194 60.6733 98.3461 60.5 97.5461 60.5H95.5861V64.68H97.5461ZM110.69 60.62L107.19 55.54H109.13L111.69 59.34L114.23 55.54H116.03L112.57 60.5L116.39 66H114.43L111.61 61.78L108.73 66H106.95L110.69 60.62ZM123.809 66V55.54H125.469V63.6L130.809 55.54H132.469V66H130.809V57.94L125.469 66H123.809ZM140.085 66.18C138.592 66.18 137.365 65.7 136.405 64.74C135.445 63.7667 134.965 62.48 134.965 60.88V60.72C134.965 59.1467 135.452 57.86 136.425 56.86C137.412 55.86 138.619 55.36 140.045 55.36C141.245 55.36 142.265 55.66 143.105 56.26C143.945 56.8467 144.439 57.7667 144.585 59.02H142.945C142.705 57.5 141.739 56.74 140.045 56.74C139.072 56.74 138.265 57.1067 137.625 57.84C136.999 58.56 136.685 59.52 136.685 60.72V60.88C136.685 62.1333 136.992 63.1 137.605 63.78C138.232 64.46 139.065 64.8 140.105 64.8C140.892 64.8 141.565 64.58 142.125 64.14C142.699 63.6867 143.025 63.0533 143.105 62.24H144.645C144.539 63.3867 144.059 64.3333 143.205 65.08C142.365 65.8133 141.325 66.18 140.085 66.18ZM151.492 66.18C149.998 66.18 148.772 65.7 147.812 64.74C146.852 63.7667 146.372 62.48 146.372 60.88V60.72C146.372 59.1467 146.858 57.86 147.832 56.86C148.818 55.86 150.025 55.36 151.452 55.36C152.652 55.36 153.672 55.66 154.512 56.26C155.352 56.8467 155.845 57.7667 155.992 59.02H154.352C154.112 57.5 153.145 56.74 151.452 56.74C150.478 56.74 149.672 57.1067 149.032 57.84C148.405 58.56 148.092 59.52 148.092 60.72V60.88C148.092 62.1333 148.398 63.1 149.012 63.78C149.638 64.46 150.472 64.8 151.512 64.8C152.298 64.8 152.972 64.58 153.532 64.14C154.105 63.6867 154.432 63.0533 154.512 62.24H156.052C155.945 63.3867 155.465 64.3333 154.612 65.08C153.772 65.8133 152.732 66.18 151.492 66.18ZM160.438 61.96C160.318 63.4 160.064 64.4533 159.678 65.12C159.291 65.7733 158.684 66.1 157.858 66.1C157.684 66.1 157.504 66.0867 157.318 66.06L157.158 66V64.42L157.298 64.46C157.431 64.4867 157.571 64.5 157.718 64.5C157.931 64.5 158.104 64.44 158.238 64.32C158.384 64.1867 158.498 63.98 158.578 63.7C158.671 63.42 158.738 63.16 158.778 62.92C158.818 62.6667 158.864 62.3133 158.918 61.86C158.971 61.38 159.051 60.02 159.158 57.78L159.218 55.54H166.118V66H164.458V56.94H160.698C160.578 59.82 160.491 61.4933 160.438 61.96ZM173.873 66.18C172.38 66.18 171.16 65.6933 170.213 64.72C169.28 63.7467 168.813 62.4667 168.813 60.88V60.72C168.813 59.1467 169.266 57.86 170.173 56.86C171.093 55.86 172.273 55.36 173.713 55.36C175.046 55.36 176.16 55.7933 177.053 56.66C177.96 57.5133 178.413 58.8133 178.413 60.56V61.1H170.533C170.613 63.5667 171.733 64.8 173.893 64.8C175.533 64.8 176.46 64.1933 176.673 62.98H178.333C178.146 64.02 177.66 64.8133 176.873 65.36C176.086 65.9067 175.086 66.18 173.873 66.18ZM176.713 59.76C176.566 57.7467 175.566 56.74 173.713 56.74C172.873 56.74 172.18 57.0067 171.633 57.54C171.086 58.0733 170.74 58.8133 170.593 59.76H176.713ZM182.88 61.96C182.733 63.1867 182.507 64.0667 182.2 64.6H187.1V56.9H183.26C183.193 58.5267 183.067 60.2133 182.88 61.96ZM180.8 68.54H179.46V64.6H180.2C180.573 64.5067 180.833 64.24 180.98 63.8C181.127 63.3467 181.253 62.7 181.36 61.86C181.48 60.78 181.593 59.42 181.7 57.78C181.753 57.0467 181.793 56.3 181.82 55.54H188.72V64.6H190.32V68.54H188.98L188.86 66H180.92L180.8 68.54ZM196.785 64.8C197.825 64.8 198.652 64.44 199.265 63.72C199.892 63 200.205 62.0467 200.205 60.86V60.72C200.205 59.5067 199.892 58.54 199.265 57.82C198.652 57.1 197.825 56.74 196.785 56.74C195.732 56.74 194.898 57.1 194.285 57.82C193.672 58.54 193.365 59.5 193.365 60.7V60.86C193.365 62.0733 193.665 63.0333 194.265 63.74C194.878 64.4467 195.718 64.8 196.785 64.8ZM196.765 66.18C195.285 66.18 194.058 65.68 193.085 64.68C192.125 63.6667 191.645 62.3933 191.645 60.86V60.7C191.645 59.14 192.125 57.86 193.085 56.86C194.058 55.86 195.292 55.36 196.785 55.36C198.278 55.36 199.505 55.86 200.465 56.86C201.438 57.8467 201.925 59.12 201.925 60.68V60.84C201.925 62.4133 201.438 63.7 200.465 64.7C199.492 65.6867 198.258 66.18 196.765 66.18ZM204.375 55.54H208.035C210.489 55.54 211.715 56.4267 211.715 58.2V58.26C211.715 58.7667 211.575 59.2333 211.295 59.66C211.015 60.0733 210.595 60.3533 210.035 60.5C211.489 60.82 212.215 61.6067 212.215 62.86V62.92C212.215 63.9333 211.882 64.7 211.215 65.22C210.562 65.74 209.649 66 208.475 66H204.375V55.54ZM206.035 56.86V59.96H208.035C208.729 59.96 209.222 59.8333 209.515 59.58C209.822 59.3267 209.975 58.9133 209.975 58.34V58.28C209.975 57.7467 209.815 57.38 209.495 57.18C209.189 56.9667 208.695 56.86 208.015 56.86H206.035ZM206.035 61.28V64.68H208.315C209.049 64.68 209.589 64.5533 209.935 64.3C210.295 64.0333 210.475 63.6067 210.475 63.02V62.96C210.475 62.3733 210.295 61.9467 209.935 61.68C209.589 61.4133 209.049 61.28 208.315 61.28H206.035ZM217.701 66.18C216.675 66.18 215.835 65.9267 215.181 65.42C214.541 64.9 214.221 64.1267 214.221 63.1C214.221 62.5267 214.361 62.0267 214.641 61.6C214.935 61.16 215.335 60.82 215.841 60.58C216.348 60.3267 216.901 60.1467 217.501 60.04C218.101 59.92 218.755 59.86 219.461 59.86H220.961V59.1C220.961 58.26 220.788 57.66 220.441 57.3C220.095 56.9267 219.521 56.74 218.721 56.74C217.281 56.74 216.481 57.3667 216.321 58.62H214.661C214.768 57.5 215.201 56.68 215.961 56.16C216.735 55.6267 217.681 55.36 218.801 55.36C221.348 55.36 222.621 56.6067 222.621 59.1V66H220.961V64.68C220.161 65.68 219.075 66.18 217.701 66.18ZM217.861 64.86C218.768 64.86 219.508 64.64 220.081 64.2C220.668 63.7467 220.961 63.1267 220.961 62.34V61.04H219.521C217.095 61.04 215.881 61.7267 215.881 63.1C215.881 64.2733 216.541 64.86 217.861 64.86ZM232.562 61.34H227.422V66H225.762V55.54H227.422V59.94H232.562V55.54H234.222V66H232.562V61.34ZM237.578 66V55.54H239.238V63.6L244.578 55.54H246.238V66H244.578V57.94L239.238 66H237.578ZM253.695 53.62C252.975 53.62 252.362 53.3733 251.855 52.88C251.348 52.3733 251.082 51.74 251.055 50.98H252.495C252.575 51.9667 252.975 52.46 253.695 52.46C254.482 52.46 254.922 51.9667 255.015 50.98H256.415C256.362 51.74 256.075 52.3733 255.555 52.88C255.048 53.3733 254.428 53.62 253.695 53.62ZM249.395 66V55.54H251.055V63.6L256.395 55.54H258.055V66H256.395V57.94L251.055 66H249.395ZM260.371 67.9L262.291 63.52L263.911 64.28L261.451 68.46L260.371 67.9ZM276.843 66.18C275.35 66.18 274.123 65.7 273.163 64.74C272.203 63.7667 271.723 62.48 271.723 60.88V60.72C271.723 59.1467 272.21 57.86 273.183 56.86C274.17 55.86 275.376 55.36 276.803 55.36C278.003 55.36 279.023 55.66 279.863 56.26C280.703 56.8467 281.196 57.7667 281.343 59.02H279.703C279.463 57.5 278.496 56.74 276.803 56.74C275.83 56.74 275.023 57.1067 274.383 57.84C273.756 58.56 273.443 59.52 273.443 60.72V60.88C273.443 62.1333 273.75 63.1 274.363 63.78C274.99 64.46 275.823 64.8 276.863 64.8C277.65 64.8 278.323 64.58 278.883 64.14C279.456 63.6867 279.783 63.0533 279.863 62.24H281.403C281.296 63.3867 280.816 64.3333 279.963 65.08C279.123 65.8133 278.083 66.18 276.843 66.18ZM288.269 64.8C289.309 64.8 290.136 64.44 290.749 63.72C291.376 63 291.689 62.0467 291.689 60.86V60.72C291.689 59.5067 291.376 58.54 290.749 57.82C290.136 57.1 289.309 56.74 288.269 56.74C287.216 56.74 286.383 57.1 285.769 57.82C285.156 58.54 284.849 59.5 284.849 60.7V60.86C284.849 62.0733 285.149 63.0333 285.749 63.74C286.363 64.4467 287.203 64.8 288.269 64.8ZM288.249 66.18C286.769 66.18 285.543 65.68 284.569 64.68C283.609 63.6667 283.129 62.3933 283.129 60.86V60.7C283.129 59.14 283.609 57.86 284.569 56.86C285.543 55.86 286.776 55.36 288.269 55.36C289.763 55.36 290.989 55.86 291.949 56.86C292.923 57.8467 293.409 59.12 293.409 60.68V60.84C293.409 62.4133 292.923 63.7 291.949 64.7C290.976 65.6867 289.743 66.18 288.249 66.18ZM298.6 66.18C297.573 66.18 296.733 65.9267 296.08 65.42C295.44 64.9 295.12 64.1267 295.12 63.1C295.12 62.5267 295.26 62.0267 295.54 61.6C295.833 61.16 296.233 60.82 296.74 60.58C297.246 60.3267 297.8 60.1467 298.4 60.04C299 59.92 299.653 59.86 300.36 59.86H301.86V59.1C301.86 58.26 301.686 57.66 301.34 57.3C300.993 56.9267 300.42 56.74 299.62 56.74C298.18 56.74 297.38 57.3667 297.22 58.62H295.56C295.666 57.5 296.1 56.68 296.86 56.16C297.633 55.6267 298.58 55.36 299.7 55.36C302.246 55.36 303.52 56.6067 303.52 59.1V66H301.86V64.68C301.06 65.68 299.973 66.18 298.6 66.18ZM298.76 64.86C299.666 64.86 300.406 64.64 300.98 64.2C301.566 63.7467 301.86 63.1267 301.86 62.34V61.04H300.42C297.993 61.04 296.78 61.7267 296.78 63.1C296.78 64.2733 297.44 64.86 298.76 64.86ZM306.66 55.54H310.32C312.774 55.54 314 56.4267 314 58.2V58.26C314 58.7667 313.86 59.2333 313.58 59.66C313.3 60.0733 312.88 60.3533 312.32 60.5C313.774 60.82 314.5 61.6067 314.5 62.86V62.92C314.5 63.9333 314.167 64.7 313.5 65.22C312.847 65.74 311.934 66 310.76 66H306.66V55.54ZM308.32 56.86V59.96H310.32C311.014 59.96 311.507 59.8333 311.8 59.58C312.107 59.3267 312.26 58.9133 312.26 58.34V58.28C312.26 57.7467 312.1 57.38 311.78 57.18C311.474 56.9667 310.98 56.86 310.3 56.86H308.32ZM308.32 61.28V64.68H310.6C311.334 64.68 311.874 64.5533 312.22 64.3C312.58 64.0333 312.76 63.6067 312.76 63.02V62.96C312.76 62.3733 312.58 61.9467 312.22 61.68C311.874 61.4133 311.334 61.28 310.6 61.28H308.32ZM324.391 56.94H321.011V66H319.351V56.94H315.971V55.54H324.391V56.94ZM330.769 64.8C331.809 64.8 332.636 64.44 333.249 63.72C333.876 63 334.189 62.0467 334.189 60.86V60.72C334.189 59.5067 333.876 58.54 333.249 57.82C332.636 57.1 331.809 56.74 330.769 56.74C329.716 56.74 328.883 57.1 328.269 57.82C327.656 58.54 327.349 59.5 327.349 60.7V60.86C327.349 62.0733 327.649 63.0333 328.249 63.74C328.863 64.4467 329.703 64.8 330.769 64.8ZM330.749 66.18C329.269 66.18 328.043 65.68 327.069 64.68C326.109 63.6667 325.629 62.3933 325.629 60.86V60.7C325.629 59.14 326.109 57.86 327.069 56.86C328.043 55.86 329.276 55.36 330.769 55.36C332.263 55.36 333.489 55.86 334.449 56.86C335.423 57.8467 335.909 59.12 335.909 60.68V60.84C335.909 62.4133 335.423 63.7 334.449 64.7C333.476 65.6867 332.243 66.18 330.749 66.18ZM338.48 55.54H340.14V57.3C340.446 56.7667 340.926 56.3133 341.58 55.94C342.233 55.5533 342.933 55.36 343.68 55.36C345.08 55.36 346.22 55.8333 347.1 56.78C347.993 57.7267 348.44 59.0067 348.44 60.62V60.78C348.44 62.3933 348 63.7 347.12 64.7C346.253 65.6867 345.106 66.18 343.68 66.18C342.08 66.18 340.9 65.5467 340.14 64.28V69.64H338.48V55.54ZM343.52 64.8C344.56 64.8 345.353 64.4667 345.9 63.8C346.446 63.12 346.72 62.14 346.72 60.86V60.7C346.72 59.4333 346.413 58.46 345.8 57.78C345.2 57.0867 344.433 56.74 343.5 56.74C342.486 56.74 341.66 57.08 341.02 57.76C340.393 58.4267 340.08 59.4067 340.08 60.7V60.86C340.08 62.1533 340.386 63.1333 341 63.8C341.626 64.4667 342.466 64.8 343.52 64.8ZM355.359 66.18C353.865 66.18 352.639 65.7 351.679 64.74C350.719 63.7667 350.239 62.48 350.239 60.88V60.72C350.239 59.1467 350.725 57.86 351.699 56.86C352.685 55.86 353.892 55.36 355.319 55.36C356.519 55.36 357.539 55.66 358.379 56.26C359.219 56.8467 359.712 57.7667 359.859 59.02H358.219C357.979 57.5 357.012 56.74 355.319 56.74C354.345 56.74 353.539 57.1067 352.899 57.84C352.272 58.56 351.959 59.52 351.959 60.72V60.88C351.959 62.1333 352.265 63.1 352.879 63.78C353.505 64.46 354.339 64.8 355.379 64.8C356.165 64.8 356.839 64.58 357.399 64.14C357.972 63.6867 358.299 63.0533 358.379 62.24H359.919C359.812 63.3867 359.332 64.3333 358.479 65.08C357.639 65.8133 356.599 66.18 355.359 66.18ZM369.645 56.94H366.265V66H364.605V56.94H361.225V55.54H369.645V56.94ZM371.934 55.54H375.594C378.047 55.54 379.274 56.4267 379.274 58.2V58.26C379.274 58.7667 379.134 59.2333 378.854 59.66C378.574 60.0733 378.154 60.3533 377.594 60.5C379.047 60.82 379.774 61.6067 379.774 62.86V62.92C379.774 63.9333 379.441 64.7 378.774 65.22C378.121 65.74 377.207 66 376.034 66H371.934V55.54ZM373.594 56.86V59.96H375.594C376.287 59.96 376.781 59.8333 377.074 59.58C377.381 59.3267 377.534 58.9133 377.534 58.34V58.28C377.534 57.7467 377.374 57.38 377.054 57.18C376.747 56.9667 376.254 56.86 375.574 56.86H373.594ZM373.594 61.28V64.68H375.874C376.607 64.68 377.147 64.5533 377.494 64.3C377.854 64.0333 378.034 63.6067 378.034 63.02V62.96C378.034 62.3733 377.854 61.9467 377.494 61.68C377.147 61.4133 376.607 61.28 375.874 61.28H373.594ZM385.26 66.18C384.233 66.18 383.393 65.9267 382.74 65.42C382.1 64.9 381.78 64.1267 381.78 63.1C381.78 62.5267 381.92 62.0267 382.2 61.6C382.493 61.16 382.893 60.82 383.4 60.58C383.907 60.3267 384.46 60.1467 385.06 60.04C385.66 59.92 386.313 59.86 387.02 59.86H388.52V59.1C388.52 58.26 388.347 57.66 388 57.3C387.653 56.9267 387.08 56.74 386.28 56.74C384.84 56.74 384.04 57.3667 383.88 58.62H382.22C382.327 57.5 382.76 56.68 383.52 56.16C384.293 55.6267 385.24 55.36 386.36 55.36C388.907 55.36 390.18 56.6067 390.18 59.1V66H388.52V64.68C387.72 65.68 386.633 66.18 385.26 66.18ZM385.42 64.86C386.327 64.86 387.067 64.64 387.64 64.2C388.227 63.7467 388.52 63.1267 388.52 62.34V61.04H387.08C384.653 61.04 383.44 61.7267 383.44 63.1C383.44 64.2733 384.1 64.86 385.42 64.86ZM392.481 67.9L394.401 63.52L396.021 64.28L393.561 68.46L392.481 67.9ZM404.613 55.54H406.273V57.3C406.579 56.7667 407.059 56.3133 407.713 55.94C408.366 55.5533 409.066 55.36 409.813 55.36C411.213 55.36 412.353 55.8333 413.233 56.78C414.126 57.7267 414.572 59.0067 414.572 60.62V60.78C414.572 62.3933 414.133 63.7 413.253 64.7C412.386 65.6867 411.239 66.18 409.813 66.18C408.213 66.18 407.033 65.5467 406.273 64.28V69.64H404.613V55.54ZM409.653 64.8C410.693 64.8 411.486 64.4667 412.033 63.8C412.579 63.12 412.853 62.14 412.853 60.86V60.7C412.853 59.4333 412.546 58.46 411.933 57.78C411.333 57.0867 410.566 56.74 409.633 56.74C408.619 56.74 407.793 57.08 407.153 57.76C406.526 58.4267 406.213 59.4067 406.213 60.7V60.86C406.213 62.1533 406.519 63.1333 407.133 63.8C407.759 64.4667 408.599 64.8 409.653 64.8ZM421.432 66.18C419.938 66.18 418.718 65.6933 417.772 64.72C416.838 63.7467 416.372 62.4667 416.372 60.88V60.72C416.372 59.1467 416.825 57.86 417.732 56.86C418.652 55.86 419.832 55.36 421.272 55.36C422.605 55.36 423.718 55.7933 424.612 56.66C425.518 57.5133 425.972 58.8133 425.972 60.56V61.1H418.092C418.172 63.5667 419.292 64.8 421.452 64.8C423.092 64.8 424.018 64.1933 424.232 62.98H425.892C425.705 64.02 425.218 64.8133 424.432 65.36C423.645 65.9067 422.645 66.18 421.432 66.18ZM424.272 59.76C424.125 57.7467 423.125 56.74 421.272 56.74C420.432 56.74 419.738 57.0067 419.192 57.54C418.645 58.0733 418.298 58.8133 418.152 59.76H424.272ZM436.919 68.54L436.799 66H428.399V55.54H430.059V64.6H434.999V55.54H436.659V64.6H438.259V68.54H436.919ZM444.635 66.18C443.141 66.18 441.921 65.6933 440.975 64.72C440.041 63.7467 439.575 62.4667 439.575 60.88V60.72C439.575 59.1467 440.028 57.86 440.935 56.86C441.855 55.86 443.035 55.36 444.475 55.36C445.808 55.36 446.921 55.7933 447.815 56.66C448.721 57.5133 449.175 58.8133 449.175 60.56V61.1H441.295C441.375 63.5667 442.495 64.8 444.655 64.8C446.295 64.8 447.221 64.1933 447.435 62.98H449.095C448.908 64.02 448.421 64.8133 447.635 65.36C446.848 65.9067 445.848 66.18 444.635 66.18ZM447.475 59.76C447.328 57.7467 446.328 56.74 444.475 56.74C443.635 56.74 442.941 57.0067 442.395 57.54C441.848 58.0733 441.501 58.8133 441.355 59.76H447.475ZM458.402 61.34H453.262V66H451.602V55.54H453.262V59.94H458.402V55.54H460.062V66H458.402V61.34ZM470.158 58.26C470.158 58.78 470.005 59.26 469.698 59.7C469.405 60.1267 468.985 60.3933 468.438 60.5C469.118 60.62 469.658 60.88 470.058 61.28C470.458 61.68 470.658 62.2067 470.658 62.86V62.92C470.658 63.8933 470.298 64.68 469.578 65.28C468.872 65.88 467.905 66.18 466.678 66.18C465.412 66.18 464.418 65.8867 463.698 65.3C462.992 64.7 462.612 63.86 462.558 62.78H464.178C464.258 63.4467 464.485 63.9533 464.858 64.3C465.245 64.6333 465.852 64.8 466.678 64.8C468.172 64.8 468.918 64.2067 468.918 63.02V62.96C468.918 62.3733 468.738 61.9467 468.378 61.68C468.032 61.4133 467.492 61.28 466.758 61.28H465.178V59.96H466.478C467.172 59.96 467.665 59.8333 467.958 59.58C468.265 59.3267 468.418 58.9133 468.418 58.34V58.28C468.418 57.2533 467.818 56.74 466.618 56.74C465.458 56.74 464.765 57.2867 464.538 58.38H462.938C463.058 57.3267 463.458 56.56 464.138 56.08C464.832 55.6 465.692 55.36 466.718 55.36C467.705 55.36 468.525 55.6133 469.178 56.12C469.832 56.6133 470.158 57.3067 470.158 58.2V58.26ZM473.301 66V55.54H474.961V63.6L480.301 55.54H481.961V66H480.301V57.94L474.961 66H473.301ZM485.238 55.54H486.898V57.3C487.204 56.7667 487.684 56.3133 488.338 55.94C488.991 55.5533 489.691 55.36 490.438 55.36C491.838 55.36 492.978 55.8333 493.858 56.78C494.751 57.7267 495.197 59.0067 495.197 60.62V60.78C495.197 62.3933 494.758 63.7 493.878 64.7C493.011 65.6867 491.864 66.18 490.438 66.18C488.838 66.18 487.658 65.5467 486.898 64.28V69.64H485.238V55.54ZM490.278 64.8C491.318 64.8 492.111 64.4667 492.658 63.8C493.204 63.12 493.478 62.14 493.478 60.86V60.7C493.478 59.4333 493.171 58.46 492.558 57.78C491.958 57.0867 491.191 56.74 490.258 56.74C489.244 56.74 488.418 57.08 487.778 57.76C487.151 58.4267 486.838 59.4067 486.838 60.7V60.86C486.838 62.1533 487.144 63.1333 487.758 63.8C488.384 64.4667 489.224 64.8 490.278 64.8ZM502.137 64.8C503.177 64.8 504.003 64.44 504.617 63.72C505.243 63 505.557 62.0467 505.557 60.86V60.72C505.557 59.5067 505.243 58.54 504.617 57.82C504.003 57.1 503.177 56.74 502.137 56.74C501.083 56.74 500.25 57.1 499.637 57.82C499.023 58.54 498.717 59.5 498.717 60.7V60.86C498.717 62.0733 499.017 63.0333 499.617 63.74C500.23 64.4467 501.07 64.8 502.137 64.8ZM502.117 66.18C500.637 66.18 499.41 65.68 498.437 64.68C497.477 63.6667 496.997 62.3933 496.997 60.86V60.7C496.997 59.14 497.477 57.86 498.437 56.86C499.41 55.86 500.643 55.36 502.137 55.36C503.63 55.36 504.857 55.86 505.817 56.86C506.79 57.8467 507.277 59.12 507.277 60.68V60.84C507.277 62.4133 506.79 63.7 505.817 64.7C504.843 65.6867 503.61 66.18 502.117 66.18ZM509.727 55.54H513.387C515.84 55.54 517.067 56.4267 517.067 58.2V58.26C517.067 58.7667 516.927 59.2333 516.647 59.66C516.367 60.0733 515.947 60.3533 515.387 60.5C516.84 60.82 517.567 61.6067 517.567 62.86V62.92C517.567 63.9333 517.234 64.7 516.567 65.22C515.914 65.74 515 66 513.827 66H509.727V55.54ZM511.387 56.86V59.96H513.387C514.08 59.96 514.574 59.8333 514.867 59.58C515.174 59.3267 515.327 58.9133 515.327 58.34V58.28C515.327 57.7467 515.167 57.38 514.847 57.18C514.54 56.9667 514.047 56.86 513.367 56.86H511.387ZM511.387 61.28V64.68H513.667C514.4 64.68 514.94 64.5533 515.287 64.3C515.647 64.0333 515.827 63.6067 515.827 63.02V62.96C515.827 62.3733 515.647 61.9467 515.287 61.68C514.94 61.4133 514.4 61.28 513.667 61.28H511.387ZM523.053 66.18C522.026 66.18 521.186 65.9267 520.533 65.42C519.893 64.9 519.573 64.1267 519.573 63.1C519.573 62.5267 519.713 62.0267 519.993 61.6C520.286 61.16 520.686 60.82 521.193 60.58C521.699 60.3267 522.253 60.1467 522.853 60.04C523.453 59.92 524.106 59.86 524.813 59.86H526.313V59.1C526.313 58.26 526.139 57.66 525.793 57.3C525.446 56.9267 524.873 56.74 524.073 56.74C522.633 56.74 521.833 57.3667 521.673 58.62H520.013C520.119 57.5 520.553 56.68 521.313 56.16C522.086 55.6267 523.033 55.36 524.153 55.36C526.699 55.36 527.973 56.6067 527.973 59.1V66H526.313V64.68C525.513 65.68 524.426 66.18 523.053 66.18ZM523.213 64.86C524.119 64.86 524.859 64.64 525.433 64.2C526.019 63.7467 526.313 63.1267 526.313 62.34V61.04H524.873C522.446 61.04 521.233 61.7267 521.233 63.1C521.233 64.2733 521.893 64.86 523.213 64.86ZM537.914 61.34H532.774V66H531.114V55.54H532.774V59.94H537.914V55.54H539.574V66H537.914V61.34ZM542.93 66V55.54H544.59V63.6L549.93 55.54H551.59V66H549.93V57.94L544.59 66H542.93ZM558.226 56.86C556.733 56.86 555.986 57.4933 555.986 58.76V58.82C555.986 59.42 556.16 59.8733 556.506 60.18C556.853 60.4867 557.426 60.64 558.226 60.64H560.186V56.86H558.226ZM555.466 66H553.566L556.746 61.62C555.133 61.2867 554.326 60.3533 554.326 58.82V58.76C554.326 57.6667 554.7 56.86 555.446 56.34C556.193 55.8067 557.153 55.54 558.326 55.54H561.846V66H560.186V61.9H558.386L555.466 66ZM570.508 66V55.54H572.168V63.6L577.508 55.54H579.168V66H577.508V57.94L572.168 66H570.508ZM8.28 81.94H3.34V91H1.68V80.54H9.94V91H8.28V81.94ZM17.7811 89.8C18.8211 89.8 19.6478 89.44 20.2611 88.72C20.8878 88 21.2011 87.0467 21.2011 85.86V85.72C21.2011 84.5067 20.8878 83.54 20.2611 82.82C19.6478 82.1 18.8211 81.74 17.7811 81.74C16.7278 81.74 15.8944 82.1 15.2811 82.82C14.6678 83.54 14.3611 84.5 14.3611 85.7V85.86C14.3611 87.0733 14.6611 88.0333 15.2611 88.74C15.8744 89.4467 16.7144 89.8 17.7811 89.8ZM17.7611 91.18C16.2811 91.18 15.0544 90.68 14.0811 89.68C13.1211 88.6667 12.6411 87.3933 12.6411 85.86V85.7C12.6411 84.14 13.1211 82.86 14.0811 81.86C15.0544 80.86 16.2878 80.36 17.7811 80.36C19.2744 80.36 20.5011 80.86 21.4611 81.86C22.4344 82.8467 22.9211 84.12 22.9211 85.68V85.84C22.9211 87.4133 22.4344 88.7 21.4611 89.7C20.4878 90.6867 19.2544 91.18 17.7611 91.18ZM25.3714 80.54H29.0314C31.4847 80.54 32.7114 81.4267 32.7114 83.2V83.26C32.7114 83.7667 32.5714 84.2333 32.2914 84.66C32.0114 85.0733 31.5914 85.3533 31.0314 85.5C32.4847 85.82 33.2114 86.6067 33.2114 87.86V87.92C33.2114 88.9333 32.8781 89.7 32.2114 90.22C31.5581 90.74 30.6447 91 29.4714 91H25.3714V80.54ZM27.0314 81.86V84.96H29.0314C29.7247 84.96 30.2181 84.8333 30.5114 84.58C30.8181 84.3267 30.9714 83.9133 30.9714 83.34V83.28C30.9714 82.7467 30.8114 82.38 30.4914 82.18C30.1847 81.9667 29.6914 81.86 29.0114 81.86H27.0314ZM27.0314 86.28V89.68H29.3114C30.0447 89.68 30.5847 89.5533 30.9314 89.3C31.2914 89.0333 31.4714 88.6067 31.4714 88.02V87.96C31.4714 87.3733 31.2914 86.9467 30.9314 86.68C30.5847 86.4133 30.0447 86.28 29.3114 86.28H27.0314ZM44.8597 80.54H46.5197V91H44.8597V80.54ZM35.8597 80.54H37.5197V84.2H39.3797C40.5664 84.2 41.5264 84.4667 42.2597 85C43.0064 85.5333 43.3797 86.3733 43.3797 87.52V87.58C43.3797 88.7133 43.0064 89.5667 42.2597 90.14C41.513 90.7133 40.553 91 39.3797 91H35.8597V80.54ZM39.4797 89.68C40.2664 89.68 40.833 89.5133 41.1797 89.18C41.5397 88.8333 41.7197 88.3 41.7197 87.58V87.52C41.7197 86.8533 41.5464 86.3533 41.1997 86.02C40.853 85.6733 40.2797 85.5 39.4797 85.5H37.5197V89.68H39.4797ZM49.8831 80.54H51.5431V89.6H55.4831V80.54H57.1431V89.6H61.0831V80.54H62.7431V91H49.8831V80.54ZM70.4941 91.18C69.0007 91.18 67.7807 90.6933 66.8341 89.72C65.9007 88.7467 65.4341 87.4667 65.4341 85.88V85.72C65.4341 84.1467 65.8874 82.86 66.7941 81.86C67.7141 80.86 68.8941 80.36 70.3341 80.36C71.6674 80.36 72.7807 80.7933 73.6741 81.66C74.5807 82.5133 75.0341 83.8133 75.0341 85.56V86.1H67.1541C67.2341 88.5667 68.3541 89.8 70.5141 89.8C72.1541 89.8 73.0807 89.1933 73.2941 87.98H74.9541C74.7674 89.02 74.2807 89.8133 73.4941 90.36C72.7074 90.9067 71.7074 91.18 70.4941 91.18ZM73.3341 84.76C73.1874 82.7467 72.1874 81.74 70.3341 81.74C69.4941 81.74 68.8007 82.0067 68.2541 82.54C67.7074 83.0733 67.3607 83.8133 67.2141 84.76H73.3341ZM84.2613 86.34H79.1213V91H77.4613V80.54H79.1213V84.94H84.2613V80.54H85.9213V91H84.2613V86.34ZM89.2777 91V80.54H90.9377V88.6L96.2777 80.54H97.9377V91H96.2777V82.94L90.9377 91H89.2777ZM104.574 81.86C103.081 81.86 102.334 82.4933 102.334 83.76V83.82C102.334 84.42 102.507 84.8733 102.854 85.18C103.201 85.4867 103.774 85.64 104.574 85.64H106.534V81.86H104.574ZM101.814 91H99.9141L103.094 86.62C101.481 86.2867 100.674 85.3533 100.674 83.82V83.76C100.674 82.6667 101.047 81.86 101.794 81.34C102.541 80.8067 103.501 80.54 104.674 80.54H108.194V91H106.534V86.9H104.734L101.814 91ZM116.856 91V80.54H118.516V88.6L123.856 80.54H125.516V91H123.856V82.94L118.516 91H116.856ZM135.472 86.34H130.332V91H128.672V80.54H130.332V84.94H135.472V80.54H137.132V91H135.472V86.34ZM142.529 86.96C142.382 88.1867 142.155 89.0667 141.849 89.6H146.749V81.9H142.909C142.842 83.5267 142.715 85.2133 142.529 86.96ZM140.449 93.54H139.109V89.6H139.849C140.222 89.5067 140.482 89.24 140.629 88.8C140.775 88.3467 140.902 87.7 141.009 86.86C141.129 85.78 141.242 84.42 141.349 82.78C141.402 82.0467 141.442 81.3 141.469 80.54H148.369V89.6H149.969V93.54H148.629L148.509 91H140.569L140.449 93.54ZM156.353 91.18C154.86 91.18 153.64 90.6933 152.693 89.72C151.76 88.7467 151.293 87.4667 151.293 85.88V85.72C151.293 84.1467 151.747 82.86 152.653 81.86C153.573 80.86 154.753 80.36 156.193 80.36C157.527 80.36 158.64 80.7933 159.533 81.66C160.44 82.5133 160.893 83.8133 160.893 85.56V86.1H153.013C153.093 88.5667 154.213 89.8 156.373 89.8C158.013 89.8 158.94 89.1933 159.153 87.98H160.813C160.627 89.02 160.14 89.8133 159.353 90.36C158.567 90.9067 157.567 91.18 156.353 91.18ZM159.193 84.76C159.047 82.7467 158.047 81.74 156.193 81.74C155.353 81.74 154.66 82.0067 154.113 82.54C153.567 83.0733 153.22 83.8133 153.073 84.76H159.193ZM164.981 85.66V91H163.321V80.54H164.981V85.42L169.321 80.54H171.261L166.781 85.46L171.641 91H169.621L164.981 85.66ZM177.703 91.18C176.209 91.18 174.983 90.7 174.023 89.74C173.063 88.7667 172.583 87.48 172.583 85.88V85.72C172.583 84.1467 173.069 82.86 174.043 81.86C175.029 80.86 176.236 80.36 177.663 80.36C178.863 80.36 179.883 80.66 180.723 81.26C181.563 81.8467 182.056 82.7667 182.203 84.02H180.563C180.323 82.5 179.356 81.74 177.663 81.74C176.689 81.74 175.883 82.1067 175.243 82.84C174.616 83.56 174.303 84.52 174.303 85.72V85.88C174.303 87.1333 174.609 88.1 175.223 88.78C175.849 89.46 176.683 89.8 177.723 89.8C178.509 89.8 179.183 89.58 179.743 89.14C180.316 88.6867 180.643 88.0533 180.723 87.24H182.263C182.156 88.3867 181.676 89.3333 180.823 90.08C179.983 90.8133 178.943 91.18 177.703 91.18ZM187.389 91.18C186.362 91.18 185.522 90.9267 184.869 90.42C184.229 89.9 183.909 89.1267 183.909 88.1C183.909 87.5267 184.049 87.0267 184.329 86.6C184.622 86.16 185.022 85.82 185.529 85.58C186.035 85.3267 186.589 85.1467 187.189 85.04C187.789 84.92 188.442 84.86 189.149 84.86H190.649V84.1C190.649 83.26 190.475 82.66 190.129 82.3C189.782 81.9267 189.209 81.74 188.409 81.74C186.969 81.74 186.169 82.3667 186.009 83.62H184.349C184.455 82.5 184.889 81.68 185.649 81.16C186.422 80.6267 187.369 80.36 188.489 80.36C191.035 80.36 192.309 81.6067 192.309 84.1V91H190.649V89.68C189.849 90.68 188.762 91.18 187.389 91.18ZM187.549 89.86C188.455 89.86 189.195 89.64 189.769 89.2C190.355 88.7467 190.649 88.1267 190.649 87.34V86.04H189.209C186.782 86.04 185.569 86.7267 185.569 88.1C185.569 89.2733 186.229 89.86 187.549 89.86ZM209.263 93.54L209.143 91H200.743V80.54H202.403V89.6H207.343V80.54H209.003V89.6H210.603V93.54H209.263ZM212.676 91V80.54H214.336V88.6L219.676 80.54H221.336V91H219.676V82.94L214.336 91H212.676ZM231.833 81.94H228.453V91H226.793V81.94H223.413V80.54H231.833V81.94ZM234.121 91V80.54H235.781V88.6L241.121 80.54H242.781V91H241.121V82.94L235.781 91H234.121ZM246.058 80.54H247.718V82.3C248.024 81.7667 248.504 81.3133 249.158 80.94C249.811 80.5533 250.511 80.36 251.258 80.36C252.658 80.36 253.798 80.8333 254.678 81.78C255.571 82.7267 256.018 84.0067 256.018 85.62V85.78C256.018 87.3933 255.578 88.7 254.698 89.7C253.831 90.6867 252.684 91.18 251.258 91.18C249.658 91.18 248.478 90.5467 247.718 89.28V94.64H246.058V80.54ZM251.098 89.8C252.138 89.8 252.931 89.4667 253.478 88.8C254.024 88.12 254.298 87.14 254.298 85.86V85.7C254.298 84.4333 253.991 83.46 253.378 82.78C252.778 82.0867 252.011 81.74 251.078 81.74C250.064 81.74 249.238 82.08 248.598 82.76C247.971 83.4267 247.658 84.4067 247.658 85.7V85.86C247.658 87.1533 247.964 88.1333 248.578 88.8C249.204 89.4667 250.044 89.8 251.098 89.8ZM262.957 89.8C263.997 89.8 264.824 89.44 265.437 88.72C266.064 88 266.377 87.0467 266.377 85.86V85.72C266.377 84.5067 266.064 83.54 265.437 82.82C264.824 82.1 263.997 81.74 262.957 81.74C261.904 81.74 261.07 82.1 260.457 82.82C259.844 83.54 259.537 84.5 259.537 85.7V85.86C259.537 87.0733 259.837 88.0333 260.437 88.74C261.05 89.4467 261.89 89.8 262.957 89.8ZM262.937 91.18C261.457 91.18 260.23 90.68 259.257 89.68C258.297 88.6667 257.817 87.3933 257.817 85.86V85.7C257.817 84.14 258.297 82.86 259.257 81.86C260.23 80.86 261.464 80.36 262.957 80.36C264.45 80.36 265.677 80.86 266.637 81.86C267.61 82.8467 268.097 84.12 268.097 85.68V85.84C268.097 87.4133 267.61 88.7 266.637 89.7C265.664 90.6867 264.43 91.18 262.937 91.18ZM270.547 80.54H274.207C276.661 80.54 277.887 81.4267 277.887 83.2V83.26C277.887 83.7667 277.747 84.2333 277.467 84.66C277.187 85.0733 276.767 85.3533 276.207 85.5C277.661 85.82 278.387 86.6067 278.387 87.86V87.92C278.387 88.9333 278.054 89.7 277.387 90.22C276.734 90.74 275.821 91 274.647 91H270.547V80.54ZM272.207 81.86V84.96H274.207C274.901 84.96 275.394 84.8333 275.687 84.58C275.994 84.3267 276.147 83.9133 276.147 83.34V83.28C276.147 82.7467 275.987 82.38 275.667 82.18C275.361 81.9667 274.867 81.86 274.187 81.86H272.207ZM272.207 86.28V89.68H274.487C275.221 89.68 275.761 89.5533 276.107 89.3C276.467 89.0333 276.647 88.6067 276.647 88.02V87.96C276.647 87.3733 276.467 86.9467 276.107 86.68C275.761 86.4133 275.221 86.28 274.487 86.28H272.207ZM283.873 91.18C282.846 91.18 282.006 90.9267 281.353 90.42C280.713 89.9 280.393 89.1267 280.393 88.1C280.393 87.5267 280.533 87.0267 280.813 86.6C281.106 86.16 281.506 85.82 282.013 85.58C282.52 85.3267 283.073 85.1467 283.673 85.04C284.273 84.92 284.926 84.86 285.633 84.86H287.133V84.1C287.133 83.26 286.96 82.66 286.613 82.3C286.266 81.9267 285.693 81.74 284.893 81.74C283.453 81.74 282.653 82.3667 282.493 83.62H280.833C280.94 82.5 281.373 81.68 282.133 81.16C282.906 80.6267 283.853 80.36 284.973 80.36C287.52 80.36 288.793 81.6067 288.793 84.1V91H287.133V89.68C286.333 90.68 285.246 91.18 283.873 91.18ZM284.033 89.86C284.94 89.86 285.68 89.64 286.253 89.2C286.84 88.7467 287.133 88.1267 287.133 87.34V86.04H285.693C283.266 86.04 282.053 86.7267 282.053 88.1C282.053 89.2733 282.713 89.86 284.033 89.86ZM298.734 86.34H293.594V91H291.934V80.54H293.594V84.94H298.734V80.54H300.394V91H298.734V86.34ZM303.75 91V80.54H305.41V88.6L310.75 80.54H312.41V91H310.75V82.94L305.41 91H303.75ZM319.047 81.86C317.553 81.86 316.807 82.4933 316.807 83.76V83.82C316.807 84.42 316.98 84.8733 317.327 85.18C317.673 85.4867 318.247 85.64 319.047 85.64H321.007V81.86H319.047ZM316.287 91H314.387L317.567 86.62C315.953 86.2867 315.147 85.3533 315.147 83.82V83.76C315.147 82.6667 315.52 81.86 316.267 81.34C317.013 80.8067 317.973 80.54 319.147 80.54H322.667V91H321.007V86.9H319.207L316.287 91ZM328.195 90.74C327.942 90.98 327.642 91.1 327.295 91.1C326.949 91.1 326.649 90.98 326.395 90.74C326.142 90.4867 326.015 90.18 326.015 89.82C326.015 89.46 326.142 89.16 326.395 88.92C326.649 88.6667 326.949 88.54 327.295 88.54C327.642 88.54 327.942 88.6667 328.195 88.92C328.449 89.16 328.575 89.46 328.575 89.82C328.575 90.18 328.449 90.4867 328.195 90.74Z" fill="#2F2F2F"/>
</svg>
