<svg width="195" height="36" viewBox="0 0 195 36" fill="none" xmlns="http://www.w3.org/2000/svg">
<rect x="0.5" y="0.5" width="194" height="35" rx="17.5" stroke="#3A85F4"/>
<path d="M39.5645 23.14C38.0152 23.14 36.8112 22.6827 35.9525 21.768C35.1032 20.8533 34.6785 19.6167 34.6785 18.058V17.946C34.6785 16.4527 35.1358 15.23 36.0505 14.278C36.9652 13.3167 38.1272 12.836 39.5365 12.836C40.7312 12.836 41.7158 13.1347 42.4905 13.732C43.2745 14.3293 43.7225 15.1973 43.8345 16.336H41.9445C41.8418 15.6547 41.5945 15.1507 41.2025 14.824C40.8198 14.488 40.2692 14.32 39.5505 14.32C38.6732 14.32 37.9685 14.6467 37.4365 15.3C36.9045 15.944 36.6385 16.8213 36.6385 17.932V18.044C36.6385 19.1733 36.8952 20.0553 37.4085 20.69C37.9218 21.3153 38.6405 21.628 39.5645 21.628C40.2738 21.628 40.8525 21.4507 41.3005 21.096C41.7485 20.732 42.0238 20.2047 42.1265 19.514H43.9465C43.8065 20.6993 43.3445 21.6 42.5605 22.216C41.7858 22.832 40.7872 23.14 39.5645 23.14ZM50.4314 21.642C51.3741 21.642 52.1208 21.3153 52.6714 20.662C53.2314 19.9993 53.5114 19.122 53.5114 18.03V17.918C53.5114 16.8633 53.2314 16.0047 52.6714 15.342C52.1208 14.67 51.3648 14.334 50.4034 14.334C49.4328 14.334 48.6674 14.6607 48.1074 15.314C47.5568 15.9673 47.2814 16.84 47.2814 17.932V18.044C47.2814 19.1267 47.5754 19.9993 48.1634 20.662C48.7514 21.3153 49.5074 21.642 50.4314 21.642ZM50.4034 23.14C48.8914 23.14 47.6688 22.6593 46.7354 21.698C45.8021 20.7367 45.3354 19.5233 45.3354 18.058V17.946C45.3354 16.4713 45.8068 15.2533 46.7494 14.292C47.7014 13.3307 48.9194 12.85 50.4034 12.85C51.8874 12.85 53.0961 13.326 54.0294 14.278C54.9721 15.2207 55.4434 16.4293 55.4434 17.904V18.016C55.4434 19.4907 54.9768 20.7133 54.0434 21.684C53.1194 22.6547 51.9061 23.14 50.4034 23.14ZM60.6174 23.14C59.4881 23.14 58.5921 22.8367 57.9294 22.23C57.2668 21.6233 56.8794 20.7973 56.7674 19.752H58.5454C58.7321 21.012 59.4274 21.642 60.6314 21.642C61.2568 21.642 61.7328 21.4973 62.0594 21.208C62.3861 20.9093 62.5494 20.494 62.5494 19.962C62.5494 19.4393 62.4048 19.066 62.1154 18.842C61.8261 18.6087 61.3361 18.492 60.6454 18.492H59.5114V17.204H60.6174C61.6814 17.204 62.2134 16.7093 62.2134 15.72C62.2134 15.272 62.0781 14.9313 61.8074 14.698C61.5368 14.4553 61.1494 14.334 60.6454 14.334C60.1041 14.334 59.6888 14.4693 59.3994 14.74C59.1194 15.0013 58.9234 15.4073 58.8114 15.958H57.0614C57.1828 14.95 57.5561 14.18 58.1814 13.648C58.8161 13.116 59.6608 12.85 60.7154 12.85C61.7141 12.85 62.5214 13.102 63.1374 13.606C63.7628 14.11 64.0754 14.768 64.0754 15.58C64.0754 16.1213 63.9354 16.588 63.6554 16.98C63.3754 17.372 62.9601 17.6473 62.4094 17.806C63.0814 17.9087 63.5901 18.156 63.9354 18.548C64.2901 18.9307 64.4674 19.4347 64.4674 20.06C64.4674 20.9747 64.1081 21.7167 63.3894 22.286C62.6801 22.8553 61.7561 23.14 60.6174 23.14ZM68.8335 18.996C68.7215 20.1627 68.5115 20.998 68.2035 21.502H72.3475V14.474H69.0575C68.9921 16.3593 68.9175 17.8667 68.8335 18.996ZM67.0555 24.82H65.4595V21.502H66.0895C66.4068 21.3713 66.6448 21.1007 66.8035 20.69C66.9621 20.27 67.0835 19.6633 67.1675 18.87C67.3168 16.9567 67.3915 14.9967 67.3915 12.99H74.1955V21.502H75.3855V24.82H73.7755L73.7055 23H67.1255L67.0555 24.82ZM79.689 12.99H82.125L85.429 23H83.497L82.699 20.522H78.877L78.093 23H76.343L79.689 12.99ZM79.311 19.164H82.265L80.795 14.516L79.311 19.164ZM88.2544 14.46H85.4684V12.99H92.9164V14.46H90.1304V23H88.2544V14.46ZM94.6945 12.99H96.5565V16.784H97.9565C99.0765 16.784 99.9632 17.036 100.617 17.54C101.279 18.044 101.611 18.8047 101.611 19.822V19.878C101.611 20.9047 101.279 21.684 100.617 22.216C99.9632 22.7387 99.0625 23 97.9145 23H94.6945V12.99ZM97.9145 21.558C99.1745 21.558 99.8045 20.9933 99.8045 19.864V19.808C99.8045 18.6973 99.1745 18.142 97.9145 18.142H96.5565V21.558H97.9145ZM110.34 23.14C109.211 23.14 108.315 22.8367 107.652 22.23C106.99 21.6233 106.602 20.7973 106.49 19.752H108.268C108.455 21.012 109.15 21.642 110.354 21.642C110.98 21.642 111.456 21.4973 111.782 21.208C112.109 20.9093 112.272 20.494 112.272 19.962C112.272 19.4393 112.128 19.066 111.838 18.842C111.549 18.6087 111.059 18.492 110.368 18.492H109.234V17.204H110.34C111.404 17.204 111.936 16.7093 111.936 15.72C111.936 15.272 111.801 14.9313 111.53 14.698C111.26 14.4553 110.872 14.334 110.368 14.334C109.827 14.334 109.412 14.4693 109.122 14.74C108.842 15.0013 108.646 15.4073 108.534 15.958H106.784C106.906 14.95 107.279 14.18 107.904 13.648C108.539 13.116 109.384 12.85 110.438 12.85C111.437 12.85 112.244 13.102 112.86 13.606C113.486 14.11 113.798 14.768 113.798 15.58C113.798 16.1213 113.658 16.588 113.378 16.98C113.098 17.372 112.683 17.6473 112.132 17.806C112.804 17.9087 113.313 18.156 113.658 18.548C114.013 18.9307 114.19 19.4347 114.19 20.06C114.19 20.9747 113.831 21.7167 113.112 22.286C112.403 22.8553 111.479 23.14 110.34 23.14ZM118.659 12.99H121.095L124.399 23H122.467L121.669 20.522H117.847L117.063 23H115.313L118.659 12.99ZM118.281 19.164H121.235L119.765 14.516L118.281 19.164ZM129.765 14.432C129.139 14.432 128.668 14.5533 128.351 14.796C128.033 15.0293 127.875 15.426 127.875 15.986V16.042C127.875 17.1247 128.509 17.666 129.779 17.666H131.179V14.432H129.765ZM127.287 23H125.257L128.239 18.688C127.557 18.548 127.021 18.2587 126.629 17.82C126.237 17.372 126.041 16.7653 126.041 16V15.944C126.041 14.9453 126.377 14.2033 127.049 13.718C127.721 13.2327 128.626 12.99 129.765 12.99H133.041V23H131.179V18.982H129.989L127.287 23ZM135.606 12.99H139.19C141.374 12.99 142.466 13.858 142.466 15.594V15.65C142.466 16.742 141.939 17.4513 140.884 17.778C141.566 17.9273 142.07 18.1933 142.396 18.576C142.723 18.9493 142.886 19.472 142.886 20.144V20.2C142.886 21.124 142.592 21.824 142.004 22.3C141.416 22.7667 140.567 23 139.456 23H135.606V12.99ZM139.232 21.67C140.446 21.67 141.052 21.138 141.052 20.074V20.018C141.052 19.486 140.898 19.094 140.59 18.842C140.282 18.59 139.788 18.464 139.106 18.464H137.426V21.67H139.232ZM138.966 17.204C139.573 17.204 140.007 17.0873 140.268 16.854C140.539 16.6207 140.674 16.2473 140.674 15.734V15.678C140.674 15.202 140.534 14.8567 140.254 14.642C139.974 14.4273 139.536 14.32 138.938 14.32H137.426V17.204H138.966ZM144.896 12.99H146.758V17.526L150.594 12.976H152.596L148.452 17.764L152.806 23H150.608L146.758 18.324V23H144.896V12.99ZM155.467 23.126C155.066 23.126 154.814 23.0747 154.711 22.972V21.432C154.935 21.488 155.15 21.516 155.355 21.516C156.027 21.516 156.554 21.138 156.937 20.382L153.535 12.99H155.495L157.819 18.324L160.087 12.99H161.879L158.533 20.564C158.141 21.432 157.726 22.076 157.287 22.496C156.858 22.916 156.251 23.126 155.467 23.126Z" fill="#3A85F4"/>
</svg>
